0
SECTION
2
HEADER
9
$INSUNITS
70
4
9
$ACADVER
1
AC1014
9
$HANDSEED
5
FFFF
0
ENDSEC
0
SECTION
2
TABLES
0
TABLE
2
VPORT
5
8
100
AcDbSymbolTable
0
ENDTAB
0
TABLE
2
LTYPE
5
5
100
AcDbSymbolTable
0
LTYPE
5
14
100
AcDbSymbolTableRecord
100
AcDbLinetypeTableRecord
2
BYBLOCK
70
0
0
LTYPE
5
15
100
AcDbSymbolTableRecord
100
AcDbLinetypeTableRecord
2
BYLAYER
70
0
0
ENDTAB
0
TABLE
2
LAYER
5
2
100
AcDbSymbolTable
70
2
0
LAYER
5
50
100
AcDbSymbolTableRecord
100
AcDbLayerTableRecord
2
0
70
0
6
CONTINUOUS
0
ENDTAB
0
TABLE
2
STYLE
5
3
100
AcDbSymbolTable
70
1
0
STYLE
5
11
100
AcDbSymbolTableRecord
100
AcDbTextStyleTableRecord
2
STANDARD
70
0
0
ENDTAB
0
TABLE
2
VIEW
5
6
100
AcDbSymbolTable
70
0
0
ENDTAB
0
TABLE
2
UCS
5
7
100
AcDbSymbolTable
70
0
0
ENDTAB
0
TABLE
2
APPID
5
9
100
AcDbSymbolTable
70
2
0
APPID
5
12
100
AcDbSymbolTableRecord
100
AcDbRegAppTableRecord
2
ACAD
70
0
0
ENDTAB
0
TABLE
2
DIMSTYLE
5
A
100
AcDbSymbolTable
70
1
0
ENDTAB
0
TABLE
2
BLOCK_RECORD
5
1
100
AcDbSymbolTable
70
1
0
BLOCK_RECORD
5
1F
100
AcDbSymbolTableRecord
100
AcDbBlockTableRecord
2
*MODEL_SPACE
0
BLOCK_RECORD
5
1B
100
AcDbSymbolTableRecord
100
AcDbBlockTableRecord
2
*PAPER_SPACE
0
ENDTAB
0
ENDSEC
0
SECTION
2
BLOCKS
0
BLOCK
5
20
100
AcDbEntity
100
AcDbBlockBegin
2
*MODEL_SPACE
0
ENDBLK
5
21
100
AcDbEntity
100
AcDbBlockEnd
0
BLOCK
5
1C
100
AcDbEntity
100
AcDbBlockBegin
2
*PAPER_SPACE
0
ENDBLK
5
1D
100
AcDbEntity
100
AcDbBlockEnd
0
ENDSEC
0
SECTION
2
ENTITIES
0
LWPOLYLINE
5
100
100
AcDbEntity
8
0
100
AcDbPolyline
90
8
70
1
43
0.0
10
1.9199999999999995
20
47.224282545969302
42
-0.41421356237309503
10
3.9200000000000013
20
49.224282545969302
10
7.9199999999999999
20
49.224282545969302
42
-0.41421356237309503
10
9.9199999999999999
20
47.224282545969302
10
9.9199999999999999
20
19.32694220673984
42
-0.41421356237309503
10
7.9200000000000026
20
17.326942206739844
10
3.9200000000000013
20
17.326942206739844
42
-0.41421356237309503
10
1.9199999999999995
20
19.326942206739844
0
CIRCLE
5
101
100
AcDbEntity
8
0
100
AcDbCircle
10
5.9199999999999999
20
45.290000000000006
30
0
40
1.3000000000000007
0
LWPOLYLINE
5
102
100
AcDbEntity
8
0
100
AcDbPolyline
90
40
70
1
43
0.0
10
8.0834652049020015
20
20.947340773735998
10
8.0938006726819989
20
20.583689344522
10
7.8716901560889969
20
20.295564194559997
10
7.7691452990139975
20
19.94651729884
10
7.4688700780979982
20
19.741129921901997
10
7.2634827011600001
20
19.440854700986002
10
6.9144358054399984
20
19.338309843910999
10
6.6263106554780009
20
19.116199327318
10
6.2626592262640006
20
19.126534795097999
10
5.9199999999999982
20
19.004330708090002
10
5.5773407737359992
20
19.126534795097999
10
5.2136893445219989
20
19.116199327318
10
4.9255641945599997
20
19.338309843910999
10
4.576517298839998
20
19.440854700986002
10
4.3711299219019999
20
19.741129921901997
10
4.0708547009860006
20
19.94651729884
10
3.9683098439109981
20
20.295564194559997
10
3.7461993273179992
20
20.583689344522
10
3.7565347950980001
20
20.947340773735998
10
3.6343307080900003
20
21.289999999999999
10
3.7565347950980001
20
21.632659226264003
10
3.7461993273180001
20
21.996310655478002
10
3.9683098439109985
20
22.284435805440005
10
4.0708547009860006
20
22.633482701159998
10
4.3711299219020008
20
22.838870078098005
10
4.576517298839998
20
23.139145299013997
10
4.9255641945599997
20
23.241690156089003
10
5.2136893445219989
20
23.463800672681998
10
5.5773407737359992
20
23.453465204901995
10
5.9199999999999982
20
23.57566929191
10
6.2626592262640006
20
23.453465204901995
10
6.6263106554780009
20
23.463800672681998
10
6.9144358054399984
20
23.241690156089003
10
7.2634827011600001
20
23.139145299013997
10
7.4688700780979982
20
22.838870078098005
10
7.7691452990139975
20
22.633482701159998
10
7.8716901560889969
20
22.284435805440005
10
8.0938006726819989
20
21.996310655478002
10
8.0834652049020015
20
21.632659226264003
10
8.2056692919099952
20
21.289999999999999
0
CIRCLE
5
103
100
AcDbEntity
8
0
100
AcDbCircle
10
6.0000000894069672
20
27.000000402331352
30
0
40
0.5000000074505806
0
ENDSEC
0
SECTION
2
OBJECTS
0
DICTIONARY
5
C
100
AcDbDictionary
3
ACAD_GROUP
350
D
3
ACAD_MLINESTYLE
350
17
0
DICTIONARY
5
D
100
AcDbDictionary
0
DICTIONARY
5
1A
330
C
100
AcDbDictionary
0
DICTIONARY
5
17
100
AcDbDictionary
0
ENDSEC
0
EOF
