0
SECTION
2
HEADER
9
$INSUNITS
70
4
9
$ACADVER
1
AC1014
9
$HANDSEED
5
FFFF
0
ENDSEC
0
SECTION
2
TABLES
0
TABLE
2
VPORT
5
8
100
AcDbSymbolTable
0
ENDTAB
0
TABLE
2
LTYPE
5
5
100
AcDbSymbolTable
0
LTYPE
5
14
100
AcDbSymbolTableRecord
100
AcDbLinetypeTableRecord
2
BYBLOCK
70
0
0
LTYPE
5
15
100
AcDbSymbolTableRecord
100
AcDbLinetypeTableRecord
2
BYLAYER
70
0
0
ENDTAB
0
TABLE
2
LAYER
5
2
100
AcDbSymbolTable
70
2
0
LAYER
5
50
100
AcDbSymbolTableRecord
100
AcDbLayerTableRecord
2
0
70
0
6
CONTINUOUS
0
ENDTAB
0
TABLE
2
STYLE
5
3
100
AcDbSymbolTable
70
1
0
STYLE
5
11
100
AcDbSymbolTableRecord
100
AcDbTextStyleTableRecord
2
STANDARD
70
0
0
ENDTAB
0
TABLE
2
VIEW
5
6
100
AcDbSymbolTable
70
0
0
ENDTAB
0
TABLE
2
UCS
5
7
100
AcDbSymbolTable
70
0
0
ENDTAB
0
TABLE
2
APPID
5
9
100
AcDbSymbolTable
70
2
0
APPID
5
12
100
AcDbSymbolTableRecord
100
AcDbRegAppTableRecord
2
ACAD
70
0
0
ENDTAB
0
TABLE
2
DIMSTYLE
5
A
100
AcDbSymbolTable
70
1
0
ENDTAB
0
TABLE
2
BLOCK_RECORD
5
1
100
AcDbSymbolTable
70
1
0
BLOCK_RECORD
5
1F
100
AcDbSymbolTableRecord
100
AcDbBlockTableRecord
2
*MODEL_SPACE
0
BLOCK_RECORD
5
1B
100
AcDbSymbolTableRecord
100
AcDbBlockTableRecord
2
*PAPER_SPACE
0
ENDTAB
0
ENDSEC
0
SECTION
2
BLOCKS
0
BLOCK
5
20
100
AcDbEntity
100
AcDbBlockBegin
2
*MODEL_SPACE
0
ENDBLK
5
21
100
AcDbEntity
100
AcDbBlockEnd
0
BLOCK
5
1C
100
AcDbEntity
100
AcDbBlockBegin
2
*PAPER_SPACE
0
ENDBLK
5
1D
100
AcDbEntity
100
AcDbBlockEnd
0
ENDSEC
0
SECTION
2
ENTITIES
0
CIRCLE
5
100
100
AcDbEntity
8
0
100
AcDbCircle
10
-25.920000000000002
20
-65.28999939872952
30
0
40
1.2999999999999989
0
CIRCLE
5
101
100
AcDbEntity
8
0
100
AcDbCircle
10
-25.920000000000002
20
-41.28999939872952
30
0
40
1.2999999999999989
0
ARC
5
102
100
AcDbEntity
8
0
100
AcDbCircle
10
-25.920000000000002
20
-41.28999939872952
30
0
40
8.5442038920469052
100
AcDbArc
50
301.86227639597337
51
305.63770606584541
0
SPLINE
5
103
100
AcDbEntity
8
0
100
AcDbSpline
70
1064
71
3
72
12
73
8
74
0
42
0.000000001
43
0.0000000001
44
0.0000000001
40
0
40
0
40
0
40
0
40
0.00097578490169151447
40
0.0015994203825148512
40
0.0047695272047639202
40
0.0092166890272754338
40
0.015249367873886702
40
0.015249367873886702
40
0.015249367873886702
40
0.015249367873886702
10
-20.941651747597618
20
-48.234023363742757
30
0
10
-20.942262498850049
20
-48.230017299669363
30
0
10
-20.943263588332101
20
-48.223450913448843
30
0
10
-20.946313926455524
20
-48.20387973652003
30
0
10
-20.951791894796649
20
-48.170096926953441
30
0
10
-20.961483084263335
20
-48.114241032571755
30
0
10
-20.969860962632573
20
-48.07153171520806
30
0
10
-20.974683655191868
20
-48.046946265529215
30
0
0
SPLINE
5
104
100
AcDbEntity
8
0
100
AcDbSpline
70
1064
71
2
72
6
73
3
74
0
42
0.000000001
43
0.0000000001
44
0.0000000001
40
-0.27572341058905692
40
-0.27572341058905692
40
-0.27572341058905692
40
0
40
0
40
0
10
-20.974683655191704
20
-48.046946265529193
30
0
10
-21.071913630864685
20
-47.565177095249503
30
0
10
-21.29086889313627
20
-47.107071530573336
30
0
0
ARC
5
105
100
AcDbEntity
8
0
100
AcDbCircle
10
-21.036651588709809
20
-46.928483727792695
30
0
40
0.31067674707302345
100
AcDbArc
50
130.8950073562132
51
215.08806328648055
0
ARC
5
106
100
AcDbEntity
8
0
100
AcDbCircle
10
-25.920000000000002
20
-41.28999939872952
30
0
40
7.1485187346891639
100
AcDbArc
50
310.8950073562151
51
311.6049751055196
0
ARC
5
107
100
AcDbEntity
8
0
100
AcDbCircle
10
-20.967160266711147
20
-46.867541492832999
30
0
40
0.31067674707302045
100
AcDbArc
50
47.411919175253672
51
131.60497510552898
0
SPLINE
5
108
100
AcDbEntity
8
0
100
AcDbSpline
70
1064
71
2
72
6
73
3
74
0
42
0.000000001
43
0.0000000001
44
0.0000000001
40
-1
40
-1
40
-1
40
-0.72427658941065376
40
-0.72427658941065376
40
-0.72427658941065376
10
-20.75691822058203
20
-46.638809502916168
30
0
10
-20.331311293919605
20
-46.915686477836857
30
0
10
-19.866354832927399
20
-47.074968275238234
30
0
0
SPLINE
5
109
100
AcDbEntity
8
0
100
AcDbSpline
70
1064
71
3
72
12
73
8
74
0
42
0.000000001
43
0.0000000001
44
0.0000000001
40
0
40
0
40
0
40
0
40
0.0060263164866888605
40
0.010475448436663587
40
0.013646988327529835
40
0.014273584470965401
40
0.015249368099763818
40
0.015249368099763818
40
0.015249368099763818
40
0.015249368099763818
10
-19.866354832927378
20
-47.074968275238199
30
0
10
-19.842634291576083
20
-47.082950455984268
30
0
10
-19.8014012583685
20
-47.096825751615071
30
0
10
-19.747300201662206
20
-47.113721982362733
30
0
10
-19.714496230328187
20
-47.123570614757227
30
0
10
-19.695473163074936
20
-47.129154647208125
30
0
10
-19.689081818701204
20
-47.131007683711495
30
0
10
-19.685189751842927
20
-47.132136107019669
30
0
0
ARC
5
110
100
AcDbEntity
8
0
100
AcDbCircle
10
-25.920000000000002
20
-41.28999939872952
30
0
40
8.5442038920472676
100
AcDbArc
50
316.86227639589021
51
320.63770606576219
0
SPLINE
5
111
100
AcDbEntity
8
0
100
AcDbSpline
70
1064
71
3
72
12
73
8
74
0
42
0.000000001
43
0.0000000001
44
0.0000000001
40
0
40
0
40
0
40
0
40
0.00097578490169824195
40
0.0015994203825149302
40
0.0047695272047642272
40
0.0092166890272755049
40
0.015249367873886416
40
0.015249367873886416
40
0.015249367873886416
40
0.015249367873886416
10
-19.314039198957957
20
-46.708920144040732
30
0
10
-19.31566598504422
20
-46.705208657346404
30
0
10
-19.318332469040705
20
-46.699125116334407
30
0
10
-19.326344262737301
20
-46.681010296688328
30
0
10
-19.340379208346505
20
-46.649796410978539
30
0
10
-19.364196747787041
20
-46.598352024448467
30
0
10
-19.383343141610439
20
-46.559266346263222
30
0
10
-19.394364687515015
20
-46.536766830150505
30
0
0
SPLINE
5
112
100
AcDbEntity
8
0
100
AcDbSpline
70
1064
71
2
72
6
73
3
74
0
42
0.000000001
43
0.0000000001
44
0.0000000001
40
-0.27572341058905608
40
-0.27572341058905608
40
-0.27572341058905608
40
0
40
0
40
0
10
-19.394364687514873
20
-46.536766830150441
30
0
10
-19.612972668718484
20
-46.096578515726463
30
0
10
-19.943033656154128
20
-45.710752311540304
30
0
0
ARC
5
113
100
AcDbEntity
8
0
100
AcDbCircle
10
-19.743700520901683
20
-45.472453460594089
30
0
40
0.31067674707301585
100
AcDbArc
50
145.89500735621334
51
230.08806328648154
0
ARC
5
114
100
AcDbEntity
8
0
100
AcDbCircle
10
-25.920000000000002
20
-41.28999939872952
30
0
40
7.1485187346875732
100
AcDbArc
50
325.89500735611642
51
326.60497510542103
0
ARC
5
115
100
AcDbEntity
8
0
100
AcDbCircle
10
-19.692350069338843
20
-45.395602104332148
30
0
40
0.31067674707303589
100
AcDbArc
50
62.411919175257225
51
146.60497510553381
0
SPLINE
5
116
100
AcDbEntity
8
0
100
AcDbSpline
70
1064
71
2
72
6
73
3
74
0
42
0.000000001
43
0.0000000001
44
0.0000000001
40
-1
40
-1
40
-1
40
-0.7242765894106542
40
-0.7242765894106542
40
-0.7242765894106542
10
-19.548472042425551
20
-45.120249322353423
30
0
10
-19.065706285854979
20
-45.277536764786319
30
0
10
-18.575367669377016
20
-45.311051579305811
30
0
0
SPLINE
5
117
100
AcDbEntity
8
0
100
AcDbSpline
70
1064
71
3
72
12
73
8
74
0
42
0.000000001
43
0.0000000001
44
0.0000000001
40
0
40
0
40
0
40
0
40
0.0060263164866891147
40
0.010475448436663978
40
0.01364698832752966
40
0.014273584470972028
40
0.015249368099763778
40
0.015249368099763778
40
0.015249368099763778
40
0.015249368099763778
10
-18.575367669376995
20
-45.311051579305783
30
0
10
-18.550389445473698
20
-45.312622445976658
30
0
10
-18.506970203036566
20
-45.315353058092349
30
0
10
-18.450339528826476
20
-45.317671179902703
30
0
10
-18.416104312078161
20
-45.318693935749948
30
0
10
-18.396284186176281
20
-45.319164164807681
30
0
10
-18.38963102044265
20
-45.319299858975626
30
0
10
-18.385579515103522
20
-45.319382491164248
30
0
0
ARC
5
118
100
AcDbEntity
8
0
100
AcDbCircle
10
-25.920000000000002
20
-41.28999939872952
30
0
40
8.5442038920443935
100
AcDbArc
50
331.8622763958092
51
335.63770606568272
0
SPLINE
5
119
100
AcDbEntity
8
0
100
AcDbSpline
70
1064
71
3
72
12
73
8
74
0
42
0.000000001
43
0.0000000001
44
0.0000000001
40
0
40
0
40
0
40
0
40
0.00097578490169667549
40
0.0015994203825149657
40
0.0047695272047639063
40
0.0092166890272752221
40
0.015249367873886579
40
0.015249367873886579
40
0.015249367873886579
40
0.015249367873886579
10
-18.136611962040796
20
-44.81452643073812
30
0
10
-18.139143920177531
20
-44.811362453107584
30
0
10
-18.143294082210694
20
-44.806176340570573
30
0
10
-18.155721340980115
20
-44.790752373229957
30
0
10
-18.177356805507941
20
-44.764234586104678
30
0
10
-18.213677568969821
20
-44.720707557352355
30
0
10
-18.242287683149236
20
-44.687909142721736
30
0
10
-18.258756982259648
20
-44.669028865016038
30
0
0
SPLINE
5
120
100
AcDbEntity
8
0
100
AcDbSpline
70
1064
71
2
72
6
73
3
74
0
42
0.000000001
43
0.0000000001
44
0.0000000001
40
-0.27572341058905681
40
-0.27572341058905681
40
-0.27572341058905681
40
0
40
0
40
0
10
-18.258756982259563
20
-44.669028865015946
30
0
10
-18.583845196341507
20
-44.300419512630079
30
0
10
-19.002518798099082
20
-44.013166087141272
30
0
0
ARC
5
121
100
AcDbEntity
8
0
100
AcDbCircle
10
-18.871654055774499
20
-43.731395860913985
30
0
40
0.31067674707298937
100
AcDbArc
50
160.89500735621291
51
245.08806328648123
0
ARC
5
122
100
AcDbEntity
8
0
100
AcDbCircle
10
-25.920000000000002
20
-41.28999939872952
30
0
40
7.1485187346828596
100
AcDbArc
50
340.89500735602451
51
341.60497510532986
0
ARC
5
123
100
AcDbEntity
8
0
100
AcDbCircle
10
-18.841943923060928
20
-43.643872676276139
30
0
40
0.31067674707302007
100
AcDbArc
50
77.411919175251384
51
161.60497510552796
0
SPLINE
5
124
100
AcDbEntity
8
0
100
AcDbSpline
70
1064
71
2
72
6
73
3
74
0
42
0.000000001
43
0.0000000001
44
0.0000000001
40
-1
40
-1
40
-1
40
-0.72427658941065465
40
-0.72427658941065465
40
-0.72427658941065465
10
-18.774234965127896
20
-43.340663939285442
30
0
10
-18.267210067151296
20
-43.367642969958531
30
0
10
-17.784905061577618
20
-43.273106822372469
30
0
0
SPLINE
5
125
100
AcDbEntity
8
0
100
AcDbSpline
70
1064
71
3
72
12
73
8
74
0
42
0.000000001
43
0.0000000001
44
0.0000000001
40
0
40
0
40
0
40
0
40
0.006026316486688596
40
0.010475448436663384
40
0.01364698832752978
40
0.014273584470939115
40
0.015249368099763677
40
0.015249368099763677
40
0.015249368099763677
40
0.015249368099763677
10
-17.784905061577618
20
-43.273106822372441
30
0
10
-17.760371379802883
20
-43.268159323000489
30
0
10
-17.71772487775462
20
-43.259559164897979
30
0
10
-17.662423872901527
20
-43.247141201600513
30
0
10
-17.629090484184118
20
-43.239268381779688
30
0
10
-17.609824008459462
20
-43.234592762111099
30
0
10
-17.603362423615792
20
-43.233001866610302
30
0
10
-17.599427583189097
20
-43.232033076432252
30
0
0
ARC
5
126
100
AcDbEntity
8
0
100
AcDbCircle
10
-25.920000000000002
20
-41.28999939872952
30
0
40
8.5442038920385119
100
AcDbArc
50
346.86227639573605
51
350.63770606561235
0
SPLINE
5
127
100
AcDbEntity
8
0
100
AcDbSpline
70
1064
71
3
72
12
73
8
74
0
42
0.000000001
43
0.0000000001
44
0.0000000001
40
0
40
0
40
0
40
0
40
0.00097578490171320968
40
0.0015994203825148551
40
0.0047695272047643834
40
0.009216689027275805
40
0.015249367873886081
40
0.015249367873886081
40
0.015249367873886081
40
0.015249367873886081
10
-17.489609757251536
20
-42.679942024762887
30
0
10
-17.492874338675975
20
-42.677541176042894
30
0
10
-17.498225352061738
20
-42.673605916979795
30
0
10
-17.514221178755875
20
-42.661923919829604
30
0
10
-17.54198274104904
20
-42.641909374658738
30
0
10
-17.588331528525202
20
-42.609265998761856
30
0
10
-17.624455631059746
20
-42.584990005440993
30
0
10
-17.645250327858449
20
-42.571015625866828
30
0
0
SPLINE
5
128
100
AcDbEntity
8
0
100
AcDbSpline
70
1064
71
2
72
6
73
3
74
0
42
0.000000001
43
0.0000000001
44
0.0000000001
40
-0.27572341058905653
40
-0.27572341058905653
40
-0.27572341058905653
40
0
40
0
40
0
10
-17.645250327858378
20
-42.571015625866693
30
0
10
-18.054664550262693
20
-42.299105353728294
30
0
10
-18.533418852273236
20
-42.130000553175165
30
0
0
ARC
5
129
100
AcDbEntity
8
0
100
AcDbCircle
10
-18.479940718801721
20
-41.823961126936879
30
0
40
0.31067674707299964
100
AcDbArc
50
175.89500735621317
51
260.08806328648029
0
ARC
5
130
100
AcDbEntity
8
0
100
AcDbCircle
10
-25.920000000000002
20
-41.28999939872952
30
0
40
7.1485187346753385
100
AcDbArc
50
355.89500735594555
51
356.60497510525073
0
ARC
5
131
100
AcDbEntity
8
0
100
AcDbCircle
10
-18.473895601383507
20
-41.731730674317333
30
0
40
0.31067674707301718
100
AcDbArc
50
92.411919175253729
51
176.60497510554691
0
SPLINE
5
132
100
AcDbEntity
8
0
100
AcDbSpline
70
1064
71
2
72
6
73
3
74
0
42
0.000000001
43
0.0000000001
44
0.0000000001
40
-1
40
-1
40
-1
40
-0.72427658941065465
40
-0.72427658941065465
40
-0.72427658941065465
10
-18.486969966019558
20
-41.421329156664413
30
0
10
-17.990238835535763
20
-41.316161199222286
30
0
10
-17.548835729949587
20
-41.100016571760278
30
0
0
SPLINE
5
133
100
AcDbEntity
8
0
100
AcDbSpline
70
1064
71
3
72
12
73
8
74
0
42
0.000000001
43
0.0000000001
44
0.0000000001
40
0
40
0
40
0
40
0
40
0.0060263164866891259
40
0.010475448436663794
40
0.013646988327530035
40
0.014273584470964879
40
0.015249368099764068
40
0.015249368099764068
40
0.015249368099764068
40
0.015249368099764068
10
-17.548835729949602
20
-41.10001657176025
30
0
10
-17.526418520172477
20
-41.088887870251547
30
0
10
-17.487451047151012
20
-41.069543028493086
30
0
10
-17.437248383746436
20
-41.043235243764862
30
0
10
-17.407088438414753
20
-41.027003367936281
30
0
10
-17.389688591348637
20
-41.017500535294936
30
0
10
-17.383858933723751
20
-41.014291467024712
30
0
10
-17.38030891108216
20
-41.012337275929639
30
0
0
ARC
5
134
100
AcDbEntity
8
0
100
AcDbCircle
10
-25.920000000000002
20
-41.28999939872952
30
0
40
8.5442038920299996
100
AcDbArc
50
1.862276395675551
51
5.6377060655559372
0
SPLINE
5
135
100
AcDbEntity
8
0
100
AcDbSpline
70
1064
71
3
72
12
73
8
74
0
42
0.000000001
43
0.0000000001
44
0.0000000001
40
0
40
0
40
0
40
0
40
0.00097578490171163575
40
0.0015994203825147857
40
0.0047695272047638005
40
0.0092166890272752135
40
0.015249367873886149
40
0.015249367873886149
40
0.015249367873886149
40
0.015249367873886149
10
-17.417124715624837
20
-40.450635325814737
30
0
10
-17.420899444507889
20
-40.449161219878022
30
0
10
-17.427086646526952
20
-40.446744995690651
30
0
10
-17.445560951990984
20
-40.439601077531258
30
0
10
-17.477556707457353
20
-40.427453732492552
30
0
10
-17.530774925676333
20
-40.407918601572739
30
0
10
-17.571951218676183
20
-40.39381939838848
30
0
10
-17.595654188941168
20
-40.38570324782004
30
0
0
SPLINE
5
136
100
AcDbEntity
8
0
100
AcDbSpline
70
1064
71
2
72
6
73
3
74
0
42
0.000000001
43
0.0000000001
44
0.0000000001
40
-0.27572341058905681
40
-0.27572341058905681
40
-0.27572341058905681
40
0
40
0
40
0
10
-17.595654188941133
20
-40.385703247819905
30
0
10
-18.06149351699996
20
-40.229022291622201
30
0
10
-18.567702204760359
20
-40.189590328703574
30
0
0
ARC
5
137
100
AcDbEntity
8
0
100
AcDbCircle
10
-18.595255126561202
20
-39.880137783598371
30
0
40
0.3106767470730043
100
AcDbArc
50
190.8950073562132
51
275.08806328648018
0
ARC
5
138
100
AcDbEntity
8
0
100
AcDbCircle
10
-25.920000000000002
20
-41.28999939872952
30
0
40
7.1485187346655055
100
AcDbArc
50
10.895007355884717
51
11.604975105191793
0
ARC
5
139
100
AcDbEntity
8
0
100
AcDbCircle
10
-18.613286989200343
20
-39.7894854159251
30
0
40
0.31067674707302778
100
AcDbArc
50
107.41191917525582
51
191.60497510552676
0
SPLINE
5
140
100
AcDbEntity
8
0
100
AcDbSpline
70
1064
71
2
72
6
73
3
74
0
42
0.000000001
43
0.0000000001
44
0.0000000001
40
-1
40
-1
40
-1
40
-0.72427658941065465
40
-0.72427658941065465
40
-0.72427658941065465
10
-18.706253680061941
20
-39.49304446807524
30
0
10
-18.253667722726455
20
-39.262896545019302
30
0
10
-17.883247409320269
20
-38.939873336847022
30
0
0
SPLINE
5
141
100
AcDbEntity
8
0
100
AcDbSpline
70
1064
71
3
72
12
73
8
74
0
42
0.000000001
43
0.0000000001
44
0.0000000001
40
0
40
0
40
0
40
0
40
0.0060263164866891971
40
0.010475448436663745
40
0.013646988327529991
40
0.014273584470943545
40
0.015249368099763617
40
0.015249368099763617
40
0.015249368099763617
40
0.015249368099763617
10
-17.88324740932029
20
-38.939873336846993
30
0
10
-17.864474367340961
20
-38.923321835818292
30
0
10
-17.831841492235895
20
-38.89455062940084
30
0
10
-17.790158398827039
20
-38.856145855295424
30
0
10
-17.765227247313923
20
-38.832661098972466
30
0
10
-17.750879799729297
20
-38.8189786556987
30
0
10
-17.746079350856377
20
-38.814370107358414
30
0
10
-17.743156074176049
20
-38.811563690239943
30
0
0
ARC
5
142
100
AcDbEntity
8
0
100
AcDbCircle
10
-25.920000000000002
20
-41.28999939872952
30
0
40
8.5442038920194499
100
AcDbArc
50
16.862276395631842
51
20.637706065516749
0
SPLINE
5
143
100
AcDbEntity
8
0
100
AcDbSpline
70
1064
71
3
72
12
73
8
74
0
42
0.000000001
43
0.0000000001
44
0.0000000001
40
0
40
0
40
0
40
0
40
0.00097578490168576137
40
0.0015994203825148733
40
0.0047695272047636383
40
0.0092166890272749949
40
0.015249367873886102
40
0.015249367873886102
40
0.015249367873886102
40
0.015249367873886102
10
-17.924096572960401
20
-38.278529901323438
30
0
10
-17.928124207766622
20
-38.27808299605352
30
0
10
-17.934725950826198
20
-38.277350468427265
30
0
10
-17.954419741672972
20
-38.275231475475344
30
0
10
-17.988469232453113
20
-38.271779152058741
30
0
10
-18.044930147790524
20
-38.266683553004846
30
0
10
-18.088352534934799
20
-38.263721977354166
30
0
10
-18.113348460413555
20
-38.262017158040145
30
0
0
SPLINE
5
144
100
AcDbEntity
8
0
100
AcDbSpline
70
1064
71
2
72
6
73
3
74
0
42
0.000000001
43
0.0000000001
44
0.0000000001
40
-0.27572341058905653
40
-0.27572341058905653
40
-0.27572341058905653
40
0
40
0
40
0
10
-18.113348460413555
20
-38.262017158040003
30
0
10
-18.603866713755572
20
-38.231243066020355
30
0
10
-19.103032501744302
20
-38.324171163844724
30
0
0
ARC
5
145
100
AcDbEntity
8
0
100
AcDbCircle
10
-19.209738792730164
20
-38.032394179426987
30
0
40
0.31067674707298787
100
AcDbArc
50
205.89500735621954
51
290.08806328648433
0
ARC
5
146
100
AcDbEntity
8
0
100
AcDbCircle
10
-25.920000000000002
20
-41.28999939872952
30
0
40
7.1485187346540862
100
AcDbArc
50
25.895007355846293
51
26.604975105154541
0
ARC
5
147
100
AcDbEntity
8
0
100
AcDbCircle
10
-19.250618793786856
20
-37.949497705746815
30
0
40
0.31067674707302972
100
AcDbArc
50
122.4119191752587
51
206.60497510552867
0
SPLINE
5
148
100
AcDbEntity
8
0
100
AcDbSpline
70
1064
71
2
72
6
73
3
74
0
42
0.000000001
43
0.0000000001
44
0.0000000001
40
-1
40
-1
40
-1
40
-0.72427658941065465
40
-0.72427658941065465
40
-0.72427658941065465
10
-19.417142284526506
20
-37.687219288404172
30
0
10
-19.039544485398061
20
-37.347775600353266
30
0
10
-18.765350496382077
20
-36.939887309286561
30
0
0
SPLINE
5
149
100
AcDbEntity
8
0
100
AcDbSpline
70
1064
71
3
72
12
73
8
74
0
42
0.000000001
43
0.0000000001
44
0.0000000001
40
0
40
0
40
0
40
0
40
0.0060263164866891632
40
0.010475448436663808
40
0.013646988327529908
40
0.014273584470948812
40
0.015249368099763723
40
0.015249368099763723
40
0.015249368099763723
40
0.015249368099763723
10
-18.765350496382112
20
-36.939887309286533
30
0
10
-18.751500973987525
20
-36.919040966180312
30
0
10
-18.727426573308861
20
-36.882804105274538
30
0
10
-18.697103683826974
20
-36.83491956368033
30
0
10
-18.679100342907311
20
-36.805782374195921
30
0
10
-18.668783049646763
20
-36.788852756187552
30
0
10
-18.665338952183383
20
-36.78315879273061
30
0
10
-18.663241637939237
20
-36.779691402277592
30
0
0
ARC
5
150
100
AcDbEntity
8
0
100
AcDbCircle
10
-25.920000000000002
20
-41.28999939872952
30
0
40
8.5442038920075536
100
AcDbArc
50
31.862276395607985
51
35.637706065498222
0
SPLINE
5
151
100
AcDbEntity
8
0
100
AcDbSpline
70
1064
71
3
72
12
73
8
74
0
42
0.000000001
43
0.0000000001
44
0.0000000001
40
0
40
0
40
0
40
0
40
0.00097578490169913663
40
0.0015994203825146151
40
0.0047695272047640217
40
0.0092166890272751874
40
0.015249367873886359
40
0.015249367873886359
40
0.015249367873886359
40
0.015249367873886359
10
-18.975976034991426
20
-36.311651146394155
30
0
10
-18.979982099064856
20
-36.312261897646593
30
0
10
-18.986548485285397
20
-36.313262987128638
30
0
10
-19.006119662214196
20
-36.316313325252054
30
0
10
-19.039902471780728
20
-36.321791293593208
30
0
10
-19.095758366162443
20
-36.331482483059872
30
0
10
-19.138467683526102
20
-36.33986036142911
30
0
10
-19.163053133204969
20
-36.344683053988412
30
0
0
SPLINE
5
152
100
AcDbEntity
8
0
100
AcDbSpline
70
1064
71
2
72
6
73
3
74
0
42
0.000000001
43
0.0000000001
44
0.0000000001
40
-0.27572341058905675
40
-0.27572341058905675
40
-0.27572341058905675
40
0
40
0
40
0
10
-19.16305313320499
20
-36.344683053988263
30
0
10
-19.644822303484652
20
-36.441913029661222
30
0
10
-20.102927868160847
20
-36.660868291932815
30
0
0
ARC
5
153
100
AcDbEntity
8
0
100
AcDbCircle
10
-20.281515670941481
20
-36.406650987506367
30
0
40
0.31067674707300713
100
AcDbArc
50
220.89500735621479
51
305.08806328648097
0
ARC
5
154
100
AcDbEntity
8
0
100
AcDbCircle
10
-25.920000000000002
20
-41.28999939872952
30
0
40
7.148518734641776
100
AcDbArc
50
40.895007355833265
51
41.604975105142771
0
ARC
5
155
100
AcDbEntity
8
0
100
AcDbCircle
10
-20.342457905901163
20
-36.337159665507684
30
0
40
0.31067674707303355
100
AcDbArc
50
137.41191917525634
51
221.60497510552591
0
SPLINE
5
156
100
AcDbEntity
8
0
100
AcDbSpline
70
1064
71
2
72
6
73
3
74
0
42
0.000000001
43
0.0000000001
44
0.0000000001
40
-1
40
-1
40
-1
40
-0.72427658941065409
40
-0.72427658941065409
40
-0.72427658941065409
10
-20.571189895818016
20
-36.126917619378567
30
0
10
-20.294312920897333
20
-35.701310692716156
30
0
10
-20.135031123495935
20
-35.236354231723929
30
0
0
SPLINE
5
157
100
AcDbEntity
8
0
100
AcDbSpline
70
1064
71
3
72
12
73
8
74
0
42
0.000000001
43
0.0000000001
44
0.0000000001
40
0
40
0
40
0
40
0
40
0.0060263164866890002
40
0.010475448436663693
40
0.013646988327529967
40
0.014273584470949346
40
0.015249368099763882
40
0.015249368099763882
40
0.015249368099763882
40
0.015249368099763882
10
-20.135031123495992
20
-35.236354231723908
30
0
10
-20.127048942749902
20
-35.212633690372634
30
0
10
-20.113173647119112
20
-35.171400657165044
30
0
10
-20.096277416371436
20
-35.117299600458729
30
0
10
-20.08642878397697
20
-35.084495629124774
30
0
10
-20.08084475152608
20
-35.065472561871537
30
0
10
-20.07899171502271
20
-35.05908121749782
30
0
10
-20.077863291714493
20
-35.055189150639478
30
0
0
ARC
5
158
100
AcDbEntity
8
0
100
AcDbCircle
10
-25.920000000000002
20
-41.28999939872952
30
0
40
8.5442038919951848
100
AcDbArc
50
46.862276395605527
51
50.637706065501206
0
SPLINE
5
159
100
AcDbEntity
8
0
100
AcDbSpline
70
1064
71
3
72
12
73
8
74
0
42
0.000000001
43
0.0000000001
44
0.0000000001
40
0
40
0
40
0
40
0
40
0.00097578490168918344
40
0.0015994203825149744
40
0.0047695272047640243
40
0.0092166890272752933
40
0.015249367873886553
40
0.015249367873886553
40
0.015249367873886553
40
0.015249367873886553
10
-20.501079254693451
20
-34.68403859775448
30
0
10
-20.504790741387772
20
-34.68566538384075
30
0
10
-20.510874282399747
20
-34.688331867837249
30
0
10
-20.528989102045834
20
-34.696343661533824
30
0
10
-20.560202987755652
20
-34.710378607143042
30
0
10
-20.611647374285702
20
-34.734196146583571
30
0
10
-20.65073305247094
20
-34.753342540406976
30
0
10
-20.673232568583664
20
-34.764364086311559
30
0
0
SPLINE
5
160
100
AcDbEntity
8
0
100
AcDbSpline
70
1064
71
2
72
6
73
3
74
0
42
0.000000001
43
0.0000000001
44
0.0000000001
40
-0.27572341058905714
40
-0.27572341058905714
40
-0.27572341058905714
40
0
40
0
40
0
10
-20.673232568583735
20
-34.764364086311417
30
0
10
-21.113420883007727
20
-34.982972067515014
30
0
10
-21.499247087193865
20
-35.313033054950665
30
0
0
ARC
5
161
100
AcDbEntity
8
0
100
AcDbCircle
10
-21.737545938140073
20
-35.113699919698234
30
0
40
0.31067674707299253
100
AcDbArc
50
235.8950073562122
51
320.08806328648274
0
ARC
5
162
100
AcDbEntity
8
0
100
AcDbCircle
10
-25.920000000000002
20
-41.28999939872952
30
0
40
7.1485187346294925
100
AcDbArc
50
55.895007355845976
51
56.604975105156498
0
ARC
5
163
100
AcDbEntity
8
0
100
AcDbCircle
10
-21.814397294402042
20
-35.062349468135402
30
0
40
0.31067674707301807
100
AcDbArc
50
152.4119191752566
51
236.6049751055335
0
SPLINE
5
164
100
AcDbEntity
8
0
100
AcDbSpline
70
1064
71
2
72
6
73
3
74
0
42
0.000000001
43
0.0000000001
44
0.0000000001
40
-1
40
-1
40
-1
40
-0.72427658941065465
40
-0.72427658941065465
40
-0.72427658941065465
10
-22.089750076380746
20
-34.918471441222117
30
0
10
-21.932462633947843
20
-34.435705684651538
30
0
10
-21.898947819428372
20
-33.945367068173532
30
0
0
SPLINE
5
165
100
AcDbEntity
8
0
100
AcDbSpline
70
1064
71
3
72
12
73
8
74
0
42
0.000000001
43
0.0000000001
44
0.0000000001
40
0
40
0
40
0
40
0
40
0.0060263164866888866
40
0.010475448436663641
40
0.013646988327529766
40
0.014273584470940593
40
0.01524936809976388
40
0.01524936809976388
40
0.01524936809976388
40
0.01524936809976388
10
-21.898947819428393
20
-33.945367068173525
30
0
10
-21.897376952757533
20
-33.920388844270228
30
0
10
-21.894646340641827
20
-33.87696960183311
30
0
10
-21.89232821883148
20
-33.820338927623006
30
0
10
-21.891305462984214
20
-33.786103710874826
30
0
10
-21.890835233926495
20
-33.766283584972932
30
0
10
-21.890699539758558
20
-33.759630419239301
30
0
10
-21.890616907569942
20
-33.755578913900045
30
0
0
ARC
5
166
100
AcDbEntity
8
0
100
AcDbCircle
10
-25.920000000000002
20
-41.28999939872952
30
0
40
8.5442038919831056
100
AcDbArc
50
61.862276395624903
51
65.637706065525634
0
SPLINE
5
167
100
AcDbEntity
8
0
100
AcDbSpline
70
1064
71
3
72
12
73
8
74
0
42
0.000000001
43
0.0000000001
44
0.0000000001
40
0
40
0
40
0
40
0
40
0.00097578490169862597
40
0.0015994203825150527
40
0.0047695272047641067
40
0.009216689027275465
40
0.01524936787388604
40
0.01524936787388604
40
0.01524936787388604
40
0.01524936787388604
10
-22.395472967996064
20
-33.506611360837319
30
0
10
-22.39863694562662
20
-33.509143318974054
30
0
10
-22.403823058163638
20
-33.513293481007224
30
0
10
-22.419247025504234
20
-33.525720739776645
30
0
10
-22.445764812629527
20
-33.547356204304471
30
0
10
-22.489291841381814
20
-33.583676967766337
30
0
10
-22.522090256012454
20
-33.612287081945759
30
0
10
-22.540970533718109
20
-33.628756381056185
30
0
0
SPLINE
5
168
100
AcDbEntity
8
0
100
AcDbSpline
70
1064
71
2
72
6
73
3
74
0
42
0.000000001
43
0.0000000001
44
0.0000000001
40
-0.27572341058905653
40
-0.27572341058905653
40
-0.27572341058905653
40
0
40
0
40
0
10
-22.54097053371823
20
-33.628756381056071
30
0
10
-22.90957988610409
20
-33.953844595138044
30
0
10
-23.196833311592904
20
-34.372518196895619
30
0
0
ARC
5
169
100
AcDbEntity
8
0
100
AcDbCircle
10
-23.478603537820209
20
-34.241653454571015
30
0
40
0.31067674707300791
100
AcDbArc
50
250.89500735621957
51
335.08806328647785
0
ARC
5
170
100
AcDbEntity
8
0
100
AcDbCircle
10
-25.920000000000002
20
-41.28999939872952
30
0
40
7.1485187346180092
100
AcDbArc
50
70.895007355883834
51
71.604975105194541
0
ARC
5
171
100
AcDbEntity
8
0
100
AcDbCircle
10
-23.566126722458005
20
-34.21194332185744
30
0
40
0.31067674707304171
100
AcDbArc
50
167.41191917525592
51
251.60497510555214
0
SPLINE
5
172
100
AcDbEntity
8
0
100
AcDbSpline
70
1064
71
2
72
6
73
3
74
0
42
0.000000001
43
0.0000000001
44
0.0000000001
40
-1
40
-1
40
-1
40
-0.72427658941065443
40
-0.72427658941065443
40
-0.72427658941065443
10
-23.869335459448735
20
-34.144234363924426
30
0
10
-23.842356428775638
20
-33.637209465947826
30
0
10
-23.936892576361728
20
-33.154904460374155
30
0
0
SPLINE
5
173
100
AcDbEntity
8
0
100
AcDbSpline
70
1064
71
3
72
12
73
8
74
0
42
0.000000001
43
0.0000000001
44
0.0000000001
40
0
40
0
40
0
40
0
40
0.0060263164866885899
40
0.010475448436663506
40
0.013646988327529565
40
0.014273584470972028
40
0.015249368099763558
40
0.015249368099763558
40
0.015249368099763558
40
0.015249368099763558
10
-23.93689257636175
20
-33.154904460374162
30
0
10
-23.941840075733694
20
-33.130370778599399
30
0
10
-23.950440233836197
20
-33.087724276551143
30
0
10
-23.96285819713367
20
-33.032423271698057
30
0
10
-23.970731016954517
20
-32.999089882980506
30
0
10
-23.975406636623127
20
-32.979823407255857
30
0
10
-23.976997532123924
20
-32.973361822412194
30
0
10
-23.977966322301924
20
-32.969426981985634
30
0
0
ARC
5
174
100
AcDbEntity
8
0
100
AcDbCircle
10
-25.920000000000002
20
-41.28999939872952
30
0
40
8.5442038919721917
100
AcDbArc
50
76.862276395664225
51
80.637706065569844
0
SPLINE
5
175
100
AcDbEntity
8
0
100
AcDbSpline
70
1064
71
3
72
12
73
8
74
0
42
0.000000001
43
0.0000000001
44
0.0000000001
40
0
40
0
40
0
40
0
40
0.00097578490172047514
40
0.0015994203825147497
40
0.0047695272047638447
40
0.0092166890272752898
40
0.015249367873886003
40
0.015249367873886003
40
0.015249367873886003
40
0.015249367873886003
10
-24.530057373971246
20
-32.859609156048066
30
0
10
-24.532458222691254
20
-32.862873737472562
30
0
10
-24.536393481754352
20
-32.868224750858303
30
0
10
-24.548075478904543
20
-32.884220577552455
30
0
10
-24.568090024075381
20
-32.91198213984557
30
0
10
-24.600733399972292
20
-32.958330927321747
30
0
10
-24.625009393293126
20
-32.994455029856304
30
0
10
-24.638983772867292
20
-33.015249726655
30
0
0
SPLINE
5
176
100
AcDbEntity
8
0
100
AcDbSpline
70
1064
71
2
72
6
73
3
74
0
42
0.000000001
43
0.0000000001
44
0.0000000001
40
-0.27572341058905653
40
-0.27572341058905653
40
-0.27572341058905653
40
0
40
0
40
0
10
-24.638983772867434
20
-33.015249726654915
30
0
10
-24.910894045005854
20
-33.424663949059251
30
0
10
-25.079998845558961
20
-33.903418251069787
30
0
0
ARC
5
177
100
AcDbEntity
8
0
100
AcDbCircle
10
-25.386038271797254
20
-33.84994011759828
30
0
40
0.31067674707299486
100
AcDbArc
50
265.89500735621425
51
350.08806328648325
0
ARC
5
178
100
AcDbEntity
8
0
100
AcDbCircle
10
-25.920000000000002
20
-41.28999939872952
30
0
40
7.1485187346081531
100
AcDbArc
50
85.895007355943847
51
86.604975105256614
0
ARC
5
179
100
AcDbEntity
8
0
100
AcDbCircle
10
-25.478268724416793
20
-33.843895000180041
30
0
40
0.3106767470730088
100
AcDbArc
50
182.41191917525566
51
266.60497510552733
0
SPLINE
5
180
100
AcDbEntity
8
0
100
AcDbSpline
70
1064
71
2
72
6
73
3
74
0
42
0.000000001
43
0.0000000001
44
0.0000000001
40
-1
40
-1
40
-1
40
-0.72427658941065443
40
-0.72427658941065443
40
-0.72427658941065443
10
-25.788670242069706
20
-33.856969364816102
30
0
10
-25.893838199511848
20
-33.360238234332321
30
0
10
-26.109982826973834
20
-32.918835128746103
30
0
0
SPLINE
5
181
100
AcDbEntity
8
0
100
AcDbSpline
70
1064
71
3
72
12
73
8
74
0
42
0.000000001
43
0.0000000001
44
0.0000000001
40
0
40
0
40
0
40
0
40
0.0060263164866889308
40
0.010475448436663582
40
0.013646988327529787
40
0.014273584470926354
40
0.015249368099763818
40
0.015249368099763818
40
0.015249368099763818
40
0.015249368099763818
10
-26.109982826973848
20
-32.918835128746124
30
0
10
-26.121111528482579
20
-32.896417918969014
30
0
10
-26.140456370241026
20
-32.857450445947542
30
0
10
-26.166764154969265
20
-32.807247782542973
30
0
10
-26.182996030797739
20
-32.777087837211411
30
0
10
-26.192498863439091
20
-32.759687990145295
30
0
10
-26.195707931709336
20
-32.75385833252043
30
0
10
-26.197662122804466
20
-32.750308309878697
30
0
0
ARC
5
182
100
AcDbEntity
8
0
100
AcDbCircle
10
-25.920000000000002
20
-41.28999939872952
30
0
40
8.5442038919631589
100
AcDbArc
50
91.862276395720883
51
95.637706065630837
0
SPLINE
5
183
100
AcDbEntity
8
0
100
AcDbSpline
70
1064
71
3
72
12
73
8
74
0
42
0.000000001
43
0.0000000001
44
0.0000000001
40
0
40
0
40
0
40
0
40
0.00097578490172598169
40
0.0015994203825147454
40
0.0047695272047637693
40
0.0092166890272751684
40
0.015249367873885858
40
0.015249367873885858
40
0.015249367873885858
40
0.015249367873885858
10
-26.759364072919432
20
-32.787124114421395
30
0
10
-26.760838178856183
20
-32.790898843304497
30
0
10
-26.76325440304354
20
-32.797086045323553
30
0
10
-26.770398321202926
20
-32.815560350787578
30
0
10
-26.782545666241624
20
-32.84755610625389
30
0
10
-26.802080797161423
20
-32.900774324472856
30
0
10
-26.816180000345689
20
-32.941950617472727
30
0
10
-26.824296150914122
20
-32.965653587737727
30
0
0
SPLINE
5
184
100
AcDbEntity
8
0
100
AcDbSpline
70
1064
71
2
72
6
73
3
74
0
42
0.000000001
43
0.0000000001
44
0.0000000001
40
-0.27572341058905642
40
-0.27572341058905642
40
-0.27572341058905642
40
0
40
0
40
0
10
-26.824296150914265
20
-32.965653587737677
30
0
10
-26.980977107111983
20
-33.431492915796511
30
0
10
-27.020409070030588
20
-33.937701603556903
30
0
0
ARC
5
185
100
AcDbEntity
8
0
100
AcDbCircle
10
-27.329861615135812
20
-33.96525452535775
30
0
40
0.31067674707299425
100
AcDbArc
50
-79.10499264378646
51
5.0880632864817361
0
ARC
5
186
100
AcDbEntity
8
0
100
AcDbCircle
10
-25.920000000000002
20
-41.28999939872952
30
0
40
7.1485187346005761
100
AcDbArc
50
100.89500735602294
51
101.60497510533615
0
ARC
5
187
100
AcDbEntity
8
0
100
AcDbCircle
10
-27.420513982809062
20
-33.983286387996891
30
0
40
0.31067674707303272
100
AcDbArc
50
197.41191917525518
51
281.60497510553108
0
SPLINE
5
188
100
AcDbEntity
8
0
100
AcDbSpline
70
1064
71
2
72
6
73
3
74
0
42
0.000000001
43
0.0000000001
44
0.0000000001
40
-1
40
-1
40
-1
40
-0.7242765894106542
40
-0.7242765894106542
40
-0.7242765894106542
10
-27.716954930658922
20
-34.076253078858485
30
0
10
-27.947102853714874
20
-33.623667121522992
30
0
10
-28.270126061887161
20
-33.253246808116835
30
0
0
SPLINE
5
189
100
AcDbEntity
8
0
100
AcDbSpline
70
1064
71
3
72
12
73
8
74
0
42
0.000000001
43
0.0000000001
44
0.0000000001
40
0
40
0
40
0
40
0
40
0.0060263164866893723
40
0.010475448436663957
40
0.01364698832752979
40
0.014273584470950116
40
0.015249368099763825
40
0.015249368099763825
40
0.015249368099763825
40
0.015249368099763825
10
-28.270126061887176
20
-33.253246808116856
30
0
10
-28.286677562915862
20
-33.234473766137519
30
0
10
-28.315448769333329
20
-33.20184089103244
30
0
10
-28.353853543438767
20
-33.16015779762359
30
0
10
-28.377338299761725
20
-33.135226646110468
30
0
10
-28.391020743035497
20
-33.120879198525813
30
0
10
-28.395629291375791
20
-33.116078749652907
30
0
10
-28.39843570849424
20
-33.113155472972608
30
0
0
ARC
5
190
100
AcDbEntity
8
0
100
AcDbCircle
10
-25.920000000000002
20
-41.28999939872952
30
0
40
8.544203891956645
100
AcDbArc
50
106.86227639579219
51
110.63770606570442
0
SPLINE
5
191
100
AcDbEntity
8
0
100
AcDbSpline
70
1064
71
3
72
12
73
8
74
0
42
0.000000001
43
0.0000000001
44
0.0000000001
40
0
40
0
40
0
40
0
40
0.00097578490171177485
40
0.0015994203825149774
40
0.0047695272047639636
40
0.0092166890272754234
40
0.015249367873886416
40
0.015249367873886416
40
0.015249367873886416
40
0.015249367873886416
10
-28.931469497410738
20
-33.29409597175696
30
0
10
-28.93191640268067
20
-33.298123606563273
30
0
10
-28.932648930306925
20
-33.304725349622863
30
0
10
-28.934767923258839
20
-33.324419140469629
30
0
10
-28.938220246675421
20
-33.358468631249671
30
0
10
-28.943315845729323
20
-33.414929546587089
30
0
10
-28.946277421380017
20
-33.458351933731358
30
0
10
-28.947982240694017
20
-33.483347859210113
30
0
0
SPLINE
5
192
100
AcDbEntity
8
0
100
AcDbSpline
70
1064
71
2
72
6
73
3
74
0
42
0.000000001
43
0.0000000001
44
0.0000000001
40
-0.27572341058905653
40
-0.27572341058905653
40
-0.27572341058905653
40
0
40
0
40
0
10
-28.947982240694181
20
-33.483347859210106
30
0
10
-28.978756332713822
20
-33.973866112552116
30
0
10
-28.885828234889452
20
-34.473031900540875
30
0
0
ARC
5
193
100
AcDbEntity
8
0
100
AcDbCircle
10
-29.17760521930721
20
-34.579738191526722
30
0
40
0.31067674707301973
100
AcDbArc
50
-64.104992643782111
51
20.088063286480516
0
ARC
5
194
100
AcDbEntity
8
0
100
AcDbCircle
10
-25.920000000000002
20
-41.28999939872952
30
0
40
7.1485187345957879
100
AcDbArc
50
115.89500735611473
51
116.60497510542868
0
ARC
5
195
100
AcDbEntity
8
0
100
AcDbCircle
10
-29.260501692987365
20
-34.620618192583457
30
0
40
0.31067674707300302
100
AcDbArc
50
212.41191917525714
51
296.6049751055296
0
SPLINE
5
196
100
AcDbEntity
8
0
100
AcDbSpline
70
1064
71
2
72
6
73
3
74
0
42
0.000000001
43
0.0000000001
44
0.0000000001
40
-1
40
-1
40
-1
40
-0.7242765894106542
40
-0.7242765894106542
40
-0.7242765894106542
10
-29.522780110330011
20
-34.787141683323085
30
0
10
-29.862223798380903
20
-34.409543884194626
30
0
10
-30.270112089447643
20
-34.135349895178628
30
0
0
SPLINE
5
197
100
AcDbEntity
8
0
100
AcDbSpline
70
1064
71
3
72
12
73
8
74
0
42
0.000000001
43
0.0000000001
44
0.0000000001
40
0
40
0
40
0
40
0
40
0.0060263164866890557
40
0.010475448436663794
40
0.013646988327529752
40
0.01427358447096006
40
0.015249368099763906
40
0.015249368099763906
40
0.015249368099763906
40
0.015249368099763906
10
-30.270112089447643
20
-34.135349895178649
30
0
10
-30.290958432553865
20
-34.12150037278407
30
0
10
-30.327195293459638
20
-34.097425972105427
30
0
10
-30.375079835053846
20
-34.067103082623547
30
0
10
-30.404217024538298
20
-34.049099741703841
30
0
10
-30.42114664254666
20
-34.0387824484433
30
0
10
-30.426840606003609
20
-34.035338350979899
30
0
10
-30.430307996456605
20
-34.033241036735788
30
0
0
ARC
5
198
100
AcDbEntity
8
0
100
AcDbCircle
10
-25.920000000000002
20
-41.28999939872952
30
0
40
8.5442038919530958
100
AcDbArc
50
121.86227639587193
51
125.63770606578552
0
SPLINE
5
199
100
AcDbEntity
8
0
100
AcDbSpline
70
1064
71
3
72
12
73
8
74
0
42
0.000000001
43
0.0000000001
44
0.0000000001
40
0
40
0
40
0
40
0
40
0.00097578490171867721
40
0.0015994203825147248
40
0.0047695272047640399
40
0.0092166890272750678
40
0.01524936787388613
40
0.01524936787388613
40
0.01524936787388613
40
0.01524936787388613
10
-30.898348252340028
20
-34.345975433787984
30
0
10
-30.897737501087576
20
-34.349981497861492
30
0
10
-30.896736411605524
20
-34.356547884082019
30
0
10
-30.893686073482101
20
-34.37611906101084
30
0
10
-30.888208105140976
20
-34.409901870577308
30
0
10
-30.878516915674325
20
-34.465757764958994
30
0
10
-30.870139037305073
20
-34.508467082322682
30
0
10
-30.865316344745757
20
-34.533052532001534
30
0
0
SPLINE
5
200
100
AcDbEntity
8
0
100
AcDbSpline
70
1064
71
2
72
6
73
3
74
0
42
0.000000001
43
0.0000000001
44
0.0000000001
40
-0.27572341058905608
40
-0.27572341058905608
40
-0.27572341058905608
40
0
40
0
40
0
10
-30.865316344745921
20
-34.53305253200157
30
0
10
-30.76808636907294
20
-35.014821702281239
30
0
10
-30.549131106801354
20
-35.47292726695742
30
0
0
ARC
5
201
100
AcDbEntity
8
0
100
AcDbCircle
10
-30.803348411227795
20
-35.651515069738046
30
0
40
0.3106767470729988
100
AcDbArc
50
-49.104992643788073
51
35.088063286480661
0
ARC
5
202
100
AcDbEntity
8
0
100
AcDbCircle
10
-25.920000000000002
20
-41.28999939872952
30
0
40
7.1485187345941394
100
AcDbArc
50
130.89500735621328
51
131.60497510552719
0
ARC
5
203
100
AcDbEntity
8
0
100
AcDbCircle
10
-30.872839733226478
20
-35.712457304697736
30
0
40
0.31067674707303683
100
AcDbArc
50
227.41191917525632
51
311.60497510553228
0
SPLINE
5
204
100
AcDbEntity
8
0
100
AcDbSpline
70
1064
71
2
72
6
73
3
74
0
42
0.000000001
43
0.0000000001
44
0.0000000001
40
-1
40
-1
40
-1
40
-0.7242765894106542
40
-0.7242765894106542
40
-0.7242765894106542
10
-31.083081779355595
20
-35.941189294614588
30
0
10
-31.508688706018006
20
-35.664312319693913
30
0
10
-31.973645167010247
20
-35.505030522292522
30
0
0
SPLINE
5
205
100
AcDbEntity
8
0
100
AcDbSpline
70
1064
71
3
72
12
73
8
74
0
42
0.000000001
43
0.0000000001
44
0.0000000001
40
0
40
0
40
0
40
0
40
0.0060263164866891233
40
0.01047544843666371
40
0.013646988327529964
40
0.014273584470938981
40
0.015249368099763903
40
0.015249368099763903
40
0.015249368099763903
40
0.015249368099763903
10
-31.973645167010247
20
-35.50503052229255
30
0
10
-31.997365708361542
20
-35.497048341546488
30
0
10
-32.038598741569125
20
-35.483173045915692
30
0
10
-32.092699798275419
20
-35.466276815168015
30
0
10
-32.125503769609345
20
-35.45642818277355
30
0
10
-32.144526836862582
20
-35.450844150322666
30
0
10
-32.150918181236314
20
-35.448991113819297
30
0
10
-32.154810248094698
20
-35.44786269051108
30
0
0
ARC
5
206
100
AcDbEntity
8
0
100
AcDbCircle
10
-25.920000000000002
20
-41.28999939872952
30
0
40
8.544203891952721
100
AcDbArc
50
136.86227639595506
51
140.6377060658688
0
SPLINE
5
207
100
AcDbEntity
8
0
100
AcDbSpline
70
1064
71
3
72
12
73
8
74
0
42
0.000000001
43
0.0000000001
44
0.0000000001
40
0
40
0
40
0
40
0
40
0.00097578490168098893
40
0.0015994203825149419
40
0.0047695272047638907
40
0.0092166890272751129
40
0.015249367873886319
40
0.015249367873886319
40
0.015249367873886319
40
0.015249367873886319
10
-32.525960800979689
20
-35.871078653490031
30
0
10
-32.524334014893441
20
-35.874790140184302
30
0
10
-32.52166753089692
20
-35.880873681196299
30
0
10
-32.513655737200359
20
-35.898988500842378
30
0
10
-32.49962079159112
20
-35.93020238655221
30
0
10
-32.475803252150605
20
-35.981646773082289
30
0
10
-32.4566568583272
20
-36.020732451267534
30
0
10
-32.44563531242261
20
-36.043231967380251
30
0
0
SPLINE
5
208
100
AcDbEntity
8
0
100
AcDbSpline
70
1064
71
2
72
6
73
3
74
0
42
0.000000001
43
0.0000000001
44
0.0000000001
40
-0.27572341058905631
40
-0.27572341058905631
40
-0.27572341058905631
40
0
40
0
40
0
10
-32.445635312422752
20
-36.043231967380308
30
0
10
-32.227027331219162
20
-36.4834202818043
30
0
10
-31.896966343783497
20
-36.869246485990459
30
0
0
ARC
5
209
100
AcDbEntity
8
0
100
AcDbCircle
10
-32.096299479035928
20
-37.107545336936674
30
0
40
0.31067674707298021
100
AcDbArc
50
-34.104992643788194
51
50.08806328648356
0
ARC
5
210
100
AcDbEntity
8
0
100
AcDbCircle
10
-25.920000000000002
20
-41.28999939872952
30
0
40
7.1485187345957346
100
AcDbArc
50
145.89500735631205
51
146.60497510562689
0
ARC
5
211
100
AcDbEntity
8
0
100
AcDbCircle
10
-32.14764993059876
20
-37.184396693198622
30
0
40
0.31067674707302612
100
AcDbArc
50
242.411919175256
51
326.60497510550664
0
SPLINE
5
212
100
AcDbEntity
8
0
100
AcDbSpline
70
1064
71
2
72
6
73
3
74
0
42
0.000000001
43
0.0000000001
44
0.0000000001
40
-1
40
-1
40
-1
40
-0.72427658941065409
40
-0.72427658941065409
40
-0.72427658941065409
10
-32.291527957512052
20
-37.459749475177333
30
0
10
-32.774293714082646
20
-37.302462032744444
30
0
10
-33.264632330560644
20
-37.268947218224959
30
0
0
SPLINE
5
213
100
AcDbEntity
8
0
100
AcDbSpline
70
1064
71
3
72
12
73
8
74
0
42
0.000000001
43
0.0000000001
44
0.0000000001
40
0
40
0
40
0
40
0
40
0.0060263164866890071
40
0.010475448436663863
40
0.013646988327530321
40
0.014273584470962697
40
0.015249368099763662
40
0.015249368099763662
40
0.015249368099763662
40
0.015249368099763662
10
-33.264632330560644
20
-37.268947218224994
30
0
10
-33.289610554463927
20
-37.26737635155412
30
0
10
-33.333029796901037
20
-37.264645739438407
30
0
10
-33.389660471111149
20
-37.262327617628053
30
0
10
-33.423895687859407
20
-37.261304861780843
30
0
10
-33.44371581376133
20
-37.260834632723089
30
0
10
-33.450368979494939
20
-37.260698938555159
30
0
10
-33.454420484834102
20
-37.260616306366529
30
0
0
ARC
5
214
100
AcDbEntity
8
0
100
AcDbCircle
10
-25.920000000000002
20
-41.28999939872952
30
0
40
8.5442038919555596
100
AcDbArc
50
151.86227639603612
51
155.63770606594841
0
SPLINE
5
215
100
AcDbEntity
8
0
100
AcDbSpline
70
1064
71
3
72
12
73
8
74
0
42
0.000000001
43
0.0000000001
44
0.0000000001
40
0
40
0
40
0
40
0
40
0.00097578490168729508
40
0.0015994203825150095
40
0.0047695272047637667
40
0.0092166890272753106
40
0.015249367873886198
40
0.015249367873886198
40
0.015249367873886198
40
0.015249367873886198
10
-33.703388037896829
20
-37.765472366792636
30
0
10
-33.70085607976015
20
-37.768636344423157
30
0
10
-33.696705917726987
20
-37.773822456960183
30
0
10
-33.684278658957545
20
-37.789246424300785
30
0
10
-33.662643194429684
20
-37.815764211426099
30
0
10
-33.626322430967825
20
-37.859291240178401
30
0
10
-33.597712316788375
20
-37.89208965480902
30
0
10
-33.581243017677977
20
-37.910969932514725
30
0
0
SPLINE
5
216
100
AcDbEntity
8
0
100
AcDbSpline
70
1064
71
2
72
6
73
3
74
0
42
0.000000001
43
0.0000000001
44
0.0000000001
40
-0.27572341058905647
40
-0.27572341058905647
40
-0.27572341058905647
40
0
40
0
40
0
10
-33.581243017678098
20
-37.910969932514824
30
0
10
-33.256154803596118
20
-38.279579284900692
30
0
10
-32.837481201838543
20
-38.566832710389477
30
0
0
ARC
5
217
100
AcDbEntity
8
0
100
AcDbCircle
10
-32.96834594416314
20
-38.848602936616771
30
0
40
0.31067674707301646
100
AcDbArc
50
-19.10499264378414
51
65.088063286478203
0
ARC
5
218
100
AcDbEntity
8
0
100
AcDbCircle
10
-25.920000000000002
20
-41.28999939872952
30
0
40
7.148518734600434
100
AcDbArc
50
160.89500735640394
51
161.60497510571761
0
ARC
5
219
100
AcDbEntity
8
0
100
AcDbCircle
10
-32.998056076876708
20
-38.936126121254603
30
0
40
0.31067674707302245
100
AcDbArc
50
257.4119191752564
51
341.6049751055242
0
SPLINE
5
220
100
AcDbEntity
8
0
100
AcDbSpline
70
1064
71
2
72
6
73
3
74
0
42
0.000000001
43
0.0000000001
44
0.0000000001
40
-1
40
-1
40
-1
40
-0.7242765894106542
40
-0.7242765894106542
40
-0.7242765894106542
10
-33.065765034809715
20
-39.239334858245314
30
0
10
-33.572789932786328
20
-39.212355827572232
30
0
10
-34.055094938359993
20
-39.306891975158294
30
0
0
SPLINE
5
221
100
AcDbEntity
8
0
100
AcDbSpline
70
1064
71
3
72
12
73
8
74
0
42
0.000000001
43
0.0000000001
44
0.0000000001
40
0
40
0
40
0
40
0
40
0.0060263164866889507
40
0.010475448436663641
40
0.013646988327529712
40
0.014273584470968144
40
0.015249368099763705
40
0.015249368099763705
40
0.015249368099763705
40
0.015249368099763705
10
-34.055094938359993
20
-39.306891975158329
30
0
10
-34.079628620134741
20
-39.311839474530281
30
0
10
-34.122275122182984
20
-39.320439632632791
30
0
10
-34.177576127036076
20
-39.332857595930257
30
0
10
-34.210909515753613
20
-39.340730415751111
30
0
10
-34.230175991478255
20
-39.345406035419693
30
0
10
-34.236637576321918
20
-39.346996930920497
30
0
10
-34.240572416748513
20
-39.347965721098525
30
0
0
ARC
5
222
100
AcDbEntity
8
0
100
AcDbCircle
10
-25.920000000000002
20
-41.28999939872952
30
0
40
8.5442038919614465
100
AcDbArc
50
166.86227639610937
51
170.63770606601889
0
SPLINE
5
223
100
AcDbEntity
8
0
100
AcDbSpline
70
1064
71
3
72
12
73
8
74
0
42
0.000000001
43
0.0000000001
44
0.0000000001
40
0
40
0
40
0
40
0
40
0.0009757849016853678
40
0.0015994203825152064
40
0.0047695272047643331
40
0.0092166890272758293
40
0.015249367873886558
40
0.015249367873886558
40
0.015249367873886558
40
0.015249367873886558
10
-34.350390242686053
20
-39.900056772767876
30
0
10
-34.347125661261686
20
-39.902457621487805
30
0
10
-34.341774647875958
20
-39.906392880550911
30
0
10
-34.325778821181821
20
-39.918074877701095
30
0
10
-34.298017258888571
20
-39.938089422872032
30
0
10
-34.251668471412373
20
-39.970732798768907
30
0
10
-34.215544368877843
20
-39.99500879208977
30
0
10
-34.194749672079141
20
-40.008983171663949
30
0
0
SPLINE
5
224
100
AcDbEntity
8
0
100
AcDbSpline
70
1064
71
2
72
6
73
3
74
0
42
0.000000001
43
0.0000000001
44
0.0000000001
40
-0.27572341058905647
40
-0.27572341058905647
40
-0.27572341058905647
40
0
40
0
40
0
10
-34.194749672079247
20
-40.00898317166407
30
0
10
-33.785335449674896
20
-40.280893443802491
30
0
10
-33.306581147664389
20
-40.449998244355598
30
0
0
ARC
5
225
100
AcDbEntity
8
0
100
AcDbCircle
10
-33.360059281135875
20
-40.756037670593898
30
0
40
0.3106767470730053
100
AcDbArc
50
-4.1049926437893989
51
80.088063286485905
0
ARC
5
226
100
AcDbEntity
8
0
100
AcDbCircle
10
-25.920000000000002
20
-41.28999939872952
30
0
40
7.1485187346079542
100
AcDbArc
50
175.89500735648329
51
176.604975105796
0
ARC
5
227
100
AcDbEntity
8
0
100
AcDbCircle
10
-33.3661043985541
20
-40.84826812321343
30
0
40
0.31067674707302617
100
AcDbArc
50
272.41191917525435
51
356.60497510552739
0
SPLINE
5
228
100
AcDbEntity
8
0
100
AcDbSpline
70
1064
71
2
72
6
73
3
74
0
42
0.000000001
43
0.0000000001
44
0.0000000001
40
-1
40
-1
40
-1
40
-0.7242765894106542
40
-0.7242765894106542
40
-0.7242765894106542
10
-33.353030033918046
20
-41.158669640866357
30
0
10
-33.849761164401826
20
-41.263837598308484
30
0
10
-34.291164269988023
20
-41.479982225770499
30
0
0
SPLINE
5
229
100
AcDbEntity
8
0
100
AcDbSpline
70
1064
71
3
72
12
73
8
74
0
42
0.000000001
43
0.0000000001
44
0.0000000001
40
0
40
0
40
0
40
0
40
0.0060263164866890592
40
0.010475448436663827
40
0.013646988327529622
40
0.014273584470946827
40
0.015249368099763735
40
0.015249368099763735
40
0.015249368099763735
40
0.015249368099763735
10
-34.291164269988002
20
-41.47998222577052
30
0
10
-34.313581479765098
20
-41.491110927279223
30
0
10
-34.352548952786577
20
-41.510455769037705
30
0
10
-34.402751616191154
20
-41.536763553765923
30
0
10
-34.432911561522779
20
-41.552995429594468
30
0
10
-34.450311408588902
20
-41.562498262235799
30
0
10
-34.456141066213767
20
-41.565707330506044
30
0
10
-34.459691088855429
20
-41.567661521601131
30
0
0
ARC
5
230
100
AcDbEntity
8
0
100
AcDbCircle
10
-25.920000000000002
20
-41.28999939872952
30
0
40
8.5442038919699428
100
AcDbArc
50
181.86227639617002
51
185.63770606607551
0
SPLINE
5
231
100
AcDbEntity
8
0
100
AcDbSpline
70
1064
71
3
72
12
73
8
74
0
42
0.000000001
43
0.0000000001
44
0.0000000001
40
0
40
0
40
0
40
0
40
0.00097578490170658564
40
0.0015994203825150811
40
0.004769527204763804
40
0.0092166890272752117
40
0.015249367873886307
40
0.015249367873886307
40
0.015249367873886307
40
0.015249367873886307
10
-34.422875284312752
20
-42.129363471716047
30
0
10
-34.419100555429701
20
-42.130837577652763
30
0
10
-34.412913353410637
20
-42.133253801840127
30
0
10
-34.394439047946641
20
-42.140397719999513
30
0
10
-34.362443292480236
20
-42.152545065038225
30
0
10
-34.309225074261278
20
-42.172080195958046
30
0
10
-34.268048781261406
20
-42.186179399142304
30
0
10
-34.2443458109964
20
-42.194295549710731
30
0
0
SPLINE
5
232
100
AcDbEntity
8
0
100
AcDbSpline
70
1064
71
2
72
6
73
3
74
0
42
0.000000001
43
0.0000000001
44
0.0000000001
40
-0.27572341058905647
40
-0.27572341058905647
40
-0.27572341058905647
40
0
40
0
40
0
10
-34.244345810996457
20
-42.194295549710873
30
0
10
-33.77850648293763
20
-42.350976505908584
30
0
10
-33.272297795177252
20
-42.390408468827196
30
0
0
ARC
5
233
100
AcDbEntity
8
0
100
AcDbCircle
10
-33.244744873376384
20
-42.699861013932399
30
0
40
0.31067674707299775
100
AcDbArc
50
10.89500735621329
51
95.088063286484712
0
ARC
5
234
100
AcDbEntity
8
0
100
AcDbCircle
10
-25.920000000000002
20
-41.28999939872952
30
0
40
7.1485187346177748
100
AcDbArc
50
190.8950073565438
51
191.60497510585546
0
ARC
5
235
100
AcDbEntity
8
0
100
AcDbCircle
10
-33.226713010737242
20
-42.790513381605678
30
0
40
0.3106767470730144
100
AcDbArc
50
-72.58808082474404
51
11.604975105530777
0
SPLINE
5
236
100
AcDbEntity
8
0
100
AcDbSpline
70
1064
71
2
72
6
73
3
74
0
42
0.000000001
43
0.0000000001
44
0.0000000001
40
-1
40
-1
40
-1
40
-0.72427658941065465
40
-0.72427658941065465
40
-0.72427658941065465
10
-33.133746319875648
20
-43.086954329455523
30
0
10
-33.586332277211149
20
-43.317102252511461
30
0
10
-33.956752590617299
20
-43.640125460683741
30
0
0
SPLINE
5
237
100
AcDbEntity
8
0
100
AcDbSpline
70
1064
71
3
72
12
73
8
74
0
42
0.000000001
43
0.0000000001
44
0.0000000001
40
0
40
0
40
0
40
0
40
0.0060263164866891233
40
0.010475448436663946
40
0.01364698832752948
40
0.014273584470954476
40
0.015249368099764007
40
0.015249368099764007
40
0.015249368099764007
40
0.015249368099764007
10
-33.956752590617285
20
-43.64012546068377
30
0
10
-33.975525632596614
20
-43.656676961712471
30
0
10
-34.008158507701694
20
-43.68544816812993
30
0
10
-34.04984160111055
20
-43.723852942235339
30
0
10
-34.074772752623687
20
-43.747337698558354
30
0
10
-34.089120200208328
20
-43.761020141832098
30
0
10
-34.093920649081248
20
-43.765628690172392
30
0
10
-34.096843925761526
20
-43.768435107290827
30
0
0
ARC
5
238
100
AcDbEntity
8
0
100
AcDbCircle
10
-25.920000000000002
20
-41.28999939872952
30
0
40
8.5442038919805103
100
AcDbArc
50
196.86227639621364
51
200.63770606611445
0
SPLINE
5
239
100
AcDbEntity
8
0
100
AcDbSpline
70
1064
71
3
72
12
73
8
74
0
42
0.000000001
43
0.0000000001
44
0.0000000001
40
0
40
0
40
0
40
0
40
0.00097578490170497029
40
0.0015994203825149746
40
0.0047695272047638534
40
0.0092166890272754286
40
0.015249367873886205
40
0.015249367873886205
40
0.015249367873886205
40
0.015249367873886205
10
-33.915903426977174
20
-44.301468896207339
30
0
10
-33.911875792170882
20
-44.301915801477264
30
0
10
-33.90527404911132
20
-44.302648329103519
30
0
10
-33.885580258264525
20
-44.30476732205544
30
0
10
-33.851530767484476
20
-44.308219645472029
30
0
10
-33.795069852147066
20
-44.313315244525924
30
0
10
-33.75164746500279
20
-44.316276820176618
30
0
10
-33.726651539524035
20
-44.317981639490625
30
0
0
SPLINE
5
240
100
AcDbEntity
8
0
100
AcDbSpline
70
1064
71
2
72
6
73
3
74
0
42
0.000000001
43
0.0000000001
44
0.0000000001
40
-0.27572341058905675
40
-0.27572341058905675
40
-0.27572341058905675
40
0
40
0
40
0
10
-33.726651539524035
20
-44.317981639490789
30
0
10
-33.236133286182039
20
-44.348755731510423
30
0
10
-32.736967498193252
20
-44.255827633686039
30
0
0
ARC
5
241
100
AcDbEntity
8
0
100
AcDbCircle
10
-32.630261207207418
20
-44.54760461810379
30
0
40
0.31067674707301185
100
AcDbArc
50
25.895007356218454
51
110.08806328647852
0
ARC
5
242
100
AcDbEntity
8
0
100
AcDbCircle
10
-25.920000000000002
20
-41.28999939872952
30
0
40
7.1485187346292332
100
AcDbArc
50
205.89500735658206
51
206.60497510589252
0
ARC
5
243
100
AcDbEntity
8
0
100
AcDbCircle
10
-32.589381206150691
20
-44.630501091783934
30
0
40
0.31067674707303877
100
AcDbArc
50
-57.588080824743855
51
26.604975105530752
0
SPLINE
5
244
100
AcDbEntity
8
0
100
AcDbSpline
70
1064
71
2
72
6
73
3
74
0
42
0.000000001
43
0.0000000001
44
0.0000000001
40
-1
40
-1
40
-1
40
-0.72427658941065443
40
-0.72427658941065443
40
-0.72427658941065443
10
-32.422857715411048
20
-44.892779509126591
30
0
10
-32.800455514539479
20
-45.232223197177497
30
0
10
-33.074649503555513
20
-45.640111488244209
30
0
0
SPLINE
5
245
100
AcDbEntity
8
0
100
AcDbSpline
70
1064
71
3
72
12
73
8
74
0
42
0.000000001
43
0.0000000001
44
0.0000000001
40
0
40
0
40
0
40
0
40
0.0060263164866891632
40
0.010475448436663735
40
0.013646988327530021
40
0.014273584470956129
40
0.01524936809976386
40
0.01524936809976386
40
0.01524936809976386
40
0.01524936809976386
10
-33.074649503555477
20
-45.640111488244237
30
0
10
-33.088499025950064
20
-45.660957831350458
30
0
10
-33.112573426628693
20
-45.697194692256232
30
0
10
-33.14289631611058
20
-45.745079233850433
30
0
10
-33.160899657030257
20
-45.77421642333487
30
0
10
-33.171216950290841
20
-45.791146041343261
30
0
10
-33.174661047754206
20
-45.796840004800188
30
0
10
-33.176758361998331
20
-45.800307395253192
30
0
0
ARC
5
246
100
AcDbEntity
8
0
100
AcDbCircle
10
-25.920000000000002
20
-41.28999939872952
30
0
40
8.544203891992403
100
AcDbArc
50
211.86227639623763
51
215.63770606613303
0
SPLINE
5
247
100
AcDbEntity
8
0
100
AcDbSpline
70
1064
71
3
72
12
73
8
74
0
42
0.000000001
43
0.0000000001
44
0.0000000001
40
0
40
0
40
0
40
0
40
0.00097578490170218367
40
0.0015994203825148426
40
0.0047695272047639289
40
0.0092166890272753141
40
0.015249367873886454
40
0.015249367873886454
40
0.015249367873886454
40
0.015249367873886454
10
-32.864023964946149
20
-46.268347651136622
30
0
10
-32.860017900872698
20
-46.267736899884156
30
0
10
-32.853451514652178
20
-46.266735810402125
30
0
10
-32.833880337723357
20
-46.263685472278702
30
0
10
-32.800097528156805
20
-46.258207503937562
30
0
10
-32.744241633775147
20
-46.248516314470891
30
0
10
-32.701532316411452
20
-46.240138436101653
30
0
10
-32.6769468667326
20
-46.235315743542351
30
0
0
SPLINE
5
248
100
AcDbEntity
8
0
100
AcDbSpline
70
1064
71
2
72
6
73
3
74
0
42
0.000000001
43
0.0000000001
44
0.0000000001
40
-0.27572341058905647
40
-0.27572341058905647
40
-0.27572341058905647
40
0
40
0
40
0
10
-32.676946866732564
20
-46.235315743542515
30
0
10
-32.195177696452888
20
-46.138085767869541
30
0
10
-31.737072131776721
20
-45.919130505597956
30
0
0
ARC
5
249
100
AcDbEntity
8
0
100
AcDbCircle
10
-31.558484328996062
20
-46.173347810024403
30
0
40
0.31067674707301335
100
AcDbArc
50
40.895007356215331
51
125.08806328648475
0
ARC
5
250
100
AcDbEntity
8
0
100
AcDbCircle
10
-25.920000000000002
20
-41.28999939872952
30
0
40
7.1485187346415104
100
AcDbArc
50
220.89500735659556
51
221.60497510590463
0
ARC
5
251
100
AcDbEntity
8
0
100
AcDbCircle
10
-31.497542094036405
20
-46.242839132023079
30
0
40
0.31067674707305043
100
AcDbArc
50
-42.588080824739137
51
41.604975105532226
0
SPLINE
5
252
100
AcDbEntity
8
0
100
AcDbSpline
70
1064
71
2
72
6
73
3
74
0
42
0.000000001
43
0.0000000001
44
0.0000000001
40
-1
40
-1
40
-1
40
-0.7242765894106542
40
-0.7242765894106542
40
-0.7242765894106542
10
-31.268810104119524
20
-46.453081178152189
30
0
10
-31.545687079040221
20
-46.8786881048146
30
0
10
-31.704968876441619
20
-47.343644565806841
30
0
0
SPLINE
5
253
100
AcDbEntity
8
0
100
AcDbSpline
70
1064
71
3
72
12
73
8
74
0
42
0.000000001
43
0.0000000001
44
0.0000000001
40
0
40
0
40
0
40
0
40
0.0060263164866889655
40
0.010475448436663693
40
0.013646988327529733
40
0.014273584470943743
40
0.015249368099763922
40
0.015249368099763922
40
0.015249368099763922
40
0.015249368099763922
10
-31.704968876441562
20
-47.343644565806841
30
0
10
-31.712951057187631
20
-47.367365107158115
30
0
10
-31.726826352818421
20
-47.408598140365719
30
0
10
-31.743722583566097
20
-47.462699197072027
30
0
10
-31.753571215960569
20
-47.495503168405961
30
0
10
-31.759155248411453
20
-47.51452623565919
30
0
10
-31.761008284914823
20
-47.520917580032915
30
0
10
-31.762136708223061
20
-47.524809646891278
30
0
0
ARC
5
254
100
AcDbEntity
8
0
100
AcDbCircle
10
-25.920000000000002
20
-41.28999939872952
30
0
40
8.5442038920048144
100
AcDbArc
50
226.86227639623993
51
230.63770606613014
0
SPLINE
5
255
100
AcDbEntity
8
0
100
AcDbSpline
70
1064
71
3
72
12
73
8
74
0
42
0.000000001
43
0.0000000001
44
0.0000000001
40
0
40
0
40
0
40
0
40
0.0009757849017097231
40
0.0015994203825153304
40
0.0047695272047641318
40
0.0092166890272756541
40
0.015249367873886463
40
0.015249367873886463
40
0.015249367873886463
40
0.015249367873886463
10
-31.338920745244081
20
-47.895960199776283
30
0
10
-31.335209258549732
20
-47.894333413689964
30
0
10
-31.329125717537714
20
-47.891666929693471
30
0
10
-31.311010897891627
20
-47.883655135996896
30
0
10
-31.279797012181902
20
-47.869620190387721
30
0
10
-31.22835262565183
20
-47.845802650947192
30
0
10
-31.189266947466592
20
-47.826656257123766
30
0
10
-31.166767431353868
20
-47.81563471121919
30
0
0
SPLINE
5
256
100
AcDbEntity
8
0
100
AcDbSpline
70
1064
71
2
72
6
73
3
74
0
42
0.000000001
43
0.0000000001
44
0.0000000001
40
-0.27572341058905697
40
-0.27572341058905697
40
-0.27572341058905697
40
0
40
0
40
0
10
-31.166767431353797
20
-47.815634711219332
30
0
10
-30.726579116929827
20
-47.597026730015727
30
0
10
-30.340752912743667
20
-47.266965742580076
30
0
0
ARC
5
257
100
AcDbEntity
8
0
100
AcDbCircle
10
-30.102454061797459
20
-47.466298877832507
30
0
40
0.3106767470729862
100
AcDbArc
50
55.895007356215451
51
140.08806328648376
0
ARC
5
258
100
AcDbEntity
8
0
100
AcDbCircle
10
-25.920000000000002
20
-41.28999939872952
30
0
40
7.1485187346538401
100
AcDbArc
50
235.89500735658262
51
236.60497510589113
0
ARC
5
259
100
AcDbEntity
8
0
100
AcDbCircle
10
-30.025602705535501
20
-47.517649329395333
30
0
40
0.31067674707303417
100
AcDbArc
50
-27.588080824746026
51
56.604975105524595
0
SPLINE
5
260
100
AcDbEntity
8
0
100
AcDbSpline
70
1064
71
2
72
6
73
3
74
0
42
0.000000001
43
0.0000000001
44
0.0000000001
40
-1
40
-1
40
-1
40
-0.72427658941065443
40
-0.72427658941065443
40
-0.72427658941065443
10
-29.750249923556787
20
-47.661527356308639
30
0
10
-29.907537365989654
20
-48.144293112879211
30
0
10
-29.941052180509161
20
-48.634631729357224
30
0
0
SPLINE
5
261
100
AcDbEntity
8
0
100
AcDbSpline
70
1064
71
3
72
12
73
8
74
0
42
0.000000001
43
0.0000000001
44
0.0000000001
40
0
40
0
40
0
40
0
40
0.0060263164866890036
40
0.010475448436663532
40
0.013646988327529879
40
0.014273584470970139
40
0.015249368099763664
40
0.015249368099763664
40
0.015249368099763664
40
0.015249368099763664
10
-29.941052180509111
20
-48.634631729357224
30
0
10
-29.94262304718
20
-48.659609953260514
30
0
10
-29.945353659295712
20
-48.703029195697631
30
0
10
-29.947671781106074
20
-48.759659869907722
30
0
10
-29.94869453695329
20
-48.793895086656036
30
0
10
-29.949164766011044
20
-48.813715212557938
30
0
10
-29.949300460178982
20
-48.820368378291555
30
0
10
-29.94938309236759
20
-48.824419883630696
30
0
0
ARC
5
262
100
AcDbEntity
8
0
100
AcDbCircle
10
-25.920000000000002
20
-41.28999939872952
30
0
40
8.5442038920168724
100
AcDbArc
50
241.86227639622103
51
242.08548924727995
0
LINE
5
263
100
AcDbEntity
8
0
100
AcDbLine
10
-29.920000000000005
20
-48.84006033546104
30
0
11
-29.920000000000002
21
-66.953162533488722
31
0
0
ARC
5
264
100
AcDbEntity
8
0
100
AcDbCircle
10
-27.920000000000002
20
-66.953162533488722
30
0
40
1.9999999999999973
100
AcDbArc
50
180
51
270
0
LINE
5
265
100
AcDbEntity
8
0
100
AcDbLine
10
-27.920000000000002
20
-68.953162533488722
30
0
11
-23.920000000000002
21
-68.953162533488722
31
0
0
ARC
5
266
100
AcDbEntity
8
0
100
AcDbCircle
10
-23.920000000000002
20
-66.953162533488722
30
0
40
2.0000000000000018
100
AcDbArc
50
-90
51
0
0
LINE
5
267
100
AcDbEntity
8
0
100
AcDbLine
10
-21.920000000000002
20
-66.953162533488722
30
0
11
-21.920000000000009
21
-48.17959216765307
31
0
0
SPLINE
5
268
100
AcDbEntity
8
0
100
AcDbSpline
70
1064
71
2
72
6
73
3
74
0
42
0.000000001
43
0.0000000001
44
0.0000000001
40
-0.84720921299267393
40
-0.84720921299267393
40
-0.84720921299267393
40
-0.72427658941065465
40
-0.72427658941065465
40
-0.72427658941065465
10
-21.919999999999487
20
-48.179592167653531
30
0
10
-21.751746888811951
20
-48.322398178816854
30
0
10
-21.569887910490017
20
-48.444648902352114
30
0
0
SPLINE
5
269
100
AcDbEntity
8
0
100
AcDbSpline
70
1064
71
3
72
12
73
8
74
0
42
0.000000001
43
0.0000000001
44
0.0000000001
40
0
40
0
40
0
40
0
40
0.0060263164866889022
40
0.010475448436663592
40
0.01364698832752962
40
0.01427358447093964
40
0.015249368099763804
40
0.015249368099763804
40
0.015249368099763804
40
0.015249368099763804
10
-21.569887910489996
20
-48.444648902352078
30
0
10
-21.54904156738376
20
-48.458498424746665
30
0
10
-21.512804706477986
20
-48.482572825425308
30
0
10
-21.4649201648838
20
-48.512895714907181
30
0
10
-21.435782975399398
20
-48.530899055826858
30
0
10
-21.418853357391036
20
-48.541216349087406
30
0
10
-21.413159393934087
20
-48.5446604465508
30
0
10
-21.40969200348102
20
-48.546757760794947
30
0
0
CIRCLE
5
270
100
AcDbEntity
8
0
100
AcDbCircle
10
-25.920000000000002
20
-65.28999939872952
30
0
40
1.2999999999999989
0
CIRCLE
5
271
100
AcDbEntity
8
0
100
AcDbCircle
10
-25.920000000000002
20
-41.28999939872952
30
0
40
1.2999999999999989
0
CIRCLE
5
272
100
AcDbEntity
8
0
100
AcDbCircle
10
-25.920000000000002
20
-41.28999939872952
30
0
40
1.2999999999999989
0
CIRCLE
5
273
100
AcDbEntity
8
0
100
AcDbCircle
10
-25.920000000000002
20
-65.28999939872952
30
0
40
1.2999999999999989
0
SPLINE
5
274
100
AcDbEntity
8
0
100
AcDbSpline
70
1064
71
3
72
12
73
8
74
0
42
0.000000001
43
0.0000000001
44
0.0000000001
40
0
40
0
40
0
40
0
40
0.0060263164866889022
40
0.010475448436663592
40
0.01364698832752962
40
0.01427358447093964
40
0.015249368099763804
40
0.015249368099763804
40
0.015249368099763804
40
0.015249368099763804
10
-21.569887910489996
20
-48.444648902352078
30
0
10
-21.54904156738376
20
-48.458498424746665
30
0
10
-21.512804706477986
20
-48.482572825425308
30
0
10
-21.4649201648838
20
-48.512895714907181
30
0
10
-21.435782975399398
20
-48.530899055826858
30
0
10
-21.418853357391036
20
-48.541216349087406
30
0
10
-21.413159393934087
20
-48.5446604465508
30
0
10
-21.40969200348102
20
-48.546757760794947
30
0
0
SPLINE
5
275
100
AcDbEntity
8
0
100
AcDbSpline
70
1064
71
2
72
6
73
3
74
0
42
0.000000001
43
0.0000000001
44
0.0000000001
40
0.72427658941065465
40
0.72427658941065465
40
0.72427658941065465
40
0.84720921299267393
40
0.84720921299267393
40
0.84720921299267393
10
-21.569887910490017
20
-48.444648902352114
30
0
10
-21.751746888811955
20
-48.322398178816862
30
0
10
-21.919999999999487
20
-48.179592167653531
30
0
0
LINE
5
276
100
AcDbEntity
8
0
100
AcDbLine
10
-21.920000000000002
20
-66.953162533488722
30
0
11
-21.919999999999487
21
-48.179592167653531
31
0
0
ARC
5
277
100
AcDbEntity
8
0
100
AcDbCircle
10
-23.920000000000002
20
-66.953162533488722
30
0
40
2.0000000000000018
100
AcDbArc
50
-90
51
0
0
LINE
5
278
100
AcDbEntity
8
0
100
AcDbLine
10
-23.920000000000002
20
-68.953162533488722
30
0
11
-27.920000000000002
21
-68.953162533488722
31
0
0
ARC
5
279
100
AcDbEntity
8
0
100
AcDbCircle
10
-27.920000000000002
20
-66.953162533488722
30
0
40
1.9999999999999973
100
AcDbArc
50
180
51
270
0
LINE
5
280
100
AcDbEntity
8
0
100
AcDbLine
10
-29.920000000000002
20
-66.953162533488722
30
0
11
-29.920000000000002
21
-48.84006033546104
31
0
0
ARC
5
281
100
AcDbEntity
8
0
100
AcDbCircle
10
-25.920000000000002
20
-41.28999939872952
30
0
40
8.5442038920168724
100
AcDbArc
50
241.86227639622103
51
242.08548924727995
0
SPLINE
5
282
100
AcDbEntity
8
0
100
AcDbSpline
70
1064
71
3
72
12
73
8
74
0
42
0.000000001
43
0.0000000001
44
0.0000000001
40
0
40
0
40
0
40
0
40
0.0060263164866890036
40
0.010475448436663532
40
0.013646988327529879
40
0.014273584470970139
40
0.015249368099763664
40
0.015249368099763664
40
0.015249368099763664
40
0.015249368099763664
10
-29.941052180509111
20
-48.634631729357224
30
0
10
-29.94262304718
20
-48.659609953260514
30
0
10
-29.945353659295712
20
-48.703029195697631
30
0
10
-29.947671781106074
20
-48.759659869907722
30
0
10
-29.94869453695329
20
-48.793895086656036
30
0
10
-29.949164766011044
20
-48.813715212557938
30
0
10
-29.949300460178982
20
-48.820368378291555
30
0
10
-29.94938309236759
20
-48.824419883630696
30
0
0
SPLINE
5
283
100
AcDbEntity
8
0
100
AcDbSpline
70
1064
71
2
72
6
73
3
74
0
42
0.000000001
43
0.0000000001
44
0.0000000001
40
0.72427658941065443
40
0.72427658941065443
40
0.72427658941065443
40
1
40
1
40
1
10
-29.941052180509161
20
-48.634631729357224
30
0
10
-29.907537365989654
20
-48.144293112879211
30
0
10
-29.750249923556787
20
-47.661527356308639
30
0
0
ARC
5
284
100
AcDbEntity
8
0
100
AcDbCircle
10
-30.025602705535512
20
-47.517649329395333
30
0
40
0.31067674707304205
100
AcDbArc
50
-27.58808082474506
51
56.604975105522179
0
ARC
5
285
100
AcDbEntity
8
0
100
AcDbCircle
10
-25.920000000000002
20
-41.28999939872952
30
0
40
7.1485187346538401
100
AcDbArc
50
235.89500735658262
51
236.60497510589113
0
ARC
5
286
100
AcDbEntity
8
0
100
AcDbCircle
10
-30.102454061797459
20
-47.466298877832514
30
0
40
0.31067674707299353
100
AcDbArc
50
55.895007356216198
51
140.08806328648197
0
SPLINE
5
287
100
AcDbEntity
8
0
100
AcDbSpline
70
1064
71
2
72
6
73
3
74
0
42
0.000000001
43
0.0000000001
44
0.0000000001
40
0
40
0
40
0
40
0.27572341058905697
40
0.27572341058905697
40
0.27572341058905697
10
-30.340752912743667
20
-47.266965742580076
30
0
10
-30.726579116929827
20
-47.597026730015727
30
0
10
-31.166767431353797
20
-47.815634711219332
30
0
0
SPLINE
5
288
100
AcDbEntity
8
0
100
AcDbSpline
70
1064
71
3
72
12
73
8
74
0
42
0.000000001
43
0.0000000001
44
0.0000000001
40
0
40
0
40
0
40
0
40
0.0009757849017097231
40
0.0015994203825153304
40
0.0047695272047641318
40
0.0092166890272756541
40
0.015249367873886463
40
0.015249367873886463
40
0.015249367873886463
40
0.015249367873886463
10
-31.338920745244081
20
-47.895960199776283
30
0
10
-31.335209258549732
20
-47.894333413689964
30
0
10
-31.329125717537714
20
-47.891666929693471
30
0
10
-31.311010897891627
20
-47.883655135996896
30
0
10
-31.279797012181902
20
-47.869620190387721
30
0
10
-31.22835262565183
20
-47.845802650947192
30
0
10
-31.189266947466592
20
-47.826656257123766
30
0
10
-31.166767431353868
20
-47.81563471121919
30
0
0
ARC
5
289
100
AcDbEntity
8
0
100
AcDbCircle
10
-25.920000000000002
20
-41.28999939872952
30
0
40
8.5442038920047896
100
AcDbArc
50
226.86227639624011
51
230.63770606613031
0
SPLINE
5
290
100
AcDbEntity
8
0
100
AcDbSpline
70
1064
71
3
72
12
73
8
74
0
42
0.000000001
43
0.0000000001
44
0.0000000001
40
0
40
0
40
0
40
0
40
0.0060263164866889655
40
0.010475448436663693
40
0.013646988327529733
40
0.014273584470943743
40
0.015249368099763922
40
0.015249368099763922
40
0.015249368099763922
40
0.015249368099763922
10
-31.704968876441562
20
-47.343644565806841
30
0
10
-31.712951057187631
20
-47.367365107158115
30
0
10
-31.726826352818421
20
-47.408598140365719
30
0
10
-31.743722583566097
20
-47.462699197072027
30
0
10
-31.753571215960569
20
-47.495503168405961
30
0
10
-31.759155248411453
20
-47.51452623565919
30
0
10
-31.761008284914823
20
-47.520917580032915
30
0
10
-31.762136708223061
20
-47.524809646891278
30
0
0
SPLINE
5
291
100
AcDbEntity
8
0
100
AcDbSpline
70
1064
71
2
72
6
73
3
74
0
42
0.000000001
43
0.0000000001
44
0.0000000001
40
0.7242765894106542
40
0.7242765894106542
40
0.7242765894106542
40
1
40
1
40
1
10
-31.704968876441619
20
-47.343644565806841
30
0
10
-31.545687079040221
20
-46.8786881048146
30
0
10
-31.268810104119524
20
-46.453081178152189
30
0
0
ARC
5
292
100
AcDbEntity
8
0
100
AcDbCircle
10
-31.497542094036397
20
-46.242839132023079
30
0
40
0.31067674707305643
100
AcDbArc
50
-42.588080824740111
51
41.60497510552635
0
ARC
5
293
100
AcDbEntity
8
0
100
AcDbCircle
10
-25.920000000000002
20
-41.28999939872952
30
0
40
7.1485187346415104
100
AcDbArc
50
220.89500735659556
51
221.60497510590491
0
ARC
5
294
100
AcDbEntity
8
0
100
AcDbCircle
10
-31.558484328996059
20
-46.173347810024396
30
0
40
0.31067674707300419
100
AcDbArc
50
40.895007356214776
51
125.088063286481
0
SPLINE
5
295
100
AcDbEntity
8
0
100
AcDbSpline
70
1064
71
2
72
6
73
3
74
0
42
0.000000001
43
0.0000000001
44
0.0000000001
40
0
40
0
40
0
40
0.27572341058905647
40
0.27572341058905647
40
0.27572341058905647
10
-31.737072131776721
20
-45.919130505597956
30
0
10
-32.195177696452888
20
-46.138085767869541
30
0
10
-32.676946866732564
20
-46.235315743542515
30
0
0
SPLINE
5
296
100
AcDbEntity
8
0
100
AcDbSpline
70
1064
71
3
72
12
73
8
74
0
42
0.000000001
43
0.0000000001
44
0.0000000001
40
0
40
0
40
0
40
0
40
0.00097578490170218367
40
0.0015994203825148426
40
0.0047695272047639289
40
0.0092166890272753141
40
0.015249367873886454
40
0.015249367873886454
40
0.015249367873886454
40
0.015249367873886454
10
-32.864023964946149
20
-46.268347651136622
30
0
10
-32.860017900872698
20
-46.267736899884156
30
0
10
-32.853451514652178
20
-46.266735810402125
30
0
10
-32.833880337723357
20
-46.263685472278702
30
0
10
-32.800097528156805
20
-46.258207503937562
30
0
10
-32.744241633775147
20
-46.248516314470891
30
0
10
-32.701532316411452
20
-46.240138436101653
30
0
10
-32.6769468667326
20
-46.235315743542351
30
0
0
ARC
5
297
100
AcDbEntity
8
0
100
AcDbCircle
10
-25.920000000000002
20
-41.28999939872952
30
0
40
8.5442038919923995
100
AcDbArc
50
211.8622763962376
51
215.63770606613318
0
SPLINE
5
298
100
AcDbEntity
8
0
100
AcDbSpline
70
1064
71
3
72
12
73
8
74
0
42
0.000000001
43
0.0000000001
44
0.0000000001
40
0
40
0
40
0
40
0
40
0.0060263164866891632
40
0.010475448436663735
40
0.013646988327530021
40
0.014273584470956129
40
0.01524936809976386
40
0.01524936809976386
40
0.01524936809976386
40
0.01524936809976386
10
-33.074649503555477
20
-45.640111488244237
30
0
10
-33.088499025950064
20
-45.660957831350458
30
0
10
-33.112573426628693
20
-45.697194692256232
30
0
10
-33.14289631611058
20
-45.745079233850433
30
0
10
-33.160899657030257
20
-45.77421642333487
30
0
10
-33.171216950290841
20
-45.791146041343261
30
0
10
-33.174661047754206
20
-45.796840004800188
30
0
10
-33.176758361998331
20
-45.800307395253192
30
0
0
SPLINE
5
299
100
AcDbEntity
8
0
100
AcDbSpline
70
1064
71
2
72
6
73
3
74
0
42
0.000000001
43
0.0000000001
44
0.0000000001
40
0.72427658941065443
40
0.72427658941065443
40
0.72427658941065443
40
1
40
1
40
1
10
-33.074649503555513
20
-45.640111488244209
30
0
10
-32.800455514539479
20
-45.232223197177497
30
0
10
-32.422857715411048
20
-44.892779509126591
30
0
0
ARC
5
300
100
AcDbEntity
8
0
100
AcDbCircle
10
-32.589381206150676
20
-44.630501091783941
30
0
40
0.31067674707301901
100
AcDbArc
50
-57.588080824744615
51
26.604975105520197
0
ARC
5
301
100
AcDbEntity
8
0
100
AcDbCircle
10
-25.920000000000002
20
-41.28999939872952
30
0
40
7.1485187346292376
100
AcDbArc
50
205.89500735658217
51
206.60497510589309
0
ARC
5
302
100
AcDbEntity
8
0
100
AcDbCircle
10
-32.630261207207411
20
-44.547604618103769
30
0
40
0.3106767470729922
100
AcDbArc
50
25.895007356213124
51
110.08806328648323
0
SPLINE
5
303
100
AcDbEntity
8
0
100
AcDbSpline
70
1064
71
2
72
6
73
3
74
0
42
0.000000001
43
0.0000000001
44
0.0000000001
40
0
40
0
40
0
40
0.27572341058905675
40
0.27572341058905675
40
0.27572341058905675
10
-32.736967498193252
20
-44.255827633686039
30
0
10
-33.236133286182039
20
-44.348755731510423
30
0
10
-33.726651539524035
20
-44.317981639490789
30
0
0
SPLINE
5
304
100
AcDbEntity
8
0
100
AcDbSpline
70
1064
71
3
72
12
73
8
74
0
42
0.000000001
43
0.0000000001
44
0.0000000001
40
0
40
0
40
0
40
0
40
0.00097578490170497029
40
0.0015994203825149746
40
0.0047695272047638534
40
0.0092166890272754286
40
0.015249367873886205
40
0.015249367873886205
40
0.015249367873886205
40
0.015249367873886205
10
-33.915903426977174
20
-44.301468896207339
30
0
10
-33.911875792170882
20
-44.301915801477264
30
0
10
-33.90527404911132
20
-44.302648329103519
30
0
10
-33.885580258264525
20
-44.30476732205544
30
0
10
-33.851530767484476
20
-44.308219645472029
30
0
10
-33.795069852147066
20
-44.313315244525924
30
0
10
-33.75164746500279
20
-44.316276820176618
30
0
10
-33.726651539524035
20
-44.317981639490625
30
0
0
ARC
5
305
100
AcDbEntity
8
0
100
AcDbCircle
10
-25.920000000000002
20
-41.28999939872952
30
0
40
8.5442038919805103
100
AcDbArc
50
196.86227639621364
51
200.63770606611448
0
SPLINE
5
306
100
AcDbEntity
8
0
100
AcDbSpline
70
1064
71
3
72
12
73
8
74
0
42
0.000000001
43
0.0000000001
44
0.0000000001
40
0
40
0
40
0
40
0
40
0.0060263164866891233
40
0.010475448436663946
40
0.01364698832752948
40
0.014273584470954476
40
0.015249368099764007
40
0.015249368099764007
40
0.015249368099764007
40
0.015249368099764007
10
-33.956752590617285
20
-43.64012546068377
30
0
10
-33.975525632596614
20
-43.656676961712471
30
0
10
-34.008158507701694
20
-43.68544816812993
30
0
10
-34.04984160111055
20
-43.723852942235339
30
0
10
-34.074772752623687
20
-43.747337698558354
30
0
10
-34.089120200208328
20
-43.761020141832098
30
0
10
-34.093920649081248
20
-43.765628690172392
30
0
10
-34.096843925761526
20
-43.768435107290827
30
0
0
SPLINE
5
307
100
AcDbEntity
8
0
100
AcDbSpline
70
1064
71
2
72
6
73
3
74
0
42
0.000000001
43
0.0000000001
44
0.0000000001
40
0.72427658941065465
40
0.72427658941065465
40
0.72427658941065465
40
1
40
1
40
1
10
-33.956752590617299
20
-43.640125460683741
30
0
10
-33.586332277211149
20
-43.317102252511461
30
0
10
-33.133746319875648
20
-43.086954329455523
30
0
0
ARC
5
308
100
AcDbEntity
8
0
100
AcDbCircle
10
-33.226713010737249
20
-42.79051338160567
30
0
40
0.31067674707303272
100
AcDbArc
50
-72.58808082474394
51
11.604975105524579
0
ARC
5
309
100
AcDbEntity
8
0
100
AcDbCircle
10
-25.920000000000002
20
-41.28999939872952
30
0
40
7.1485187346177748
100
AcDbArc
50
190.8950073565438
51
191.60497510585571
0
ARC
5
310
100
AcDbEntity
8
0
100
AcDbCircle
10
-33.244744873376384
20
-42.699861013932406
30
0
40
0.31067674707299942
100
AcDbArc
50
10.895007356214567
51
95.088063286484612
0
SPLINE
5
311
100
AcDbEntity
8
0
100
AcDbSpline
70
1064
71
2
72
6
73
3
74
0
42
0.000000001
43
0.0000000001
44
0.0000000001
40
0
40
0
40
0
40
0.27572341058905647
40
0.27572341058905647
40
0.27572341058905647
10
-33.272297795177252
20
-42.390408468827196
30
0
10
-33.77850648293763
20
-42.350976505908584
30
0
10
-34.244345810996457
20
-42.194295549710873
30
0
0
SPLINE
5
312
100
AcDbEntity
8
0
100
AcDbSpline
70
1064
71
3
72
12
73
8
74
0
42
0.000000001
43
0.0000000001
44
0.0000000001
40
0
40
0
40
0
40
0
40
0.00097578490170658564
40
0.0015994203825150811
40
0.004769527204763804
40
0.0092166890272752117
40
0.015249367873886307
40
0.015249367873886307
40
0.015249367873886307
40
0.015249367873886307
10
-34.422875284312752
20
-42.129363471716047
30
0
10
-34.419100555429701
20
-42.130837577652763
30
0
10
-34.412913353410637
20
-42.133253801840127
30
0
10
-34.394439047946641
20
-42.140397719999513
30
0
10
-34.362443292480236
20
-42.152545065038225
30
0
10
-34.309225074261278
20
-42.172080195958046
30
0
10
-34.268048781261406
20
-42.186179399142304
30
0
10
-34.2443458109964
20
-42.194295549710731
30
0
0
ARC
5
313
100
AcDbEntity
8
0
100
AcDbCircle
10
-25.920000000000002
20
-41.28999939872952
30
0
40
8.5442038919699481
100
AcDbArc
50
181.86227639616979
51
185.63770606607551
0
SPLINE
5
314
100
AcDbEntity
8
0
100
AcDbSpline
70
1064
71
3
72
12
73
8
74
0
42
0.000000001
43
0.0000000001
44
0.0000000001
40
0
40
0
40
0
40
0
40
0.0060263164866890592
40
0.010475448436663827
40
0.013646988327529622
40
0.014273584470946827
40
0.015249368099763735
40
0.015249368099763735
40
0.015249368099763735
40
0.015249368099763735
10
-34.291164269988002
20
-41.47998222577052
30
0
10
-34.313581479765098
20
-41.491110927279223
30
0
10
-34.352548952786577
20
-41.510455769037705
30
0
10
-34.402751616191154
20
-41.536763553765923
30
0
10
-34.432911561522779
20
-41.552995429594468
30
0
10
-34.450311408588902
20
-41.562498262235799
30
0
10
-34.456141066213767
20
-41.565707330506044
30
0
10
-34.459691088855429
20
-41.567661521601131
30
0
0
SPLINE
5
315
100
AcDbEntity
8
0
100
AcDbSpline
70
1064
71
2
72
6
73
3
74
0
42
0.000000001
43
0.0000000001
44
0.0000000001
40
0.7242765894106542
40
0.7242765894106542
40
0.7242765894106542
40
1
40
1
40
1
10
-34.291164269988023
20
-41.479982225770499
30
0
10
-33.849761164401826
20
-41.263837598308484
30
0
10
-33.353030033918046
20
-41.158669640866357
30
0
0
ARC
5
316
100
AcDbEntity
8
0
100
AcDbCircle
10
-33.3661043985541
20
-40.84826812321343
30
0
40
0.31067674707302617
100
AcDbArc
50
272.41191917525435
51
356.60497510552369
0
ARC
5
317
100
AcDbEntity
8
0
100
AcDbCircle
10
-25.920000000000002
20
-41.28999939872952
30
0
40
7.1485187346079542
100
AcDbArc
50
175.89500735648329
51
176.604975105796
0
ARC
5
318
100
AcDbEntity
8
0
100
AcDbCircle
10
-33.360059281135868
20
-40.756037670593884
30
0
40
0.31067674707300152
100
AcDbArc
50
-4.1049926437921469
51
80.088063286484825
0
SPLINE
5
319
100
AcDbEntity
8
0
100
AcDbSpline
70
1064
71
2
72
6
73
3
74
0
42
0.000000001
43
0.0000000001
44
0.0000000001
40
0
40
0
40
0
40
0.27572341058905647
40
0.27572341058905647
40
0.27572341058905647
10
-33.306581147664389
20
-40.449998244355598
30
0
10
-33.785335449674896
20
-40.280893443802491
30
0
10
-34.194749672079247
20
-40.00898317166407
30
0
0
SPLINE
5
320
100
AcDbEntity
8
0
100
AcDbSpline
70
1064
71
3
72
12
73
8
74
0
42
0.000000001
43
0.0000000001
44
0.0000000001
40
0
40
0
40
0
40
0
40
0.0009757849016853678
40
0.0015994203825152064
40
0.0047695272047643331
40
0.0092166890272758293
40
0.015249367873886558
40
0.015249367873886558
40
0.015249367873886558
40
0.015249367873886558
10
-34.350390242686053
20
-39.900056772767876
30
0
10
-34.347125661261686
20
-39.902457621487805
30
0
10
-34.341774647875958
20
-39.906392880550911
30
0
10
-34.325778821181821
20
-39.918074877701095
30
0
10
-34.298017258888571
20
-39.938089422872032
30
0
10
-34.251668471412373
20
-39.970732798768907
30
0
10
-34.215544368877843
20
-39.99500879208977
30
0
10
-34.194749672079141
20
-40.008983171663949
30
0
0
ARC
5
321
100
AcDbEntity
8
0
100
AcDbCircle
10
-25.920000000000002
20
-41.28999939872952
30
0
40
8.5442038919614323
100
AcDbArc
50
166.86227639610934
51
170.63770606601886
0
SPLINE
5
322
100
AcDbEntity
8
0
100
AcDbSpline
70
1064
71
3
72
12
73
8
74
0
42
0.000000001
43
0.0000000001
44
0.0000000001
40
0
40
0
40
0
40
0
40
0.0060263164866889507
40
0.010475448436663641
40
0.013646988327529712
40
0.014273584470968144
40
0.015249368099763705
40
0.015249368099763705
40
0.015249368099763705
40
0.015249368099763705
10
-34.055094938359993
20
-39.306891975158329
30
0
10
-34.079628620134741
20
-39.311839474530281
30
0
10
-34.122275122182984
20
-39.320439632632791
30
0
10
-34.177576127036076
20
-39.332857595930257
30
0
10
-34.210909515753613
20
-39.340730415751111
30
0
10
-34.230175991478255
20
-39.345406035419693
30
0
10
-34.236637576321918
20
-39.346996930920497
30
0
10
-34.240572416748513
20
-39.347965721098525
30
0
0
SPLINE
5
323
100
AcDbEntity
8
0
100
AcDbSpline
70
1064
71
2
72
6
73
3
74
0
42
0.000000001
43
0.0000000001
44
0.0000000001
40
0.7242765894106542
40
0.7242765894106542
40
0.7242765894106542
40
1
40
1
40
1
10
-34.055094938359993
20
-39.306891975158294
30
0
10
-33.572789932786328
20
-39.212355827572232
30
0
10
-33.065765034809715
20
-39.239334858245314
30
0
0
ARC
5
324
100
AcDbEntity
8
0
100
AcDbCircle
10
-32.998056076876708
20
-38.936126121254603
30
0
40
0.31067674707302345
100
AcDbArc
50
257.4119191752564
51
341.60497510552295
0
ARC
5
325
100
AcDbEntity
8
0
100
AcDbCircle
10
-25.920000000000002
20
-41.28999939872952
30
0
40
7.148518734600434
100
AcDbArc
50
160.89500735640394
51
161.60497510571767
0
ARC
5
326
100
AcDbEntity
8
0
100
AcDbCircle
10
-32.968345944163133
20
-38.848602936616771
30
0
40
0.31067674707300952
100
AcDbArc
50
-19.104992643784545
51
65.088063286479937
0
SPLINE
5
327
100
AcDbEntity
8
0
100
AcDbSpline
70
1064
71
2
72
6
73
3
74
0
42
0.000000001
43
0.0000000001
44
0.0000000001
40
0
40
0
40
0
40
0.27572341058905647
40
0.27572341058905647
40
0.27572341058905647
10
-32.837481201838543
20
-38.566832710389477
30
0
10
-33.256154803596118
20
-38.279579284900692
30
0
10
-33.581243017678098
20
-37.910969932514824
30
0
0
SPLINE
5
328
100
AcDbEntity
8
0
100
AcDbSpline
70
1064
71
3
72
12
73
8
74
0
42
0.000000001
43
0.0000000001
44
0.0000000001
40
0
40
0
40
0
40
0
40
0.00097578490168729508
40
0.0015994203825150095
40
0.0047695272047637667
40
0.0092166890272753106
40
0.015249367873886198
40
0.015249367873886198
40
0.015249367873886198
40
0.015249367873886198
10
-33.703388037896829
20
-37.765472366792636
30
0
10
-33.70085607976015
20
-37.768636344423157
30
0
10
-33.696705917726987
20
-37.773822456960183
30
0
10
-33.684278658957545
20
-37.789246424300785
30
0
10
-33.662643194429684
20
-37.815764211426099
30
0
10
-33.626322430967825
20
-37.859291240178401
30
0
10
-33.597712316788375
20
-37.89208965480902
30
0
10
-33.581243017677977
20
-37.910969932514725
30
0
0
ARC
5
329
100
AcDbEntity
8
0
100
AcDbCircle
10
-25.920000000000002
20
-41.28999939872952
30
0
40
8.544203891955565
100
AcDbArc
50
151.86227639603604
51
155.63770606594832
0
SPLINE
5
330
100
AcDbEntity
8
0
100
AcDbSpline
70
1064
71
3
72
12
73
8
74
0
42
0.000000001
43
0.0000000001
44
0.0000000001
40
0
40
0
40
0
40
0
40
0.0060263164866890071
40
0.010475448436663863
40
0.013646988327530321
40
0.014273584470962697
40
0.015249368099763662
40
0.015249368099763662
40
0.015249368099763662
40
0.015249368099763662
10
-33.264632330560644
20
-37.268947218224994
30
0
10
-33.289610554463927
20
-37.26737635155412
30
0
10
-33.333029796901037
20
-37.264645739438407
30
0
10
-33.389660471111149
20
-37.262327617628053
30
0
10
-33.423895687859407
20
-37.261304861780843
30
0
10
-33.44371581376133
20
-37.260834632723089
30
0
10
-33.450368979494939
20
-37.260698938555159
30
0
10
-33.454420484834102
20
-37.260616306366529
30
0
0
SPLINE
5
331
100
AcDbEntity
8
0
100
AcDbSpline
70
1064
71
2
72
6
73
3
74
0
42
0.000000001
43
0.0000000001
44
0.0000000001
40
0.72427658941065409
40
0.72427658941065409
40
0.72427658941065409
40
1
40
1
40
1
10
-33.264632330560644
20
-37.268947218224959
30
0
10
-32.774293714082646
20
-37.302462032744444
30
0
10
-32.291527957512052
20
-37.459749475177333
30
0
0
ARC
5
332
100
AcDbEntity
8
0
100
AcDbCircle
10
-32.14764993059876
20
-37.184396693198622
30
0
40
0.31067674707303006
100
AcDbArc
50
242.411919175256
51
326.60497510550726
0
ARC
5
333
100
AcDbEntity
8
0
100
AcDbCircle
10
-25.920000000000002
20
-41.28999939872952
30
0
40
7.1485187345957346
100
AcDbArc
50
145.89500735631205
51
146.60497510562689
0
ARC
5
334
100
AcDbEntity
8
0
100
AcDbCircle
10
-32.096299479035942
20
-37.107545336936674
30
0
40
0.3106767470729912
100
AcDbArc
50
-34.104992643786723
51
50.088063286481209
0
SPLINE
5
335
100
AcDbEntity
8
0
100
AcDbSpline
70
1064
71
2
72
6
73
3
74
0
42
0.000000001
43
0.0000000001
44
0.0000000001
40
0
40
0
40
0
40
0.27572341058905631
40
0.27572341058905631
40
0.27572341058905631
10
-31.896966343783497
20
-36.869246485990459
30
0
10
-32.227027331219162
20
-36.4834202818043
30
0
10
-32.445635312422752
20
-36.043231967380308
30
0
0
SPLINE
5
336
100
AcDbEntity
8
0
100
AcDbSpline
70
1064
71
3
72
12
73
8
74
0
42
0.000000001
43
0.0000000001
44
0.0000000001
40
0
40
0
40
0
40
0
40
0.00097578490168098893
40
0.0015994203825149419
40
0.0047695272047638907
40
0.0092166890272751129
40
0.015249367873886319
40
0.015249367873886319
40
0.015249367873886319
40
0.015249367873886319
10
-32.525960800979689
20
-35.871078653490031
30
0
10
-32.524334014893441
20
-35.874790140184302
30
0
10
-32.52166753089692
20
-35.880873681196299
30
0
10
-32.513655737200359
20
-35.898988500842378
30
0
10
-32.49962079159112
20
-35.93020238655221
30
0
10
-32.475803252150605
20
-35.981646773082289
30
0
10
-32.4566568583272
20
-36.020732451267534
30
0
10
-32.44563531242261
20
-36.043231967380251
30
0
0
ARC
5
337
100
AcDbEntity
8
0
100
AcDbCircle
10
-25.920000000000002
20
-41.28999939872952
30
0
40
8.544203891952721
100
AcDbArc
50
136.86227639595506
51
140.63770606586883
0
SPLINE
5
338
100
AcDbEntity
8
0
100
AcDbSpline
70
1064
71
3
72
12
73
8
74
0
42
0.000000001
43
0.0000000001
44
0.0000000001
40
0
40
0
40
0
40
0
40
0.0060263164866891233
40
0.01047544843666371
40
0.013646988327529964
40
0.014273584470938981
40
0.015249368099763903
40
0.015249368099763903
40
0.015249368099763903
40
0.015249368099763903
10
-31.973645167010247
20
-35.50503052229255
30
0
10
-31.997365708361542
20
-35.497048341546488
30
0
10
-32.038598741569125
20
-35.483173045915692
30
0
10
-32.092699798275419
20
-35.466276815168015
30
0
10
-32.125503769609345
20
-35.45642818277355
30
0
10
-32.144526836862582
20
-35.450844150322666
30
0
10
-32.150918181236314
20
-35.448991113819297
30
0
10
-32.154810248094698
20
-35.44786269051108
30
0
0
SPLINE
5
339
100
AcDbEntity
8
0
100
AcDbSpline
70
1064
71
2
72
6
73
3
74
0
42
0.000000001
43
0.0000000001
44
0.0000000001
40
0.7242765894106542
40
0.7242765894106542
40
0.7242765894106542
40
1
40
1
40
1
10
-31.973645167010247
20
-35.505030522292522
30
0
10
-31.508688706018006
20
-35.664312319693913
30
0
10
-31.083081779355595
20
-35.941189294614588
30
0
0
ARC
5
340
100
AcDbEntity
8
0
100
AcDbCircle
10
-30.872839733226478
20
-35.712457304697743
30
0
40
0.31067674707303355
100
AcDbArc
50
227.41191917525632
51
311.60497510552386
0
ARC
5
341
100
AcDbEntity
8
0
100
AcDbCircle
10
-25.920000000000002
20
-41.28999939872952
30
0
40
7.1485187345941394
100
AcDbArc
50
130.89500735621328
51
131.60497510552759
0
ARC
5
342
100
AcDbEntity
8
0
100
AcDbCircle
10
-30.803348411227802
20
-35.651515069738046
30
0
40
0.31067674707300175
100
AcDbArc
50
-49.104992643787057
51
35.088063286479915
0
SPLINE
5
343
100
AcDbEntity
8
0
100
AcDbSpline
70
1064
71
2
72
6
73
3
74
0
42
0.000000001
43
0.0000000001
44
0.0000000001
40
0
40
0
40
0
40
0.27572341058905608
40
0.27572341058905608
40
0.27572341058905608
10
-30.549131106801354
20
-35.47292726695742
30
0
10
-30.76808636907294
20
-35.014821702281239
30
0
10
-30.865316344745921
20
-34.53305253200157
30
0
0
SPLINE
5
344
100
AcDbEntity
8
0
100
AcDbSpline
70
1064
71
3
72
12
73
8
74
0
42
0.000000001
43
0.0000000001
44
0.0000000001
40
0
40
0
40
0
40
0
40
0.00097578490171867721
40
0.0015994203825147248
40
0.0047695272047640399
40
0.0092166890272750678
40
0.01524936787388613
40
0.01524936787388613
40
0.01524936787388613
40
0.01524936787388613
10
-30.898348252340028
20
-34.345975433787984
30
0
10
-30.897737501087576
20
-34.349981497861492
30
0
10
-30.896736411605524
20
-34.356547884082019
30
0
10
-30.893686073482101
20
-34.37611906101084
30
0
10
-30.888208105140976
20
-34.409901870577308
30
0
10
-30.878516915674325
20
-34.465757764958994
30
0
10
-30.870139037305073
20
-34.508467082322682
30
0
10
-30.865316344745757
20
-34.533052532001534
30
0
0
ARC
5
345
100
AcDbEntity
8
0
100
AcDbCircle
10
-25.920000000000002
20
-41.28999939872952
30
0
40
8.5442038919530958
100
AcDbArc
50
121.86227639587193
51
125.63770606578562
0
SPLINE
5
346
100
AcDbEntity
8
0
100
AcDbSpline
70
1064
71
3
72
12
73
8
74
0
42
0.000000001
43
0.0000000001
44
0.0000000001
40
0
40
0
40
0
40
0
40
0.0060263164866890557
40
0.010475448436663794
40
0.013646988327529752
40
0.01427358447096006
40
0.015249368099763906
40
0.015249368099763906
40
0.015249368099763906
40
0.015249368099763906
10
-30.270112089447643
20
-34.135349895178649
30
0
10
-30.290958432553865
20
-34.12150037278407
30
0
10
-30.327195293459638
20
-34.097425972105427
30
0
10
-30.375079835053846
20
-34.067103082623547
30
0
10
-30.404217024538298
20
-34.049099741703841
30
0
10
-30.42114664254666
20
-34.0387824484433
30
0
10
-30.426840606003609
20
-34.035338350979899
30
0
10
-30.430307996456605
20
-34.033241036735788
30
0
0
SPLINE
5
347
100
AcDbEntity
8
0
100
AcDbSpline
70
1064
71
2
72
6
73
3
74
0
42
0.000000001
43
0.0000000001
44
0.0000000001
40
0.7242765894106542
40
0.7242765894106542
40
0.7242765894106542
40
1
40
1
40
1
10
-30.270112089447643
20
-34.135349895178628
30
0
10
-29.862223798380903
20
-34.409543884194626
30
0
10
-29.522780110330011
20
-34.787141683323085
30
0
0
ARC
5
348
100
AcDbEntity
8
0
100
AcDbCircle
10
-29.260501692987361
20
-34.620618192583443
30
0
40
0.31067674707302889
100
AcDbArc
50
212.41191917525688
51
296.60497510552369
0
ARC
5
349
100
AcDbEntity
8
0
100
AcDbCircle
10
-25.920000000000002
20
-41.28999939872952
30
0
40
7.1485187345957915
100
AcDbArc
50
115.89500735611472
51
116.60497510542885
0
ARC
5
350
100
AcDbEntity
8
0
100
AcDbCircle
10
-29.177605219307196
20
-34.579738191526729
30
0
40
0.31067674707300397
100
AcDbArc
50
-64.104992643783319
51
20.088063286483091
0
SPLINE
5
351
100
AcDbEntity
8
0
100
AcDbSpline
70
1064
71
2
72
6
73
3
74
0
42
0.000000001
43
0.0000000001
44
0.0000000001
40
0
40
0
40
0
40
0.27572341058905653
40
0.27572341058905653
40
0.27572341058905653
10
-28.885828234889452
20
-34.473031900540875
30
0
10
-28.978756332713822
20
-33.973866112552116
30
0
10
-28.947982240694181
20
-33.483347859210106
30
0
0
SPLINE
5
352
100
AcDbEntity
8
0
100
AcDbSpline
70
1064
71
3
72
12
73
8
74
0
42
0.000000001
43
0.0000000001
44
0.0000000001
40
0
40
0
40
0
40
0
40
0.00097578490171177485
40
0.0015994203825149774
40
0.0047695272047639636
40
0.0092166890272754234
40
0.015249367873886416
40
0.015249367873886416
40
0.015249367873886416
40
0.015249367873886416
10
-28.931469497410738
20
-33.29409597175696
30
0
10
-28.93191640268067
20
-33.298123606563273
30
0
10
-28.932648930306925
20
-33.304725349622863
30
0
10
-28.934767923258839
20
-33.324419140469629
30
0
10
-28.938220246675421
20
-33.358468631249671
30
0
10
-28.943315845729323
20
-33.414929546587089
30
0
10
-28.946277421380017
20
-33.458351933731358
30
0
10
-28.947982240694017
20
-33.483347859210113
30
0
0
ARC
5
353
100
AcDbEntity
8
0
100
AcDbCircle
10
-25.920000000000002
20
-41.28999939872952
30
0
40
8.544203891956645
100
AcDbArc
50
106.86227639579219
51
110.63770606570441
0
SPLINE
5
354
100
AcDbEntity
8
0
100
AcDbSpline
70
1064
71
3
72
12
73
8
74
0
42
0.000000001
43
0.0000000001
44
0.0000000001
40
0
40
0
40
0
40
0
40
0.0060263164866893723
40
0.010475448436663957
40
0.01364698832752979
40
0.014273584470950116
40
0.015249368099763825
40
0.015249368099763825
40
0.015249368099763825
40
0.015249368099763825
10
-28.270126061887176
20
-33.253246808116856
30
0
10
-28.286677562915862
20
-33.234473766137519
30
0
10
-28.315448769333329
20
-33.20184089103244
30
0
10
-28.353853543438767
20
-33.16015779762359
30
0
10
-28.377338299761725
20
-33.135226646110468
30
0
10
-28.391020743035497
20
-33.120879198525813
30
0
10
-28.395629291375791
20
-33.116078749652907
30
0
10
-28.39843570849424
20
-33.113155472972608
30
0
0
SPLINE
5
355
100
AcDbEntity
8
0
100
AcDbSpline
70
1064
71
2
72
6
73
3
74
0
42
0.000000001
43
0.0000000001
44
0.0000000001
40
0.7242765894106542
40
0.7242765894106542
40
0.7242765894106542
40
1
40
1
40
1
10
-28.270126061887161
20
-33.253246808116835
30
0
10
-27.947102853714874
20
-33.623667121522992
30
0
10
-27.716954930658922
20
-34.076253078858485
30
0
0
ARC
5
356
100
AcDbEntity
8
0
100
AcDbCircle
10
-27.420513982809062
20
-33.983286387996891
30
0
40
0.31067674707303139
100
AcDbArc
50
197.41191917525518
51
281.60497510552244
0
ARC
5
357
100
AcDbEntity
8
0
100
AcDbCircle
10
-25.920000000000002
20
-41.28999939872952
30
0
40
7.1485187346005761
100
AcDbArc
50
100.89500735602294
51
101.60497510533652
0
ARC
5
358
100
AcDbEntity
8
0
100
AcDbCircle
10
-27.329861615135805
20
-33.96525452535775
30
0
40
0.31067674707299336
100
AcDbArc
50
-79.104992643787739
51
5.0880632864806614
0
SPLINE
5
359
100
AcDbEntity
8
0
100
AcDbSpline
70
1064
71
2
72
6
73
3
74
0
42
0.000000001
43
0.0000000001
44
0.0000000001
40
0
40
0
40
0
40
0.27572341058905642
40
0.27572341058905642
40
0.27572341058905642
10
-27.020409070030588
20
-33.937701603556903
30
0
10
-26.980977107111983
20
-33.431492915796511
30
0
10
-26.824296150914265
20
-32.965653587737677
30
0
0
SPLINE
5
360
100
AcDbEntity
8
0
100
AcDbSpline
70
1064
71
3
72
12
73
8
74
0
42
0.000000001
43
0.0000000001
44
0.0000000001
40
0
40
0
40
0
40
0
40
0.00097578490172598169
40
0.0015994203825147454
40
0.0047695272047637693
40
0.0092166890272751684
40
0.015249367873885858
40
0.015249367873885858
40
0.015249367873885858
40
0.015249367873885858
10
-26.759364072919432
20
-32.787124114421395
30
0
10
-26.760838178856183
20
-32.790898843304497
30
0
10
-26.76325440304354
20
-32.797086045323553
30
0
10
-26.770398321202926
20
-32.815560350787578
30
0
10
-26.782545666241624
20
-32.84755610625389
30
0
10
-26.802080797161423
20
-32.900774324472856
30
0
10
-26.816180000345689
20
-32.941950617472727
30
0
10
-26.824296150914122
20
-32.965653587737727
30
0
0
ARC
5
361
100
AcDbEntity
8
0
100
AcDbCircle
10
-25.920000000000002
20
-41.28999939872952
30
0
40
8.5442038919631642
100
AcDbArc
50
91.862276395720897
51
95.637706065630837
0
SPLINE
5
362
100
AcDbEntity
8
0
100
AcDbSpline
70
1064
71
3
72
12
73
8
74
0
42
0.000000001
43
0.0000000001
44
0.0000000001
40
0
40
0
40
0
40
0
40
0.0060263164866889308
40
0.010475448436663582
40
0.013646988327529787
40
0.014273584470926354
40
0.015249368099763818
40
0.015249368099763818
40
0.015249368099763818
40
0.015249368099763818
10
-26.109982826973848
20
-32.918835128746124
30
0
10
-26.121111528482579
20
-32.896417918969014
30
0
10
-26.140456370241026
20
-32.857450445947542
30
0
10
-26.166764154969265
20
-32.807247782542973
30
0
10
-26.182996030797739
20
-32.777087837211411
30
0
10
-26.192498863439091
20
-32.759687990145295
30
0
10
-26.195707931709336
20
-32.75385833252043
30
0
10
-26.197662122804466
20
-32.750308309878697
30
0
0
SPLINE
5
363
100
AcDbEntity
8
0
100
AcDbSpline
70
1064
71
2
72
6
73
3
74
0
42
0.000000001
43
0.0000000001
44
0.0000000001
40
0.72427658941065443
40
0.72427658941065443
40
0.72427658941065443
40
1
40
1
40
1
10
-26.109982826973834
20
-32.918835128746103
30
0
10
-25.893838199511848
20
-33.360238234332321
30
0
10
-25.788670242069706
20
-33.856969364816102
30
0
0
ARC
5
364
100
AcDbEntity
8
0
100
AcDbCircle
10
-25.478268724416793
20
-33.843895000180041
30
0
40
0.3106767470730088
100
AcDbArc
50
182.41191917525566
51
266.60497510552347
0
ARC
5
365
100
AcDbEntity
8
0
100
AcDbCircle
10
-25.920000000000002
20
-41.28999939872952
30
0
40
7.1485187346081531
100
AcDbArc
50
85.895007355943847
51
86.60497510525677
0
ARC
5
366
100
AcDbEntity
8
0
100
AcDbCircle
10
-25.386038271797247
20
-33.84994011759828
30
0
40
0.31067674707299076
100
AcDbArc
50
265.89500735621294
51
350.08806328648296
0
SPLINE
5
367
100
AcDbEntity
8
0
100
AcDbSpline
70
1064
71
2
72
6
73
3
74
0
42
0.000000001
43
0.0000000001
44
0.0000000001
40
0
40
0
40
0
40
0.27572341058905653
40
0.27572341058905653
40
0.27572341058905653
10
-25.079998845558961
20
-33.903418251069787
30
0
10
-24.910894045005854
20
-33.424663949059251
30
0
10
-24.638983772867434
20
-33.015249726654915
30
0
0
SPLINE
5
368
100
AcDbEntity
8
0
100
AcDbSpline
70
1064
71
3
72
12
73
8
74
0
42
0.000000001
43
0.0000000001
44
0.0000000001
40
0
40
0
40
0
40
0
40
0.00097578490172047514
40
0.0015994203825147497
40
0.0047695272047638447
40
0.0092166890272752898
40
0.015249367873886003
40
0.015249367873886003
40
0.015249367873886003
40
0.015249367873886003
10
-24.530057373971246
20
-32.859609156048066
30
0
10
-24.532458222691254
20
-32.862873737472562
30
0
10
-24.536393481754352
20
-32.868224750858303
30
0
10
-24.548075478904543
20
-32.884220577552455
30
0
10
-24.568090024075381
20
-32.91198213984557
30
0
10
-24.600733399972292
20
-32.958330927321747
30
0
10
-24.625009393293126
20
-32.994455029856304
30
0
10
-24.638983772867292
20
-33.015249726655
30
0
0
ARC
5
369
100
AcDbEntity
8
0
100
AcDbCircle
10
-25.920000000000002
20
-41.28999939872952
30
0
40
8.5442038919721917
100
AcDbArc
50
76.862276395664225
51
80.637706065569773
0
SPLINE
5
370
100
AcDbEntity
8
0
100
AcDbSpline
70
1064
71
3
72
12
73
8
74
0
42
0.000000001
43
0.0000000001
44
0.0000000001
40
0
40
0
40
0
40
0
40
0.0060263164866885899
40
0.010475448436663506
40
0.013646988327529565
40
0.014273584470972028
40
0.015249368099763558
40
0.015249368099763558
40
0.015249368099763558
40
0.015249368099763558
10
-23.93689257636175
20
-33.154904460374162
30
0
10
-23.941840075733694
20
-33.130370778599399
30
0
10
-23.950440233836197
20
-33.087724276551143
30
0
10
-23.96285819713367
20
-33.032423271698057
30
0
10
-23.970731016954517
20
-32.999089882980506
30
0
10
-23.975406636623127
20
-32.979823407255857
30
0
10
-23.976997532123924
20
-32.973361822412194
30
0
10
-23.977966322301924
20
-32.969426981985634
30
0
0
SPLINE
5
371
100
AcDbEntity
8
0
100
AcDbSpline
70
1064
71
2
72
6
73
3
74
0
42
0.000000001
43
0.0000000001
44
0.0000000001
40
0.72427658941065443
40
0.72427658941065443
40
0.72427658941065443
40
1
40
1
40
1
10
-23.936892576361728
20
-33.154904460374155
30
0
10
-23.842356428775638
20
-33.637209465947826
30
0
10
-23.869335459448735
20
-34.144234363924426
30
0
0
ARC
5
372
100
AcDbEntity
8
0
100
AcDbCircle
10
-23.566126722458016
20
-34.211943321857447
30
0
40
0.310676747073035
100
AcDbArc
50
167.41191917525421
51
251.60497510552088
0
ARC
5
373
100
AcDbEntity
8
0
100
AcDbCircle
10
-25.920000000000002
20
-41.28999939872952
30
0
40
7.1485187346180084
100
AcDbArc
50
70.895007355883877
51
71.604975105195962
0
ARC
5
374
100
AcDbEntity
8
0
100
AcDbCircle
10
-23.478603537820206
20
-34.241653454571029
30
0
40
0.31067674707299825
100
AcDbArc
50
250.89500735621752
51
335.08806328648177
0
SPLINE
5
375
100
AcDbEntity
8
0
100
AcDbSpline
70
1064
71
2
72
6
73
3
74
0
42
0.000000001
43
0.0000000001
44
0.0000000001
40
0
40
0
40
0
40
0.27572341058905653
40
0.27572341058905653
40
0.27572341058905653
10
-23.196833311592904
20
-34.372518196895619
30
0
10
-22.90957988610409
20
-33.953844595138044
30
0
10
-22.54097053371823
20
-33.628756381056071
30
0
0
SPLINE
5
376
100
AcDbEntity
8
0
100
AcDbSpline
70
1064
71
3
72
12
73
8
74
0
42
0.000000001
43
0.0000000001
44
0.0000000001
40
0
40
0
40
0
40
0
40
0.00097578490169862597
40
0.0015994203825150527
40
0.0047695272047641067
40
0.009216689027275465
40
0.01524936787388604
40
0.01524936787388604
40
0.01524936787388604
40
0.01524936787388604
10
-22.395472967996064
20
-33.506611360837319
30
0
10
-22.39863694562662
20
-33.509143318974054
30
0
10
-22.403823058163638
20
-33.513293481007224
30
0
10
-22.419247025504234
20
-33.525720739776645
30
0
10
-22.445764812629527
20
-33.547356204304471
30
0
10
-22.489291841381814
20
-33.583676967766337
30
0
10
-22.522090256012454
20
-33.612287081945759
30
0
10
-22.540970533718109
20
-33.628756381056185
30
0
0
ARC
5
377
100
AcDbEntity
8
0
100
AcDbCircle
10
-25.920000000000002
20
-41.28999939872952
30
0
40
8.5442038919831056
100
AcDbArc
50
61.862276395624903
51
65.637706065525904
0
SPLINE
5
378
100
AcDbEntity
8
0
100
AcDbSpline
70
1064
71
3
72
12
73
8
74
0
42
0.000000001
43
0.0000000001
44
0.0000000001
40
0
40
0
40
0
40
0
40
0.0060263164866888866
40
0.010475448436663641
40
0.013646988327529766
40
0.014273584470940593
40
0.01524936809976388
40
0.01524936809976388
40
0.01524936809976388
40
0.01524936809976388
10
-21.898947819428393
20
-33.945367068173525
30
0
10
-21.897376952757533
20
-33.920388844270228
30
0
10
-21.894646340641827
20
-33.87696960183311
30
0
10
-21.89232821883148
20
-33.820338927623006
30
0
10
-21.891305462984214
20
-33.786103710874826
30
0
10
-21.890835233926495
20
-33.766283584972932
30
0
10
-21.890699539758558
20
-33.759630419239301
30
0
10
-21.890616907569942
20
-33.755578913900045
30
0
0
SPLINE
5
379
100
AcDbEntity
8
0
100
AcDbSpline
70
1064
71
2
72
6
73
3
74
0
42
0.000000001
43
0.0000000001
44
0.0000000001
40
0.72427658941065465
40
0.72427658941065465
40
0.72427658941065465
40
1
40
1
40
1
10
-21.898947819428372
20
-33.945367068173532
30
0
10
-21.932462633947843
20
-34.435705684651538
30
0
10
-22.089750076380746
20
-34.918471441222117
30
0
0
ARC
5
380
100
AcDbEntity
8
0
100
AcDbCircle
10
-21.814397294402042
20
-35.062349468135402
30
0
40
0.31067674707301807
100
AcDbArc
50
152.4119191752566
51
236.60497510552347
0
ARC
5
381
100
AcDbEntity
8
0
100
AcDbCircle
10
-25.920000000000002
20
-41.28999939872952
30
0
40
7.1485187346294925
100
AcDbArc
50
55.895007355845976
51
56.604975105156932
0
ARC
5
382
100
AcDbEntity
8
0
100
AcDbCircle
10
-21.737545938140073
20
-35.113699919698227
30
0
40
0.31067674707299986
100
AcDbArc
50
235.89500735621291
51
320.08806328648058
0
SPLINE
5
383
100
AcDbEntity
8
0
100
AcDbSpline
70
1064
71
2
72
6
73
3
74
0
42
0.000000001
43
0.0000000001
44
0.0000000001
40
0
40
0
40
0
40
0.27572341058905714
40
0.27572341058905714
40
0.27572341058905714
10
-21.499247087193865
20
-35.313033054950665
30
0
10
-21.113420883007727
20
-34.982972067515014
30
0
10
-20.673232568583735
20
-34.764364086311417
30
0
0
SPLINE
5
384
100
AcDbEntity
8
0
100
AcDbSpline
70
1064
71
3
72
12
73
8
74
0
42
0.000000001
43
0.0000000001
44
0.0000000001
40
0
40
0
40
0
40
0
40
0.00097578490168918344
40
0.0015994203825149744
40
0.0047695272047640243
40
0.0092166890272752933
40
0.015249367873886553
40
0.015249367873886553
40
0.015249367873886553
40
0.015249367873886553
10
-20.501079254693451
20
-34.68403859775448
30
0
10
-20.504790741387772
20
-34.68566538384075
30
0
10
-20.510874282399747
20
-34.688331867837249
30
0
10
-20.528989102045834
20
-34.696343661533824
30
0
10
-20.560202987755652
20
-34.710378607143042
30
0
10
-20.611647374285702
20
-34.734196146583571
30
0
10
-20.65073305247094
20
-34.753342540406976
30
0
10
-20.673232568583664
20
-34.764364086311559
30
0
0
ARC
5
385
100
AcDbEntity
8
0
100
AcDbCircle
10
-25.920000000000002
20
-41.28999939872952
30
0
40
8.5442038919951777
100
AcDbArc
50
46.862276395605555
51
50.637706065501362
0
SPLINE
5
386
100
AcDbEntity
8
0
100
AcDbSpline
70
1064
71
3
72
12
73
8
74
0
42
0.000000001
43
0.0000000001
44
0.0000000001
40
0
40
0
40
0
40
0
40
0.0060263164866890002
40
0.010475448436663693
40
0.013646988327529967
40
0.014273584470949346
40
0.015249368099763882
40
0.015249368099763882
40
0.015249368099763882
40
0.015249368099763882
10
-20.135031123495992
20
-35.236354231723908
30
0
10
-20.127048942749902
20
-35.212633690372634
30
0
10
-20.113173647119112
20
-35.171400657165044
30
0
10
-20.096277416371436
20
-35.117299600458729
30
0
10
-20.08642878397697
20
-35.084495629124774
30
0
10
-20.08084475152608
20
-35.065472561871537
30
0
10
-20.07899171502271
20
-35.05908121749782
30
0
10
-20.077863291714493
20
-35.055189150639478
30
0
0
SPLINE
5
387
100
AcDbEntity
8
0
100
AcDbSpline
70
1064
71
2
72
6
73
3
74
0
42
0.000000001
43
0.0000000001
44
0.0000000001
40
0.72427658941065409
40
0.72427658941065409
40
0.72427658941065409
40
1
40
1
40
1
10
-20.135031123495935
20
-35.236354231723929
30
0
10
-20.294312920897333
20
-35.701310692716156
30
0
10
-20.571189895818016
20
-36.126917619378567
30
0
0
ARC
5
388
100
AcDbEntity
8
0
100
AcDbCircle
10
-20.342457905901156
20
-36.337159665507684
30
0
40
0.31067674707304332
100
AcDbArc
50
137.41191917525768
51
221.6049751055244
0
ARC
5
389
100
AcDbEntity
8
0
100
AcDbCircle
10
-25.920000000000002
20
-41.28999939872952
30
0
40
7.148518734641776
100
AcDbArc
50
40.895007355833265
51
41.604975105142806
0
ARC
5
390
100
AcDbEntity
8
0
100
AcDbCircle
10
-20.281515670941481
20
-36.406650987506367
30
0
40
0.31067674707300996
100
AcDbArc
50
220.89500735621479
51
305.08806328648075
0
SPLINE
5
391
100
AcDbEntity
8
0
100
AcDbSpline
70
1064
71
2
72
6
73
3
74
0
42
0.000000001
43
0.0000000001
44
0.0000000001
40
0
40
0
40
0
40
0.27572341058905675
40
0.27572341058905675
40
0.27572341058905675
10
-20.102927868160847
20
-36.660868291932815
30
0
10
-19.644822303484652
20
-36.441913029661222
30
0
10
-19.16305313320499
20
-36.344683053988263
30
0
0
SPLINE
5
392
100
AcDbEntity
8
0
100
AcDbSpline
70
1064
71
3
72
12
73
8
74
0
42
0.000000001
43
0.0000000001
44
0.0000000001
40
0
40
0
40
0
40
0
40
0.00097578490169913663
40
0.0015994203825146151
40
0.0047695272047640217
40
0.0092166890272751874
40
0.015249367873886359
40
0.015249367873886359
40
0.015249367873886359
40
0.015249367873886359
10
-18.975976034991426
20
-36.311651146394155
30
0
10
-18.979982099064856
20
-36.312261897646593
30
0
10
-18.986548485285397
20
-36.313262987128638
30
0
10
-19.006119662214196
20
-36.316313325252054
30
0
10
-19.039902471780728
20
-36.321791293593208
30
0
10
-19.095758366162443
20
-36.331482483059872
30
0
10
-19.138467683526102
20
-36.33986036142911
30
0
10
-19.163053133204969
20
-36.344683053988412
30
0
0
ARC
5
393
100
AcDbEntity
8
0
100
AcDbCircle
10
-25.920000000000002
20
-41.28999939872952
30
0
40
8.5442038920075536
100
AcDbArc
50
31.862276395607985
51
35.637706065498271
0
SPLINE
5
394
100
AcDbEntity
8
0
100
AcDbSpline
70
1064
71
3
72
12
73
8
74
0
42
0.000000001
43
0.0000000001
44
0.0000000001
40
0
40
0
40
0
40
0
40
0.0060263164866891632
40
0.010475448436663808
40
0.013646988327529908
40
0.014273584470948812
40
0.015249368099763723
40
0.015249368099763723
40
0.015249368099763723
40
0.015249368099763723
10
-18.765350496382112
20
-36.939887309286533
30
0
10
-18.751500973987525
20
-36.919040966180312
30
0
10
-18.727426573308861
20
-36.882804105274538
30
0
10
-18.697103683826974
20
-36.83491956368033
30
0
10
-18.679100342907311
20
-36.805782374195921
30
0
10
-18.668783049646763
20
-36.788852756187552
30
0
10
-18.665338952183383
20
-36.78315879273061
30
0
10
-18.663241637939237
20
-36.779691402277592
30
0
0
SPLINE
5
395
100
AcDbEntity
8
0
100
AcDbSpline
70
1064
71
2
72
6
73
3
74
0
42
0.000000001
43
0.0000000001
44
0.0000000001
40
0.72427658941065465
40
0.72427658941065465
40
0.72427658941065465
40
1
40
1
40
1
10
-18.765350496382077
20
-36.939887309286561
30
0
10
-19.039544485398061
20
-37.347775600353266
30
0
10
-19.417142284526506
20
-37.687219288404172
30
0
0
ARC
5
396
100
AcDbEntity
8
0
100
AcDbCircle
10
-19.250618793786856
20
-37.949497705746815
30
0
40
0.31067674707302972
100
AcDbArc
50
122.41191917525924
51
206.60497510552401
0
ARC
5
397
100
AcDbEntity
8
0
100
AcDbCircle
10
-25.920000000000002
20
-41.28999939872952
30
0
40
7.1485187346540862
100
AcDbArc
50
25.895007355846293
51
26.604975105154743
0
ARC
5
398
100
AcDbEntity
8
0
100
AcDbCircle
10
-19.209738792730164
20
-38.032394179426987
30
0
40
0.31067674707298787
100
AcDbArc
50
205.89500735621954
51
290.08806328648507
0
SPLINE
5
399
100
AcDbEntity
8
0
100
AcDbSpline
70
1064
71
2
72
6
73
3
74
0
42
0.000000001
43
0.0000000001
44
0.0000000001
40
0
40
0
40
0
40
0.27572341058905653
40
0.27572341058905653
40
0.27572341058905653
10
-19.103032501744302
20
-38.324171163844724
30
0
10
-18.603866713755572
20
-38.231243066020355
30
0
10
-18.113348460413555
20
-38.262017158040003
30
0
0
SPLINE
5
400
100
AcDbEntity
8
0
100
AcDbSpline
70
1064
71
3
72
12
73
8
74
0
42
0.000000001
43
0.0000000001
44
0.0000000001
40
0
40
0
40
0
40
0
40
0.00097578490168576137
40
0.0015994203825148733
40
0.0047695272047636383
40
0.0092166890272749949
40
0.015249367873886102
40
0.015249367873886102
40
0.015249367873886102
40
0.015249367873886102
10
-17.924096572960401
20
-38.278529901323438
30
0
10
-17.928124207766622
20
-38.27808299605352
30
0
10
-17.934725950826198
20
-38.277350468427265
30
0
10
-17.954419741672972
20
-38.275231475475344
30
0
10
-17.988469232453113
20
-38.271779152058741
30
0
10
-18.044930147790524
20
-38.266683553004846
30
0
10
-18.088352534934799
20
-38.263721977354166
30
0
10
-18.113348460413555
20
-38.262017158040145
30
0
0
ARC
5
401
100
AcDbEntity
8
0
100
AcDbCircle
10
-25.920000000000002
20
-41.28999939872952
30
0
40
8.5442038920194499
100
AcDbArc
50
16.862276395631842
51
20.637706065516749
0
SPLINE
5
402
100
AcDbEntity
8
0
100
AcDbSpline
70
1064
71
3
72
12
73
8
74
0
42
0.000000001
43
0.0000000001
44
0.0000000001
40
0
40
0
40
0
40
0
40
0.0060263164866891971
40
0.010475448436663745
40
0.013646988327529991
40
0.014273584470943545
40
0.015249368099763617
40
0.015249368099763617
40
0.015249368099763617
40
0.015249368099763617
10
-17.88324740932029
20
-38.939873336846993
30
0
10
-17.864474367340961
20
-38.923321835818292
30
0
10
-17.831841492235895
20
-38.89455062940084
30
0
10
-17.790158398827039
20
-38.856145855295424
30
0
10
-17.765227247313923
20
-38.832661098972466
30
0
10
-17.750879799729297
20
-38.8189786556987
30
0
10
-17.746079350856377
20
-38.814370107358414
30
0
10
-17.743156074176049
20
-38.811563690239943
30
0
0
SPLINE
5
403
100
AcDbEntity
8
0
100
AcDbSpline
70
1064
71
2
72
6
73
3
74
0
42
0.000000001
43
0.0000000001
44
0.0000000001
40
0.72427658941065465
40
0.72427658941065465
40
0.72427658941065465
40
1
40
1
40
1
10
-17.883247409320269
20
-38.939873336847022
30
0
10
-18.253667722726455
20
-39.262896545019302
30
0
10
-18.706253680061941
20
-39.49304446807524
30
0
0
ARC
5
404
100
AcDbEntity
8
0
100
AcDbCircle
10
-18.61328698920034
20
-39.7894854159251
30
0
40
0.31067674707303272
100
AcDbArc
50
107.41191917525643
51
191.60497510552278
0
ARC
5
405
100
AcDbEntity
8
0
100
AcDbCircle
10
-25.920000000000002
20
-41.28999939872952
30
0
40
7.1485187346655055
100
AcDbArc
50
10.895007355884717
51
11.604975105191983
0
ARC
5
406
100
AcDbEntity
8
0
100
AcDbCircle
10
-18.595255126561192
20
-39.880137783598357
30
0
40
0.31067674707301857
100
AcDbArc
50
190.89500735621536
51
275.08806328647825
0
SPLINE
5
407
100
AcDbEntity
8
0
100
AcDbSpline
70
1064
71
2
72
6
73
3
74
0
42
0.000000001
43
0.0000000001
44
0.0000000001
40
0
40
0
40
0
40
0.27572341058905681
40
0.27572341058905681
40
0.27572341058905681
10
-18.567702204760359
20
-40.189590328703574
30
0
10
-18.06149351699996
20
-40.229022291622201
30
0
10
-17.595654188941133
20
-40.385703247819905
30
0
0
SPLINE
5
408
100
AcDbEntity
8
0
100
AcDbSpline
70
1064
71
3
72
12
73
8
74
0
42
0.000000001
43
0.0000000001
44
0.0000000001
40
0
40
0
40
0
40
0
40
0.00097578490171163575
40
0.0015994203825147857
40
0.0047695272047638005
40
0.0092166890272752135
40
0.015249367873886149
40
0.015249367873886149
40
0.015249367873886149
40
0.015249367873886149
10
-17.417124715624837
20
-40.450635325814737
30
0
10
-17.420899444507889
20
-40.449161219878022
30
0
10
-17.427086646526952
20
-40.446744995690651
30
0
10
-17.445560951990984
20
-40.439601077531258
30
0
10
-17.477556707457353
20
-40.427453732492552
30
0
10
-17.530774925676333
20
-40.407918601572739
30
0
10
-17.571951218676183
20
-40.39381939838848
30
0
10
-17.595654188941168
20
-40.38570324782004
30
0
0
ARC
5
409
100
AcDbEntity
8
0
100
AcDbCircle
10
-25.920000000000002
20
-41.28999939872952
30
0
40
8.5442038920299996
100
AcDbArc
50
1.862276395675551
51
5.6377060655556139
0
SPLINE
5
410
100
AcDbEntity
8
0
100
AcDbSpline
70
1064
71
3
72
12
73
8
74
0
42
0.000000001
43
0.0000000001
44
0.0000000001
40
0
40
0
40
0
40
0
40
0.0060263164866891259
40
0.010475448436663794
40
0.013646988327530035
40
0.014273584470964879
40
0.015249368099764068
40
0.015249368099764068
40
0.015249368099764068
40
0.015249368099764068
10
-17.548835729949602
20
-41.10001657176025
30
0
10
-17.526418520172477
20
-41.088887870251547
30
0
10
-17.487451047151012
20
-41.069543028493086
30
0
10
-17.437248383746436
20
-41.043235243764862
30
0
10
-17.407088438414753
20
-41.027003367936281
30
0
10
-17.389688591348637
20
-41.017500535294936
30
0
10
-17.383858933723751
20
-41.014291467024712
30
0
10
-17.38030891108216
20
-41.012337275929639
30
0
0
SPLINE
5
411
100
AcDbEntity
8
0
100
AcDbSpline
70
1064
71
2
72
6
73
3
74
0
42
0.000000001
43
0.0000000001
44
0.0000000001
40
0.72427658941065465
40
0.72427658941065465
40
0.72427658941065465
40
1
40
1
40
1
10
-17.548835729949587
20
-41.100016571760278
30
0
10
-17.990238835535763
20
-41.316161199222286
30
0
10
-18.486969966019558
20
-41.421329156664413
30
0
0
ARC
5
412
100
AcDbEntity
8
0
100
AcDbCircle
10
-18.473895601383504
20
-41.731730674317333
30
0
40
0.31067674707301729
100
AcDbArc
50
92.411919175254383
51
176.60497510552497
0
ARC
5
413
100
AcDbEntity
8
0
100
AcDbCircle
10
-25.920000000000002
20
-41.28999939872952
30
0
40
7.1485187346753412
100
AcDbArc
50
355.89500735594555
51
356.6049751052517
0
ARC
5
414
100
AcDbEntity
8
0
100
AcDbCircle
10
-18.479940718801721
20
-41.823961126936879
30
0
40
0.31067674707299964
100
AcDbArc
50
175.89500735621309
51
260.08806328648052
0
SPLINE
5
415
100
AcDbEntity
8
0
100
AcDbSpline
70
1064
71
2
72
6
73
3
74
0
42
0.000000001
43
0.0000000001
44
0.0000000001
40
0
40
0
40
0
40
0.27572341058905653
40
0.27572341058905653
40
0.27572341058905653
10
-18.533418852273236
20
-42.130000553175165
30
0
10
-18.054664550262693
20
-42.299105353728294
30
0
10
-17.645250327858378
20
-42.571015625866693
30
0
0
SPLINE
5
416
100
AcDbEntity
8
0
100
AcDbSpline
70
1064
71
3
72
12
73
8
74
0
42
0.000000001
43
0.0000000001
44
0.0000000001
40
0
40
0
40
0
40
0
40
0.00097578490171320968
40
0.0015994203825148551
40
0.0047695272047643834
40
0.009216689027275805
40
0.015249367873886081
40
0.015249367873886081
40
0.015249367873886081
40
0.015249367873886081
10
-17.489609757251536
20
-42.679942024762887
30
0
10
-17.492874338675975
20
-42.677541176042894
30
0
10
-17.498225352061738
20
-42.673605916979795
30
0
10
-17.514221178755875
20
-42.661923919829604
30
0
10
-17.54198274104904
20
-42.641909374658738
30
0
10
-17.588331528525202
20
-42.609265998761856
30
0
10
-17.624455631059746
20
-42.584990005440993
30
0
10
-17.645250327858449
20
-42.571015625866828
30
0
0
ARC
5
417
100
AcDbEntity
8
0
100
AcDbCircle
10
-25.920000000000002
20
-41.28999939872952
30
0
40
8.5442038920385119
100
AcDbArc
50
346.86227639573605
51
350.63770606561235
0
SPLINE
5
418
100
AcDbEntity
8
0
100
AcDbSpline
70
1064
71
3
72
12
73
8
74
0
42
0.000000001
43
0.0000000001
44
0.0000000001
40
0
40
0
40
0
40
0
40
0.006026316486688596
40
0.010475448436663384
40
0.01364698832752978
40
0.014273584470939115
40
0.015249368099763677
40
0.015249368099763677
40
0.015249368099763677
40
0.015249368099763677
10
-17.784905061577618
20
-43.273106822372441
30
0
10
-17.760371379802883
20
-43.268159323000489
30
0
10
-17.71772487775462
20
-43.259559164897979
30
0
10
-17.662423872901527
20
-43.247141201600513
30
0
10
-17.629090484184118
20
-43.239268381779688
30
0
10
-17.609824008459462
20
-43.234592762111099
30
0
10
-17.603362423615792
20
-43.233001866610302
30
0
10
-17.599427583189097
20
-43.232033076432252
30
0
0
SPLINE
5
419
100
AcDbEntity
8
0
100
AcDbSpline
70
1064
71
2
72
6
73
3
74
0
42
0.000000001
43
0.0000000001
44
0.0000000001
40
0.72427658941065465
40
0.72427658941065465
40
0.72427658941065465
40
1
40
1
40
1
10
-17.784905061577618
20
-43.273106822372469
30
0
10
-18.267210067151296
20
-43.367642969958531
30
0
10
-18.774234965127896
20
-43.340663939285442
30
0
0
ARC
5
420
100
AcDbEntity
8
0
100
AcDbCircle
10
-18.841943923060917
20
-43.64387267627616
30
0
40
0.310676747073035
100
AcDbArc
50
77.41191917525417
51
161.60497510552258
0
ARC
5
421
100
AcDbEntity
8
0
100
AcDbCircle
10
-25.920000000000002
20
-41.28999939872952
30
0
40
7.1485187346828631
100
AcDbArc
50
340.89500735602445
51
341.60497510532997
0
ARC
5
422
100
AcDbEntity
8
0
100
AcDbCircle
10
-18.871654055774492
20
-43.731395860913985
30
0
40
0.31067674707299275
100
AcDbArc
50
160.89500735621584
51
245.0880632864789
0
SPLINE
5
423
100
AcDbEntity
8
0
100
AcDbSpline
70
1064
71
2
72
6
73
3
74
0
42
0.000000001
43
0.0000000001
44
0.0000000001
40
0
40
0
40
0
40
0.27572341058905681
40
0.27572341058905681
40
0.27572341058905681
10
-19.002518798099082
20
-44.013166087141272
30
0
10
-18.583845196341507
20
-44.300419512630079
30
0
10
-18.258756982259563
20
-44.669028865015946
30
0
0
SPLINE
5
424
100
AcDbEntity
8
0
100
AcDbSpline
70
1064
71
3
72
12
73
8
74
0
42
0.000000001
43
0.0000000001
44
0.0000000001
40
0
40
0
40
0
40
0
40
0.00097578490169667549
40
0.0015994203825149657
40
0.0047695272047639063
40
0.0092166890272752221
40
0.015249367873886579
40
0.015249367873886579
40
0.015249367873886579
40
0.015249367873886579
10
-18.136611962040796
20
-44.81452643073812
30
0
10
-18.139143920177531
20
-44.811362453107584
30
0
10
-18.143294082210694
20
-44.806176340570573
30
0
10
-18.155721340980115
20
-44.790752373229957
30
0
10
-18.177356805507941
20
-44.764234586104678
30
0
10
-18.213677568969821
20
-44.720707557352355
30
0
10
-18.242287683149236
20
-44.687909142721736
30
0
10
-18.258756982259648
20
-44.669028865016038
30
0
0
ARC
5
425
100
AcDbEntity
8
0
100
AcDbCircle
10
-25.920000000000002
20
-41.28999939872952
30
0
40
8.5442038920443917
100
AcDbArc
50
331.8622763958092
51
335.63770606568278
0
SPLINE
5
426
100
AcDbEntity
8
0
100
AcDbSpline
70
1064
71
3
72
12
73
8
74
0
42
0.000000001
43
0.0000000001
44
0.0000000001
40
0
40
0
40
0
40
0
40
0.0060263164866891147
40
0.010475448436663978
40
0.01364698832752966
40
0.014273584470972028
40
0.015249368099763778
40
0.015249368099763778
40
0.015249368099763778
40
0.015249368099763778
10
-18.575367669376995
20
-45.311051579305783
30
0
10
-18.550389445473698
20
-45.312622445976658
30
0
10
-18.506970203036566
20
-45.315353058092349
30
0
10
-18.450339528826476
20
-45.317671179902703
30
0
10
-18.416104312078161
20
-45.318693935749948
30
0
10
-18.396284186176281
20
-45.319164164807681
30
0
10
-18.38963102044265
20
-45.319299858975626
30
0
10
-18.385579515103522
20
-45.319382491164248
30
0
0
SPLINE
5
427
100
AcDbEntity
8
0
100
AcDbSpline
70
1064
71
2
72
6
73
3
74
0
42
0.000000001
43
0.0000000001
44
0.0000000001
40
0.7242765894106542
40
0.7242765894106542
40
0.7242765894106542
40
1
40
1
40
1
10
-18.575367669377016
20
-45.311051579305811
30
0
10
-19.065706285854979
20
-45.277536764786319
30
0
10
-19.548472042425551
20
-45.120249322353423
30
0
0
ARC
5
428
100
AcDbEntity
8
0
100
AcDbCircle
10
-19.69235006933885
20
-45.395602104332141
30
0
40
0.31067674707303006
100
AcDbArc
50
62.411919175255463
51
146.60497510552293
0
ARC
5
429
100
AcDbEntity
8
0
100
AcDbCircle
10
-25.920000000000002
20
-41.28999939872952
30
0
40
7.1485187346875732
100
AcDbArc
50
325.89500735611642
51
326.60497510542154
0
ARC
5
430
100
AcDbEntity
8
0
100
AcDbCircle
10
-19.743700520901683
20
-45.472453460594089
30
0
40
0.31067674707301585
100
AcDbArc
50
145.89500735621334
51
230.08806328648205
0
SPLINE
5
431
100
AcDbEntity
8
0
100
AcDbSpline
70
1064
71
2
72
6
73
3
74
0
42
0.000000001
43
0.0000000001
44
0.0000000001
40
0
40
0
40
0
40
0.27572341058905608
40
0.27572341058905608
40
0.27572341058905608
10
-19.943033656154128
20
-45.710752311540304
30
0
10
-19.612972668718484
20
-46.096578515726463
30
0
10
-19.394364687514873
20
-46.536766830150441
30
0
0
SPLINE
5
432
100
AcDbEntity
8
0
100
AcDbSpline
70
1064
71
3
72
12
73
8
74
0
42
0.000000001
43
0.0000000001
44
0.0000000001
40
0
40
0
40
0
40
0
40
0.00097578490169824195
40
0.0015994203825149302
40
0.0047695272047642272
40
0.0092166890272755049
40
0.015249367873886416
40
0.015249367873886416
40
0.015249367873886416
40
0.015249367873886416
10
-19.314039198957957
20
-46.708920144040732
30
0
10
-19.31566598504422
20
-46.705208657346404
30
0
10
-19.318332469040705
20
-46.699125116334407
30
0
10
-19.326344262737301
20
-46.681010296688328
30
0
10
-19.340379208346505
20
-46.649796410978539
30
0
10
-19.364196747787041
20
-46.598352024448467
30
0
10
-19.383343141610439
20
-46.559266346263222
30
0
10
-19.394364687515015
20
-46.536766830150505
30
0
0
ARC
5
433
100
AcDbEntity
8
0
100
AcDbCircle
10
-25.920000000000002
20
-41.28999939872952
30
0
40
8.5442038920472676
100
AcDbArc
50
316.86227639589021
51
320.63770606576219
0
SPLINE
5
434
100
AcDbEntity
8
0
100
AcDbSpline
70
1064
71
3
72
12
73
8
74
0
42
0.000000001
43
0.0000000001
44
0.0000000001
40
0
40
0
40
0
40
0
40
0.0060263164866888605
40
0.010475448436663587
40
0.013646988327529835
40
0.014273584470965401
40
0.015249368099763818
40
0.015249368099763818
40
0.015249368099763818
40
0.015249368099763818
10
-19.866354832927378
20
-47.074968275238199
30
0
10
-19.842634291576083
20
-47.082950455984268
30
0
10
-19.8014012583685
20
-47.096825751615071
30
0
10
-19.747300201662206
20
-47.113721982362733
30
0
10
-19.714496230328187
20
-47.123570614757227
30
0
10
-19.695473163074936
20
-47.129154647208125
30
0
10
-19.689081818701204
20
-47.131007683711495
30
0
10
-19.685189751842927
20
-47.132136107019669
30
0
0
SPLINE
5
435
100
AcDbEntity
8
0
100
AcDbSpline
70
1064
71
2
72
6
73
3
74
0
42
0.000000001
43
0.0000000001
44
0.0000000001
40
0.72427658941065376
40
0.72427658941065376
40
0.72427658941065376
40
1
40
1
40
1
10
-19.866354832927399
20
-47.074968275238234
30
0
10
-20.331311293919605
20
-46.915686477836857
30
0
10
-20.75691822058203
20
-46.638809502916168
30
0
0
ARC
5
436
100
AcDbEntity
8
0
100
AcDbCircle
10
-20.967160266711147
20
-46.867541492833013
30
0
40
0.310676747073027
100
AcDbArc
50
47.411919175255441
51
131.60497510552102
0
ARC
5
437
100
AcDbEntity
8
0
100
AcDbCircle
10
-25.920000000000002
20
-41.28999939872952
30
0
40
7.1485187346891701
100
AcDbArc
50
310.89500735621505
51
311.60497510551988
0
ARC
5
438
100
AcDbEntity
8
0
100
AcDbCircle
10
-21.036651588709823
20
-46.928483727792695
30
0
40
0.31067674707300508
100
AcDbArc
50
130.89500735621209
51
215.08806328647989
0
SPLINE
5
439
100
AcDbEntity
8
0
100
AcDbSpline
70
1064
71
2
72
6
73
3
74
0
42
0.000000001
43
0.0000000001
44
0.0000000001
40
0
40
0
40
0
40
0.27572341058905692
40
0.27572341058905692
40
0.27572341058905692
10
-21.29086889313627
20
-47.107071530573336
30
0
10
-21.071913630864685
20
-47.565177095249503
30
0
10
-20.974683655191704
20
-48.046946265529193
30
0
0
SPLINE
5
440
100
AcDbEntity
8
0
100
AcDbSpline
70
1064
71
3
72
12
73
8
74
0
42
0.000000001
43
0.0000000001
44
0.0000000001
40
0
40
0
40
0
40
0
40
0.00097578490169151447
40
0.0015994203825148512
40
0.0047695272047639202
40
0.0092166890272754338
40
0.015249367873886702
40
0.015249367873886702
40
0.015249367873886702
40
0.015249367873886702
10
-20.941651747597618
20
-48.234023363742757
30
0
10
-20.942262498850049
20
-48.230017299669363
30
0
10
-20.943263588332101
20
-48.223450913448843
30
0
10
-20.946313926455524
20
-48.20387973652003
30
0
10
-20.951791894796649
20
-48.170096926953441
30
0
10
-20.961483084263335
20
-48.114241032571755
30
0
10
-20.969860962632573
20
-48.07153171520806
30
0
10
-20.974683655191868
20
-48.046946265529215
30
0
0
ARC
5
441
100
AcDbEntity
8
0
100
AcDbCircle
10
-25.920000000000002
20
-41.28999939872952
30
0
40
8.5442038920468981
100
AcDbArc
50
301.86227639597348
51
305.63770606584529
0
ENDSEC
0
SECTION
2
OBJECTS
0
DICTIONARY
5
C
100
AcDbDictionary
3
ACAD_GROUP
350
D
3
ACAD_MLINESTYLE
350
17
0
DICTIONARY
5
D
100
AcDbDictionary
0
DICTIONARY
5
1A
330
C
100
AcDbDictionary
0
DICTIONARY
5
17
100
AcDbDictionary
0
ENDSEC
0
EOF
