  0
SECTION
  2
HEADER
  9
$ACADVER
  1
AC1009
  9
$DWGCODEPAGE
  3
ansi_1252
  9
$INSBASE
 10
0.0
 20
0.0
 30
0.0
  9
$EXTMIN
 10
-0.5383931766
 20
-0.5383931766
 30
0.0
  9
$EXTMAX
 10
0.5383931766
 20
0.5383931766
 30
0.0
  9
$LIMMIN
 10
0.0
 20
0.0
  9
$LIMMAX
 10
12.0
 20
9.0
  9
$ORTHOMODE
 70
     0
  9
$REGENMODE
 70
     1
  9
$FILLMODE
 70
     1
  9
$QTEXTMODE
 70
     0
  9
$MIRRTEXT
 70
     1
  9
$DRAGMODE
 70
     2
  9
$LTSCALE
 40
1.0
  9
$OSMODE
 70
    37
  9
$ATTMODE
 70
     1
  9
$TEXTSIZE
 40
0.125
  9
$TRACEWID
 40
0.05
  9
$TEXTSTYLE
  7
STANDARD
  9
$CLAYER
  8
0
  9
$CELTYPE
  6
BYLAYER
  9
$CECOLOR
 62
   256
  9
$DIMSCALE
 40
1.0
  9
$DIMASZ
 40
0.13
  9
$DIMEXO
 40
0.05
  9
$DIMDLI
 40
0.38
  9
$DIMRND
 40
0.0
  9
$DIMDLE
 40
0.0
  9
$DIMEXE
 40
0.125
  9
$DIMTP
 40
0.0
  9
$DIMTM
 40
0.0
  9
$DIMTXT
 40
0.125
  9
$DIMCEN
 40
0.09
  9
$DIMTSZ
 40
0.0
  9
$DIMTOL
 70
     0
  9
$DIMLIM
 70
     0
  9
$DIMTIH
 70
     1
  9
$DIMTOH
 70
     1
  9
$DIMSE1
 70
     0
  9
$DIMSE2
 70
     0
  9
$DIMTAD
 70
     0
  9
$DIMZIN
 70
     0
  9
$DIMBLK
  1

  9
$DIMASO
 70
     1
  9
$DIMSHO
 70
     1
  9
$DIMPOST
  1

  9
$DIMAPOST
  1

  9
$DIMALT
 70
     0
  9
$DIMALTD
 70
     2
  9
$DIMALTF
 40
25.4
  9
$DIMLFAC
 40
1.0
  9
$DIMTOFL
 70
     0
  9
$DIMTVP
 40
0.0
  9
$DIMTIX
 70
     0
  9
$DIMSOXD
 70
     0
  9
$DIMSAH
 70
     0
  9
$DIMBLK1
  1

  9
$DIMBLK2
  1

  9
$DIMSTYLE
  2
STANDARD
  9
$DIMCLRD
 70
     0
  9
$DIMCLRE
 70
     0
  9
$DIMCLRT
 70
     0
  9
$DIMTFAC
 40
1.0
  9
$DIMGAP
 40
0.06
  9
$LUNITS
 70
     2
  9
$LUPREC
 70
     2
  9
$SKETCHINC
 40
0.1
  9
$FILLETRAD
 40
0.5
  9
$AUNITS
 70
     0
  9
$AUPREC
 70
     2
  9
$MENU
  1
.
  9
$ELEVATION
 40
0.0
  9
$PELEVATION
 40
0.0
  9
$THICKNESS
 40
0.0
  9
$LIMCHECK
 70
     0
  9
$CHAMFERA
 40
0.0
  9
$CHAMFERB
 40
0.0
  9
$SKPOLY
 70
     0
  9
$TDCREATE
 40
2458517.657208241
  9
$TDUPDATE
 40
2458517.65725728
  9
$TDINDWG
 40
0.0000000116
  9
$TDUSRTIMER
 40
0.0000000116
  9
$USRTIMER
 70
     1
  9
$ANGBASE
 50
0.0
  9
$ANGDIR
 70
     0
  9
$PDMODE
 70
     0
  9
$PDSIZE
 40
-1.0
  9
$PLINEWID
 40
0.0
  9
$COORDS
 70
     1
  9
$SPLFRAME
 70
     0
  9
$SPLINETYPE
 70
     6
  9
$SPLINESEGS
 70
     8
  9
$ATTDIA
 70
     0
  9
$ATTREQ
 70
     1
  9
$HANDLING
 70
     1
  9
$HANDSEED
  5
FD
  9
$SURFTAB1
 70
     6
  9
$SURFTAB2
 70
     6
  9
$SURFTYPE
 70
     6
  9
$SURFU
 70
     6
  9
$SURFV
 70
     6
  9
$UCSNAME
  2

  9
$UCSORG
 10
0.0
 20
0.0
 30
0.0
  9
$UCSXDIR
 10
1.0
 20
0.0
 30
0.0
  9
$UCSYDIR
 10
0.0
 20
1.0
 30
0.0
  9
$PUCSNAME
  2

  9
$PUCSORG
 10
0.0
 20
0.0
 30
0.0
  9
$PUCSXDIR
 10
1.0
 20
0.0
 30
0.0
  9
$PUCSYDIR
 10
0.0
 20
1.0
 30
0.0
  9
$USERI1
 70
     0
  9
$USERI2
 70
     0
  9
$USERI3
 70
     0
  9
$USERI4
 70
     0
  9
$USERI5
 70
     0
  9
$USERR1
 40
0.0
  9
$USERR2
 40
0.0
  9
$USERR3
 40
0.0
  9
$USERR4
 40
0.0
  9
$USERR5
 40
0.0
  9
$WORLDVIEW
 70
     1
  9
$SHADEDGE
 70
     3
  9
$SHADEDIF
 70
    70
  9
$TILEMODE
 70
     1
  9
$MAXACTVP
 70
    64
  9
$PLIMCHECK
 70
     0
  9
$PEXTMIN
 10
1.0000000000E+20
 20
1.0000000000E+20
 30
1.0000000000E+20
  9
$PEXTMAX
 10
-1.0000000000E+20
 20
-1.0000000000E+20
 30
-1.0000000000E+20
  9
$PLIMMIN
 10
0.0
 20
0.0
  9
$PLIMMAX
 10
12.0
 20
9.0
  9
$UNITMODE
 70
     0
  9
$VISRETAIN
 70
     1
  9
$PLINEGEN
 70
     0
  9
$PSLTSCALE
 70
     1
  0
ENDSEC
  0
SECTION
  2
TABLES
  0
TABLE
  2
VPORT
 70
     1
  0
VPORT
  2
*ACTIVE
 70
     0
 10
0.0
 20
0.0
 11
1.0
 21
1.0
 12
0.0
 22
0.0
 13
0.0
 23
0.0
 14
0.5
 24
0.5
 15
0.5
 25
0.5
 16
0.0
 26
0.0
 36
1.0
 17
0.0
 27
0.0
 37
0.0
 40
1.0983220803
 41
1.0
 42
50.0
 43
0.0
 44
0.0
 50
0.0
 51
0.0
 71
     0
 72
   100
 73
     1
 74
     3
 75
     0
 76
     0
 77
     0
 78
     0
  0
ENDTAB
  0
TABLE
  2
LTYPE
 70
     6
  0
LTYPE
  2
CONTINUOUS
 70
     0
  3
Solid line
 72
    65
 73
     0
 40
0.0
  0
LTYPE
  2
HIDDEN
 70
     0
  3
Hidden __ __ __ __ __ __ __ __ __ __ __ __ __ __
 72
    65
 73
     2
 40
0.075
 49
0.05
 49
-0.025
  0
LTYPE
  2
PHANTOM
 70
     0
  3
Phantom ______  __  __  ______  __  __  ______
 72
    65
 73
     6
 40
0.5
 49
0.25
 49
-0.05
 49
0.05
 49
-0.05
 49
0.05
 49
-0.05
  0
LTYPE
  2
CENTER
 70
     0
  3
Center ____ _ ____ _ ____ _ ____ _ ____ _ ____
 72
    65
 73
     4
 40
0.4
 49
0.25
 49
-0.05
 49
0.05
 49
-0.05
  0
LTYPE
  2
CENTERX2
 70
     0
  3
Center (2x) ________  __  ________  __  _____
 72
    65
 73
     4
 40
0.8
 49
0.5
 49
-0.1
 49
0.1
 49
-0.1
  0
LTYPE
  2
DOT2
 70
     0
  3
Dot (.5x) ........................................
 72
    65
 73
     2
 40
0.025
 49
0.0
 49
-0.025
  0
ENDTAB
  0
TABLE
  2
LAYER
 70
     1
  0
LAYER
  2
0
 70
     0
 62
     7
  6
CONTINUOUS
  0
ENDTAB
  0
TABLE
  2
STYLE
 70
     1
  0
STYLE
  2
STANDARD
 70
     0
 40
0.0
 41
1.0
 50
0.0
 71
     0
 42
0.125
  3
txt
  4

  0
ENDTAB
  0
TABLE
  2
VIEW
 70
     0
  0
ENDTAB
  0
TABLE
  2
UCS
 70
     0
  0
ENDTAB
  0
TABLE
  2
APPID
 70
     1
  0
APPID
  2
ACAD
 70
     0
  0
ENDTAB
  0
TABLE
  2
DIMSTYLE
 70
     1
  0
DIMSTYLE
  2
STANDARD
 70
     0
  3

  4

  5

  6

  7

 40
1.0
 41
0.18
 42
0.0625
 43
0.38
 44
0.18
 45
0.0
 46
0.0
 47
0.0
 48
0.0
140
0.18
141
0.09
142
0.0
143
25.4
144
1.0
145
0.0
146
1.0
147
0.09
 71
     0
 72
     0
 73
     1
 74
     1
 75
     0
 76
     0
 77
     0
 78
     0
170
     0
171
     2
172
     0
173
     0
174
     0
175
     0
176
     0
177
     0
178
     0
  0
ENDTAB
  0
ENDSEC
  0
SECTION
  2
BLOCKS
  0
BLOCK
  8
0
  2
$MODEL_SPACE
 70
     0
 10
0.0
 20
0.0
 30
0.0
  3
$MODEL_SPACE
  1

  0
ENDBLK
  5
21
  8
0
  0
BLOCK
 67
     1
  8
0
  2
$PAPER_SPACE
 70
     0
 10
0.0
 20
0.0
 30
0.0
  3
$PAPER_SPACE
  1

  0
ENDBLK
  5
1D
 67
     1
  8
0
  0
ENDSEC
  0
SECTION
  2
ENTITIES
  0
LINE
  5
73
  8
0
  6
CONTINUOUS
 62
     7
 10
0.0
 20
0.094488189
 30
0.0
 11
-0.0141653256
 21
0.0894363458
 31
0.0
  0
LINE
  5
74
  8
0
  6
CONTINUOUS
 62
     7
 10
0.0141653256
 20
0.0894363458
 30
0.0
 11
0.0
 21
0.094488189
 31
0.0
  0
LINE
  5
75
  8
0
  6
CONTINUOUS
 62
     7
 10
0.0291984562
 20
0.0898636078
 30
0.0
 11
0.0141653256
 21
0.0894363458
 31
0.0
  0
LINE
  5
76
  8
0
  6
CONTINUOUS
 62
     7
 10
0.041109376
 20
0.0806816931
 30
0.0
 11
0.0291984562
 21
0.0898636078
 31
0.0
  0
LINE
  5
77
  8
0
  6
CONTINUOUS
 62
     7
 10
0.055538764
 20
0.0764425506
 30
0.0
 11
0.041109376
 21
0.0806816931
 31
0.0
  0
LINE
  5
78
  8
0
  6
CONTINUOUS
 62
     7
 10
0.0640293542
 20
0.0640293542
 30
0.0
 11
0.055538764
 21
0.0764425506
 31
0.0
  0
LINE
  5
79
  8
0
  6
CONTINUOUS
 62
     7
 10
0.0764425506
 20
0.055538764
 30
0.0
 11
0.0640293542
 21
0.0640293542
 31
0.0
  0
LINE
  5
7A
  8
0
  6
CONTINUOUS
 62
     7
 10
0.0806816931
 20
0.041109376
 30
0.0
 11
0.0764425506
 21
0.055538764
 31
0.0
  0
LINE
  5
7B
  8
0
  6
CONTINUOUS
 62
     7
 10
0.0898636078
 20
0.0291984562
 30
0.0
 11
0.0806816931
 21
0.041109376
 31
0.0
  0
LINE
  5
7C
  8
0
  6
CONTINUOUS
 62
     7
 10
0.0894363458
 20
0.0141653256
 30
0.0
 11
0.0898636078
 21
0.0291984562
 31
0.0
  0
LINE
  5
7D
  8
0
  6
CONTINUOUS
 62
     7
 10
0.094488189
 20
0.0
 30
0.0
 11
0.0894363458
 21
0.0141653256
 31
0.0
  0
LINE
  5
7E
  8
0
  6
CONTINUOUS
 62
     7
 10
0.0894363458
 20
-0.0141653256
 30
0.0
 11
0.094488189
 21
0.0
 31
0.0
  0
LINE
  5
7F
  8
0
  6
CONTINUOUS
 62
     7
 10
0.0898636078
 20
-0.0291984562
 30
0.0
 11
0.0894363458
 21
-0.0141653256
 31
0.0
  0
LINE
  5
80
  8
0
  6
CONTINUOUS
 62
     7
 10
0.0806816931
 20
-0.041109376
 30
0.0
 11
0.0898636078
 21
-0.0291984562
 31
0.0
  0
LINE
  5
81
  8
0
  6
CONTINUOUS
 62
     7
 10
0.0764425506
 20
-0.055538764
 30
0.0
 11
0.0806816931
 21
-0.041109376
 31
0.0
  0
LINE
  5
82
  8
0
  6
CONTINUOUS
 62
     7
 10
0.0640293542
 20
-0.0640293542
 30
0.0
 11
0.0764425506
 21
-0.055538764
 31
0.0
  0
LINE
  5
83
  8
0
  6
CONTINUOUS
 62
     7
 10
0.055538764
 20
-0.0764425506
 30
0.0
 11
0.0640293542
 21
-0.0640293542
 31
0.0
  0
LINE
  5
84
  8
0
  6
CONTINUOUS
 62
     7
 10
0.041109376
 20
-0.0806816931
 30
0.0
 11
0.055538764
 21
-0.0764425506
 31
0.0
  0
LINE
  5
85
  8
0
  6
CONTINUOUS
 62
     7
 10
0.0291984562
 20
-0.0898636078
 30
0.0
 11
0.041109376
 21
-0.0806816931
 31
0.0
  0
LINE
  5
86
  8
0
  6
CONTINUOUS
 62
     7
 10
0.0141653256
 20
-0.0894363458
 30
0.0
 11
0.0291984562
 21
-0.0898636078
 31
0.0
  0
LINE
  5
87
  8
0
  6
CONTINUOUS
 62
     7
 10
0.0
 20
-0.094488189
 30
0.0
 11
0.0141653256
 21
-0.0894363458
 31
0.0
  0
LINE
  5
88
  8
0
  6
CONTINUOUS
 62
     7
 10
-0.0141653256
 20
-0.0894363458
 30
0.0
 11
0.0
 21
-0.094488189
 31
0.0
  0
LINE
  5
89
  8
0
  6
CONTINUOUS
 62
     7
 10
-0.0291984562
 20
-0.0898636078
 30
0.0
 11
-0.0141653256
 21
-0.0894363458
 31
0.0
  0
LINE
  5
8A
  8
0
  6
CONTINUOUS
 62
     7
 10
-0.041109376
 20
-0.0806816931
 30
0.0
 11
-0.0291984562
 21
-0.0898636078
 31
0.0
  0
LINE
  5
8B
  8
0
  6
CONTINUOUS
 62
     7
 10
-0.055538764
 20
-0.0764425506
 30
0.0
 11
-0.041109376
 21
-0.0806816931
 31
0.0
  0
LINE
  5
8C
  8
0
  6
CONTINUOUS
 62
     7
 10
-0.0640293542
 20
-0.0640293542
 30
0.0
 11
-0.055538764
 21
-0.0764425506
 31
0.0
  0
LINE
  5
8D
  8
0
  6
CONTINUOUS
 62
     7
 10
-0.0764425506
 20
-0.055538764
 30
0.0
 11
-0.0640293542
 21
-0.0640293542
 31
0.0
  0
LINE
  5
8E
  8
0
  6
CONTINUOUS
 62
     7
 10
-0.0806816931
 20
-0.041109376
 30
0.0
 11
-0.0764425506
 21
-0.055538764
 31
0.0
  0
LINE
  5
8F
  8
0
  6
CONTINUOUS
 62
     7
 10
-0.0898636078
 20
-0.0291984562
 30
0.0
 11
-0.0806816931
 21
-0.041109376
 31
0.0
  0
LINE
  5
90
  8
0
  6
CONTINUOUS
 62
     7
 10
-0.0894363458
 20
-0.0141653256
 30
0.0
 11
-0.0898636078
 21
-0.0291984562
 31
0.0
  0
LINE
  5
91
  8
0
  6
CONTINUOUS
 62
     7
 10
-0.094488189
 20
0.0
 30
0.0
 11
-0.0894363458
 21
-0.0141653256
 31
0.0
  0
LINE
  5
92
  8
0
  6
CONTINUOUS
 62
     7
 10
-0.0894363458
 20
0.0141653256
 30
0.0
 11
-0.094488189
 21
0.0
 31
0.0
  0
LINE
  5
93
  8
0
  6
CONTINUOUS
 62
     7
 10
-0.0898636078
 20
0.0291984562
 30
0.0
 11
-0.0894363458
 21
0.0141653256
 31
0.0
  0
LINE
  5
94
  8
0
  6
CONTINUOUS
 62
     7
 10
-0.0806816931
 20
0.041109376
 30
0.0
 11
-0.0898636078
 21
0.0291984562
 31
0.0
  0
LINE
  5
95
  8
0
  6
CONTINUOUS
 62
     7
 10
-0.0764425506
 20
0.055538764
 30
0.0
 11
-0.0806816931
 21
0.041109376
 31
0.0
  0
LINE
  5
96
  8
0
  6
CONTINUOUS
 62
     7
 10
-0.0640293542
 20
0.0640293542
 30
0.0
 11
-0.0764425506
 21
0.055538764
 31
0.0
  0
LINE
  5
97
  8
0
  6
CONTINUOUS
 62
     7
 10
-0.055538764
 20
0.0764425506
 30
0.0
 11
-0.0640293542
 21
0.0640293542
 31
0.0
  0
LINE
  5
98
  8
0
  6
CONTINUOUS
 62
     7
 10
-0.041109376
 20
0.0806816931
 30
0.0
 11
-0.055538764
 21
0.0764425506
 31
0.0
  0
LINE
  5
99
  8
0
  6
CONTINUOUS
 62
     7
 10
-0.0291984562
 20
0.0898636078
 30
0.0
 11
-0.041109376
 21
0.0806816931
 31
0.0
  0
LINE
  5
9A
  8
0
  6
CONTINUOUS
 62
     7
 10
-0.0141653256
 20
0.0894363458
 30
0.0
 11
-0.0291984562
 21
0.0898636078
 31
0.0
  0
ARC
  5
9B
  8
0
  6
CONTINUOUS
 62
     7
 10
0.0
 20
0.0
 30
0.0
 40
0.448
 50
252.4009823262
 51
257.5990176738
  0
ARC
  5
9C
  8
0
  6
CONTINUOUS
 62
     7
 10
0.1026919449
 20
-0.4584865537
 30
0.0
 40
0.2000000000000001
 50
173.9903990487
 51
202.6284880142
  0
ARC
  5
9D
  8
0
  6
CONTINUOUS
 62
     7
 10
0.0
 20
0.0
 30
0.0
 40
0.5416666666666666
 50
261.3022561148
 51
263.6977438852
  0
ARC
  5
9E
  8
0
  6
CONTINUOUS
 62
     7
 10
-0.2178578537
 20
-0.4162853721
 30
0.0
 40
0.2000000000000001
 50
322.3715119858
 51
351.0096009513
  0
ARC
  5
9F
  8
0
  6
CONTINUOUS
 62
     7
 10
0.0
 20
0.0
 30
0.0
 40
0.4480000000000001
 50
267.4009823262
 51
272.5990176738
  0
ARC
  5
A0
  8
0
  6
CONTINUOUS
 62
     7
 10
0.2178578537
 20
-0.4162853721
 30
0.0
 40
0.2000000000000001
 50
188.9903990487
 51
217.6284880142
  0
ARC
  5
A1
  8
0
  6
CONTINUOUS
 62
     7
 10
0.0
 20
0.0
 30
0.0
 40
0.5416666666666666
 50
276.3022561148
 51
278.6977438852
  0
ARC
  5
A2
  8
0
  6
CONTINUOUS
 62
     7
 10
-0.1026919449
 20
-0.4584865537
 30
0.0
 40
0.2000000000000001
 50
337.3715119858
 51
6.0096009513
  0
ARC
  5
A3
  8
0
  6
CONTINUOUS
 62
     7
 10
0.0
 20
0.0
 30
0.0
 40
0.448
 50
282.4009823262
 51
287.5990176738
  0
ARC
  5
A4
  8
0
  6
CONTINUOUS
 62
     7
 10
0.3181771099
 20
-0.3457150303
 30
0.0
 40
0.2000000000000001
 50
203.9903990487
 51
232.6284880142
  0
ARC
  5
A5
  8
0
  6
CONTINUOUS
 62
     7
 10
0.0
 20
0.0
 30
0.0
 40
0.5416666666666666
 50
291.3022561148
 51
293.6977438852
  0
ARC
  5
A6
  8
0
  6
CONTINUOUS
 62
     7
 10
0.0194722503
 20
-0.4694426343
 30
0.0
 40
0.2000000000000001
 50
352.3715119858
 51
21.0096009513
  0
ARC
  5
A7
  8
0
  6
CONTINUOUS
 62
     7
 10
0.0
 20
0.0
 30
0.0
 40
0.448
 50
297.4009823262
 51
302.5990176738
  0
ARC
  5
A8
  8
0
  6
CONTINUOUS
 62
     7
 10
0.3968131218
 20
-0.2515847806
 30
0.0
 40
0.2000000000000001
 50
218.9903990487
 51
247.6284880142
  0
ARC
  5
A9
  8
0
  6
CONTINUOUS
 62
     7
 10
0.0
 20
0.0
 30
0.0
 40
0.5416666666666666
 50
306.3022561148
 51
308.6977438852
  0
ARC
  5
AA
  8
0
  6
CONTINUOUS
 62
     7
 10
0.1403094438
 20
-0.4484069752
 30
0.0
 40
0.2000000000000001
 50
7.3715119858
 51
36.0096009513
  0
ARC
  5
AB
  8
0
  6
CONTINUOUS
 62
     7
 10
0.0
 20
0.0
 30
0.0
 40
0.448
 50
312.4009823262
 51
317.5990176738
  0
ARC
  5
AC
  8
0
  6
CONTINUOUS
 62
     7
 10
0.4484069752
 20
-0.1403094438
 30
0.0
 40
0.2000000000000001
 50
233.9903990487
 51
262.6284880142
  0
ARC
  5
AD
  8
0
  6
CONTINUOUS
 62
     7
 10
0.0
 20
0.0
 30
0.0
 40
0.5416666666666666
 50
321.3022561148
 51
323.6977438852
  0
ARC
  5
AE
  8
0
  6
CONTINUOUS
 62
     7
 10
0.2515847806
 20
-0.3968131218
 30
0.0
 40
0.2000000000000001
 50
22.3715119858
 51
51.0096009513
  0
ARC
  5
AF
  8
0
  6
CONTINUOUS
 62
     7
 10
0.0
 20
0.0
 30
0.0
 40
0.4480000000000002
 50
327.4009823262
 51
332.5990176738
  0
ARC
  5
B0
  8
0
  6
CONTINUOUS
 62
     7
 10
0.4694426343
 20
-0.0194722503
 30
0.0
 40
0.2000000000000001
 50
248.9903990487
 51
277.6284880142
  0
ARC
  5
B1
  8
0
  6
CONTINUOUS
 62
     7
 10
0.0
 20
0.0
 30
0.0
 40
0.5416666666666665
 50
336.3022561148
 51
338.6977438852
  0
ARC
  5
B2
  8
0
  6
CONTINUOUS
 62
     7
 10
0.3457150303
 20
-0.3181771099
 30
0.0
 40
0.2000000000000001
 50
37.3715119858
 51
66.0096009513
  0
ARC
  5
B3
  8
0
  6
CONTINUOUS
 62
     7
 10
0.0
 20
0.0
 30
0.0
 40
0.4480000000000001
 50
342.4009823262
 51
347.5990176738
  0
ARC
  5
B4
  8
0
  6
CONTINUOUS
 62
     7
 10
0.4584865537
 20
0.1026919449
 30
0.0
 40
0.2000000000000001
 50
263.9903990487
 51
292.6284880142
  0
ARC
  5
B5
  8
0
  6
CONTINUOUS
 62
     7
 10
0.0
 20
0.0
 30
0.0
 40
0.5416666666666666
 50
351.3022561148
 51
353.6977438852
  0
ARC
  5
B6
  8
0
  6
CONTINUOUS
 62
     7
 10
0.4162853721
 20
-0.2178578537
 30
0.0
 40
0.2000000000000001
 50
52.3715119858
 51
81.0096009513
  0
ARC
  5
B7
  8
0
  6
CONTINUOUS
 62
     7
 10
0.0
 20
0.0
 30
0.0
 40
0.448
 50
357.4009823262
 51
2.5990176738
  0
ARC
  5
B8
  8
0
  6
CONTINUOUS
 62
     7
 10
0.4162853721
 20
0.2178578537
 30
0.0
 40
0.2000000000000001
 50
278.9903990487
 51
307.6284880142
  0
ARC
  5
B9
  8
0
  6
CONTINUOUS
 62
     7
 10
0.0
 20
0.0
 30
0.0
 40
0.5416666666666665
 50
6.3022561148
 51
8.6977438852
  0
ARC
  5
BA
  8
0
  6
CONTINUOUS
 62
     7
 10
0.4584865537
 20
-0.1026919449
 30
0.0
 40
0.2000000000000001
 50
67.3715119858
 51
96.0096009513
  0
ARC
  5
BB
  8
0
  6
CONTINUOUS
 62
     7
 10
0.0
 20
0.0
 30
0.0
 40
0.4480000000000001
 50
12.4009823262
 51
17.5990176738
  0
ARC
  5
BC
  8
0
  6
CONTINUOUS
 62
     7
 10
0.3457150303
 20
0.3181771099
 30
0.0
 40
0.2000000000000001
 50
293.9903990487
 51
322.6284880142
  0
ARC
  5
BD
  8
0
  6
CONTINUOUS
 62
     7
 10
0.0
 20
0.0
 30
0.0
 40
0.5416666666666665
 50
21.3022561148
 51
23.6977438852
  0
ARC
  5
BE
  8
0
  6
CONTINUOUS
 62
     7
 10
0.4694426343
 20
0.0194722503
 30
0.0
 40
0.2000000000000001
 50
82.3715119858
 51
111.0096009513
  0
ARC
  5
BF
  8
0
  6
CONTINUOUS
 62
     7
 10
0.0
 20
0.0
 30
0.0
 40
0.448
 50
27.4009823262
 51
32.5990176738
  0
ARC
  5
C0
  8
0
  6
CONTINUOUS
 62
     7
 10
0.2515847806
 20
0.3968131218
 30
0.0
 40
0.2000000000000001
 50
308.9903990487
 51
337.6284880142
  0
ARC
  5
C1
  8
0
  6
CONTINUOUS
 62
     7
 10
0.0
 20
0.0
 30
0.0
 40
0.5416666666666666
 50
36.3022561148
 51
38.6977438852
  0
ARC
  5
C2
  8
0
  6
CONTINUOUS
 62
     7
 10
0.4484069752
 20
0.1403094438
 30
0.0
 40
0.2000000000000001
 50
97.3715119858
 51
126.0096009513
  0
ARC
  5
C3
  8
0
  6
CONTINUOUS
 62
     7
 10
0.0
 20
0.0
 30
0.0
 40
0.448
 50
42.4009823262
 51
47.5990176738
  0
ARC
  5
C4
  8
0
  6
CONTINUOUS
 62
     7
 10
0.1403094438
 20
0.4484069752
 30
0.0
 40
0.2000000000000002
 50
323.9903990487
 51
352.6284880142
  0
ARC
  5
C5
  8
0
  6
CONTINUOUS
 62
     7
 10
0.0
 20
0.0
 30
0.0
 40
0.5416666666666666
 50
51.3022561148
 51
53.6977438852
  0
ARC
  5
C6
  8
0
  6
CONTINUOUS
 62
     7
 10
0.3968131218
 20
0.2515847806
 30
0.0
 40
0.2
 50
112.3715119858
 51
141.0096009513
  0
ARC
  5
C7
  8
0
  6
CONTINUOUS
 62
     7
 10
0.0
 20
0.0
 30
0.0
 40
0.4479999999999998
 50
57.4009823262
 51
62.5990176738
  0
ARC
  5
C8
  8
0
  6
CONTINUOUS
 62
     7
 10
0.0194722503
 20
0.4694426343
 30
0.0
 40
0.2000000000000001
 50
338.9903990487
 51
7.6284880142
  0
ARC
  5
C9
  8
0
  6
CONTINUOUS
 62
     7
 10
0.0
 20
0.0
 30
0.0
 40
0.5416666666666666
 50
66.3022561148
 51
68.6977438852
  0
ARC
  5
CA
  8
0
  6
CONTINUOUS
 62
     7
 10
0.3181771099
 20
0.3457150303
 30
0.0
 40
0.2000000000000001
 50
127.3715119858
 51
156.0096009513
  0
ARC
  5
CB
  8
0
  6
CONTINUOUS
 62
     7
 10
0.0
 20
0.0
 30
0.0
 40
0.448
 50
72.4009823262
 51
77.5990176738
  0
ARC
  5
CC
  8
0
  6
CONTINUOUS
 62
     7
 10
-0.1026919449
 20
0.4584865537
 30
0.0
 40
0.2000000000000001
 50
353.9903990487
 51
22.6284880142
  0
ARC
  5
CD
  8
0
  6
CONTINUOUS
 62
     7
 10
0.0
 20
0.0
 30
0.0
 40
0.5416666666666666
 50
81.3022561148
 51
83.6977438852
  0
ARC
  5
CE
  8
0
  6
CONTINUOUS
 62
     7
 10
0.2178578537
 20
0.4162853721
 30
0.0
 40
0.2000000000000001
 50
142.3715119858
 51
171.0096009513
  0
ARC
  5
CF
  8
0
  6
CONTINUOUS
 62
     7
 10
0.0
 20
0.0
 30
0.0
 40
0.448
 50
87.4009823262
 51
92.5990176738
  0
ARC
  5
D0
  8
0
  6
CONTINUOUS
 62
     7
 10
-0.2178578537
 20
0.4162853721
 30
0.0
 40
0.2000000000000001
 50
8.9903990487
 51
37.6284880142
  0
ARC
  5
D1
  8
0
  6
CONTINUOUS
 62
     7
 10
0.0
 20
0.0
 30
0.0
 40
0.5416666666666666
 50
96.3022561148
 51
98.6977438852
  0
ARC
  5
D2
  8
0
  6
CONTINUOUS
 62
     7
 10
0.1026919449
 20
0.4584865537
 30
0.0
 40
0.2000000000000001
 50
157.3715119858
 51
186.0096009513
  0
ARC
  5
D3
  8
0
  6
CONTINUOUS
 62
     7
 10
0.0
 20
0.0
 30
0.0
 40
0.448
 50
102.4009823262
 51
107.5990176738
  0
ARC
  5
D4
  8
0
  6
CONTINUOUS
 62
     7
 10
-0.3181771099
 20
0.3457150303
 30
0.0
 40
0.2000000000000001
 50
23.9903990487
 51
52.6284880142
  0
ARC
  5
D5
  8
0
  6
CONTINUOUS
 62
     7
 10
0.0
 20
0.0
 30
0.0
 40
0.5416666666666666
 50
111.3022561148
 51
113.6977438852
  0
ARC
  5
D6
  8
0
  6
CONTINUOUS
 62
     7
 10
-0.0194722503
 20
0.4694426343
 30
0.0
 40
0.2000000000000001
 50
172.3715119858
 51
201.0096009513
  0
ARC
  5
D7
  8
0
  6
CONTINUOUS
 62
     7
 10
0.0
 20
0.0
 30
0.0
 40
0.4480000000000001
 50
117.4009823262
 51
122.5990176738
  0
ARC
  5
D8
  8
0
  6
CONTINUOUS
 62
     7
 10
-0.3968131218
 20
0.2515847806
 30
0.0
 40
0.2000000000000001
 50
38.9903990487
 51
67.6284880142
  0
ARC
  5
D9
  8
0
  6
CONTINUOUS
 62
     7
 10
0.0
 20
0.0
 30
0.0
 40
0.5416666666666665
 50
126.3022561148
 51
128.6977438852
  0
ARC
  5
DA
  8
0
  6
CONTINUOUS
 62
     7
 10
-0.1403094438
 20
0.4484069752
 30
0.0
 40
0.2
 50
187.3715119858
 51
216.0096009513
  0
ARC
  5
DB
  8
0
  6
CONTINUOUS
 62
     7
 10
0.0
 20
0.0
 30
0.0
 40
0.4480000000000001
 50
132.4009823262
 51
137.5990176738
  0
ARC
  5
DC
  8
0
  6
CONTINUOUS
 62
     7
 10
-0.4484069752
 20
0.1403094438
 30
0.0
 40
0.2000000000000001
 50
53.9903990487
 51
82.6284880142
  0
ARC
  5
DD
  8
0
  6
CONTINUOUS
 62
     7
 10
0.0
 20
0.0
 30
0.0
 40
0.5416666666666666
 50
141.3022561148
 51
143.6977438852
  0
ARC
  5
DE
  8
0
  6
CONTINUOUS
 62
     7
 10
-0.2515847806
 20
0.3968131218
 30
0.0
 40
0.2000000000000001
 50
202.3715119858
 51
231.0096009513
  0
ARC
  5
DF
  8
0
  6
CONTINUOUS
 62
     7
 10
0.0
 20
0.0
 30
0.0
 40
0.448
 50
147.4009823262
 51
152.5990176738
  0
ARC
  5
E0
  8
0
  6
CONTINUOUS
 62
     7
 10
-0.4694426343
 20
0.0194722503
 30
0.0
 40
0.2000000000000001
 50
68.9903990487
 51
97.6284880142
  0
ARC
  5
E1
  8
0
  6
CONTINUOUS
 62
     7
 10
0.0
 20
0.0
 30
0.0
 40
0.5416666666666666
 50
156.3022561148
 51
158.6977438852
  0
ARC
  5
E2
  8
0
  6
CONTINUOUS
 62
     7
 10
-0.3457150303
 20
0.3181771099
 30
0.0
 40
0.2000000000000001
 50
217.3715119858
 51
246.0096009513
  0
ARC
  5
E3
  8
0
  6
CONTINUOUS
 62
     7
 10
0.0
 20
0.0
 30
0.0
 40
0.4479999999999999
 50
162.4009823262
 51
167.5990176738
  0
ARC
  5
E4
  8
0
  6
CONTINUOUS
 62
     7
 10
-0.4584865537
 20
-0.1026919449
 30
0.0
 40
0.2000000000000001
 50
83.9903990487
 51
112.6284880142
  0
ARC
  5
E5
  8
0
  6
CONTINUOUS
 62
     7
 10
0.0
 20
0.0
 30
0.0
 40
0.5416666666666666
 50
171.3022561148
 51
173.6977438852
  0
ARC
  5
E6
  8
0
  6
CONTINUOUS
 62
     7
 10
-0.4162853721
 20
0.2178578537
 30
0.0
 40
0.2000000000000001
 50
232.3715119858
 51
261.0096009513
  0
ARC
  5
E7
  8
0
  6
CONTINUOUS
 62
     7
 10
0.0
 20
0.0
 30
0.0
 40
0.4480000000000001
 50
177.4009823262
 51
182.5990176738
  0
ARC
  5
E8
  8
0
  6
CONTINUOUS
 62
     7
 10
-0.4162853721
 20
-0.2178578537
 30
0.0
 40
0.2000000000000001
 50
98.9903990487
 51
127.6284880142
  0
ARC
  5
E9
  8
0
  6
CONTINUOUS
 62
     7
 10
0.0
 20
0.0
 30
0.0
 40
0.5416666666666665
 50
186.3022561148
 51
188.6977438852
  0
ARC
  5
EA
  8
0
  6
CONTINUOUS
 62
     7
 10
-0.4584865537
 20
0.1026919449
 30
0.0
 40
0.2000000000000001
 50
247.3715119858
 51
276.0096009513
  0
ARC
  5
EB
  8
0
  6
CONTINUOUS
 62
     7
 10
0.0
 20
0.0
 30
0.0
 40
0.4479999999999999
 50
192.4009823262
 51
197.5990176738
  0
ARC
  5
EC
  8
0
  6
CONTINUOUS
 62
     7
 10
-0.3457150303
 20
-0.3181771099
 30
0.0
 40
0.2
 50
113.9903990487
 51
142.6284880142
  0
ARC
  5
ED
  8
0
  6
CONTINUOUS
 62
     7
 10
0.0
 20
0.0
 30
0.0
 40
0.5416666666666666
 50
201.3022561148
 51
203.6977438852
  0
ARC
  5
EE
  8
0
  6
CONTINUOUS
 62
     7
 10
-0.4694426343
 20
-0.0194722503
 30
0.0
 40
0.2000000000000001
 50
262.3715119858
 51
291.0096009513
  0
ARC
  5
EF
  8
0
  6
CONTINUOUS
 62
     7
 10
0.0
 20
0.0
 30
0.0
 40
0.4480000000000001
 50
207.4009823262
 51
212.5990176738
  0
ARC
  5
F0
  8
0
  6
CONTINUOUS
 62
     7
 10
-0.2515847806
 20
-0.3968131218
 30
0.0
 40
0.2000000000000001
 50
128.9903990487
 51
157.6284880142
  0
ARC
  5
F1
  8
0
  6
CONTINUOUS
 62
     7
 10
0.0
 20
0.0
 30
0.0
 40
0.5416666666666666
 50
216.3022561148
 51
218.6977438852
  0
ARC
  5
F2
  8
0
  6
CONTINUOUS
 62
     7
 10
-0.4484069752
 20
-0.1403094438
 30
0.0
 40
0.2000000000000001
 50
277.3715119858
 51
306.0096009513
  0
ARC
  5
F3
  8
0
  6
CONTINUOUS
 62
     7
 10
0.0
 20
0.0
 30
0.0
 40
0.448
 50
222.4009823262
 51
227.5990176738
  0
ARC
  5
F4
  8
0
  6
CONTINUOUS
 62
     7
 10
-0.1403094438
 20
-0.4484069752
 30
0.0
 40
0.2000000000000001
 50
143.9903990487
 51
172.6284880142
  0
ARC
  5
F5
  8
0
  6
CONTINUOUS
 62
     7
 10
0.0
 20
0.0
 30
0.0
 40
0.5416666666666665
 50
231.3022561148
 51
233.6977438852
  0
ARC
  5
F6
  8
0
  6
CONTINUOUS
 62
     7
 10
-0.3968131218
 20
-0.2515847806
 30
0.0
 40
0.2000000000000001
 50
292.3715119858
 51
321.0096009513
  0
ARC
  5
F7
  8
0
  6
CONTINUOUS
 62
     7
 10
0.0
 20
0.0
 30
0.0
 40
0.4480000000000001
 50
237.4009823262
 51
242.5990176738
  0
ARC
  5
F8
  8
0
  6
CONTINUOUS
 62
     7
 10
-0.0194722503
 20
-0.4694426343
 30
0.0
 40
0.2000000000000001
 50
158.9903990487
 51
187.6284880142
  0
ARC
  5
F9
  8
0
  6
CONTINUOUS
 62
     7
 10
0.0
 20
0.0
 30
0.0
 40
0.5416666666666666
 50
246.3022561148
 51
248.6977438852
  0
ARC
  5
FA
  8
0
  6
CONTINUOUS
 62
     7
 10
-0.3181771099
 20
-0.3457150303
 30
0.0
 40
0.2000000000000001
 50
307.3715119858
 51
336.0096009513
  0
TEXT
  5
FB
  8
0
  6
CONTINUOUS
 62
     7
 10
-0.5383931766
 20
-0.7566177868
 30
0.0
 40
0.1903
  1
SOLIDWORKS Educational Product.
 41
0.6774193548
 11
-0.5383931766
 21
-0.8238431766
 31
0.0
 73
     1
  0
TEXT
  5
FC
  8
0
  6
CONTINUOUS
 62
     7
 10
-0.5383931766
 20
-1.0420677868
 30
0.0
 40
0.1903
  1
For Instructional Use Only.
 41
0.6611111111
 11
-0.5383931766
 21
-1.1092931766
 31
0.0
 73
     1
  0
ENDSEC
  0
EOF
