  0
SECTION
  2
HEADER
  9
$ACADVER
  1
AC1009
  9
$DWGCODEPAGE
  3
ansi_1252
  9
$INSBASE
 10
0.0
 20
0.0
 30
0.0
  9
$EXTMIN
 10
-1.5407282199
 20
-2.5
 30
0.0
  9
$EXTMAX
 10
1.5407282199
 20
1.5407282199
 30
0.0
  9
$LIMMIN
 10
0.0
 20
0.0
  9
$LIMMAX
 10
12.0
 20
9.0
  9
$ORTHOMODE
 70
     0
  9
$REGENMODE
 70
     1
  9
$FILLMODE
 70
     1
  9
$QTEXTMODE
 70
     0
  9
$MIRRTEXT
 70
     1
  9
$DRAGMODE
 70
     2
  9
$LTSCALE
 40
1.0
  9
$OSMODE
 70
    37
  9
$ATTMODE
 70
     1
  9
$TEXTSIZE
 40
0.125
  9
$TRACEWID
 40
0.05
  9
$TEXTSTYLE
  7
STANDARD
  9
$CLAYER
  8
0
  9
$CELTYPE
  6
BYLAYER
  9
$CECOLOR
 62
   256
  9
$DIMSCALE
 40
1.0
  9
$DIMASZ
 40
0.13
  9
$DIMEXO
 40
0.05
  9
$DIMDLI
 40
0.38
  9
$DIMRND
 40
0.0
  9
$DIMDLE
 40
0.0
  9
$DIMEXE
 40
0.125
  9
$DIMTP
 40
0.0
  9
$DIMTM
 40
0.0
  9
$DIMTXT
 40
0.125
  9
$DIMCEN
 40
0.09
  9
$DIMTSZ
 40
0.0
  9
$DIMTOL
 70
     0
  9
$DIMLIM
 70
     0
  9
$DIMTIH
 70
     1
  9
$DIMTOH
 70
     1
  9
$DIMSE1
 70
     0
  9
$DIMSE2
 70
     0
  9
$DIMTAD
 70
     0
  9
$DIMZIN
 70
     0
  9
$DIMBLK
  1

  9
$DIMASO
 70
     1
  9
$DIMSHO
 70
     1
  9
$DIMPOST
  1

  9
$DIMAPOST
  1

  9
$DIMALT
 70
     0
  9
$DIMALTD
 70
     2
  9
$DIMALTF
 40
25.4
  9
$DIMLFAC
 40
1.0
  9
$DIMTOFL
 70
     0
  9
$DIMTVP
 40
0.0
  9
$DIMTIX
 70
     0
  9
$DIMSOXD
 70
     0
  9
$DIMSAH
 70
     0
  9
$DIMBLK1
  1

  9
$DIMBLK2
  1

  9
$DIMSTYLE
  2
STANDARD
  9
$DIMCLRD
 70
     0
  9
$DIMCLRE
 70
     0
  9
$DIMCLRT
 70
     0
  9
$DIMTFAC
 40
1.0
  9
$DIMGAP
 40
0.06
  9
$LUNITS
 70
     2
  9
$LUPREC
 70
     2
  9
$SKETCHINC
 40
0.1
  9
$FILLETRAD
 40
0.5
  9
$AUNITS
 70
     0
  9
$AUPREC
 70
     2
  9
$MENU
  1
.
  9
$ELEVATION
 40
0.0
  9
$PELEVATION
 40
0.0
  9
$THICKNESS
 40
0.0
  9
$LIMCHECK
 70
     0
  9
$CHAMFERA
 40
0.0
  9
$CHAMFERB
 40
0.0
  9
$SKPOLY
 70
     0
  9
$TDCREATE
 40
2458552.522961123
  9
$TDUPDATE
 40
2458552.523010035
  9
$TDINDWG
 40
0.0000000116
  9
$TDUSRTIMER
 40
0.0000000116
  9
$USRTIMER
 70
     1
  9
$ANGBASE
 50
0.0
  9
$ANGDIR
 70
     0
  9
$PDMODE
 70
     0
  9
$PDSIZE
 40
-1.0
  9
$PLINEWID
 40
0.0
  9
$COORDS
 70
     1
  9
$SPLFRAME
 70
     0
  9
$SPLINETYPE
 70
     6
  9
$SPLINESEGS
 70
     8
  9
$ATTDIA
 70
     0
  9
$ATTREQ
 70
     1
  9
$HANDLING
 70
     1
  9
$HANDSEED
  5
194
  9
$SURFTAB1
 70
     6
  9
$SURFTAB2
 70
     6
  9
$SURFTYPE
 70
     6
  9
$SURFU
 70
     6
  9
$SURFV
 70
     6
  9
$UCSNAME
  2

  9
$UCSORG
 10
0.0
 20
0.0
 30
0.0
  9
$UCSXDIR
 10
1.0
 20
0.0
 30
0.0
  9
$UCSYDIR
 10
0.0
 20
1.0
 30
0.0
  9
$PUCSNAME
  2

  9
$PUCSORG
 10
0.0
 20
0.0
 30
0.0
  9
$PUCSXDIR
 10
1.0
 20
0.0
 30
0.0
  9
$PUCSYDIR
 10
0.0
 20
1.0
 30
0.0
  9
$USERI1
 70
     0
  9
$USERI2
 70
     0
  9
$USERI3
 70
     0
  9
$USERI4
 70
     0
  9
$USERI5
 70
     0
  9
$USERR1
 40
0.0
  9
$USERR2
 40
0.0
  9
$USERR3
 40
0.0
  9
$USERR4
 40
0.0
  9
$USERR5
 40
0.0
  9
$WORLDVIEW
 70
     1
  9
$SHADEDGE
 70
     3
  9
$SHADEDIF
 70
    70
  9
$TILEMODE
 70
     1
  9
$MAXACTVP
 70
    64
  9
$PLIMCHECK
 70
     0
  9
$PEXTMIN
 10
1.0000000000E+20
 20
1.0000000000E+20
 30
1.0000000000E+20
  9
$PEXTMAX
 10
-1.0000000000E+20
 20
-1.0000000000E+20
 30
-1.0000000000E+20
  9
$PLIMMIN
 10
0.0
 20
0.0
  9
$PLIMMAX
 10
12.0
 20
9.0
  9
$UNITMODE
 70
     0
  9
$VISRETAIN
 70
     1
  9
$PLINEGEN
 70
     0
  9
$PSLTSCALE
 70
     1
  0
ENDSEC
  0
SECTION
  2
TABLES
  0
TABLE
  2
VPORT
 70
     1
  0
VPORT
  2
*ACTIVE
 70
     0
 10
0.0
 20
0.0
 11
1.0
 21
1.0
 12
0.0
 22
-0.4796358901
 13
0.0
 23
0.0
 14
0.5
 24
0.5
 15
0.5
 25
0.5
 16
0.0
 26
0.0
 36
1.0
 17
0.0
 27
0.0
 37
0.0
 40
4.1215427843
 41
0.7625992821
 42
50.0
 43
0.0
 44
0.0
 50
0.0
 51
0.0
 71
     0
 72
   100
 73
     1
 74
     3
 75
     0
 76
     0
 77
     0
 78
     0
  0
ENDTAB
  0
TABLE
  2
LTYPE
 70
     6
  0
LTYPE
  2
CONTINUOUS
 70
     0
  3
Solid line
 72
    65
 73
     0
 40
0.0
  0
LTYPE
  2
HIDDEN
 70
     0
  3
Hidden __ __ __ __ __ __ __ __ __ __ __ __ __ __
 72
    65
 73
     2
 40
0.075
 49
0.05
 49
-0.025
  0
LTYPE
  2
PHANTOM
 70
     0
  3
Phantom ______  __  __  ______  __  __  ______
 72
    65
 73
     6
 40
0.5
 49
0.25
 49
-0.05
 49
0.05
 49
-0.05
 49
0.05
 49
-0.05
  0
LTYPE
  2
CENTER
 70
     0
  3
Center ____ _ ____ _ ____ _ ____ _ ____ _ ____
 72
    65
 73
     4
 40
0.4
 49
0.25
 49
-0.05
 49
0.05
 49
-0.05
  0
LTYPE
  2
CENTERX2
 70
     0
  3
Center (2x) ________  __  ________  __  _____
 72
    65
 73
     4
 40
0.8
 49
0.5
 49
-0.1
 49
0.1
 49
-0.1
  0
LTYPE
  2
DOT2
 70
     0
  3
Dot (.5x) ........................................
 72
    65
 73
     2
 40
0.025
 49
0.0
 49
-0.025
  0
ENDTAB
  0
TABLE
  2
LAYER
 70
     1
  0
LAYER
  2
0
 70
     0
 62
     7
  6
CONTINUOUS
  0
ENDTAB
  0
TABLE
  2
STYLE
 70
     1
  0
STYLE
  2
STANDARD
 70
     0
 40
0.0
 41
1.0
 50
0.0
 71
     0
 42
0.125
  3
txt
  4

  0
ENDTAB
  0
TABLE
  2
VIEW
 70
     0
  0
ENDTAB
  0
TABLE
  2
UCS
 70
     0
  0
ENDTAB
  0
TABLE
  2
APPID
 70
     1
  0
APPID
  2
ACAD
 70
     0
  0
ENDTAB
  0
TABLE
  2
DIMSTYLE
 70
     1
  0
DIMSTYLE
  2
STANDARD
 70
     0
  3

  4

  5

  6

  7

 40
1.0
 41
0.18
 42
0.0625
 43
0.38
 44
0.18
 45
0.0
 46
0.0
 47
0.0
 48
0.0
140
0.18
141
0.09
142
0.0
143
25.4
144
1.0
145
0.0
146
1.0
147
0.09
 71
     0
 72
     0
 73
     1
 74
     1
 75
     0
 76
     0
 77
     0
 78
     0
170
     0
171
     2
172
     0
173
     0
174
     0
175
     0
176
     0
177
     0
178
     0
  0
ENDTAB
  0
ENDSEC
  0
SECTION
  2
BLOCKS
  0
BLOCK
  8
0
  2
$MODEL_SPACE
 70
     0
 10
0.0
 20
0.0
 30
0.0
  3
$MODEL_SPACE
  1

  0
ENDBLK
  5
21
  8
0
  0
BLOCK
 67
     1
  8
0
  2
$PAPER_SPACE
 70
     0
 10
0.0
 20
0.0
 30
0.0
  3
$PAPER_SPACE
  1

  0
ENDBLK
  5
1D
 67
     1
  8
0
  0
ENDSEC
  0
SECTION
  2
ENTITIES
  0
LINE
  5
73
  8
0
  6
CONTINUOUS
 62
     7
 10
0.1084023936
 20
-2.425
 30
0.0
 11
0.1084023936
 21
-1.4439366056
 31
0.0
  0
ARC
  5
74
  8
0
  6
CONTINUOUS
 62
     7
 10
0.0
 20
0.0
 30
0.0
 40
1.448
 50
274.293381193
 51
275.706618807
  0
ARC
  5
75
  8
0
  6
CONTINUOUS
 62
     7
 10
0.7026277685
 20
-1.2219305291
 30
0.0
 40
0.6000000000000008
 50
201.3966402868
 51
210.9136297953
  0
ARC
  5
76
  8
0
  6
CONTINUOUS
 62
     7
 10
0.0
 20
0.0
 30
0.0
 40
1.541666666666667
 50
276.9992598611
 51
278.0007401389
  0
ARC
  5
77
  8
0
  6
CONTINUOUS
 62
     7
 10
-0.3624274151
 20
-1.3621477041
 30
0.0
 40
0.5999999999999999
 50
344.0863702047
 51
353.6033597132
  0
ARC
  5
78
  8
0
  6
CONTINUOUS
 62
     7
 10
0.0
 20
0.0
 30
0.0
 40
1.448
 50
279.293381193
 51
280.706618807
  0
ARC
  5
79
  8
0
  6
CONTINUOUS
 62
     7
 10
0.8064523205
 20
-1.1560426695
 30
0.0
 40
0.5999999999999999
 50
206.3966402868
 51
215.9136297953
  0
ARC
  5
7A
  8
0
  6
CONTINUOUS
 62
     7
 10
0.0
 20
0.0
 30
0.0
 40
1.541666666666667
 50
281.9992598611
 51
283.0007401389
  0
ARC
  5
7B
  8
0
  6
CONTINUOUS
 62
     7
 10
-0.2423292745
 20
-1.3885519514
 30
0.0
 40
0.6
 50
349.0863702047
 51
358.6033597132
  0
ARC
  5
7C
  8
0
  6
CONTINUOUS
 62
     7
 10
0.0
 20
0.0
 30
0.0
 40
1.448
 50
284.293381193
 51
285.706618807
  0
ARC
  5
7D
  8
0
  6
CONTINUOUS
 62
     7
 10
0.9041392835
 20
-1.0813566272
 30
0.0
 40
0.5999999999999998
 50
211.3966402868
 51
220.9136297953
  0
ARC
  5
7E
  8
0
  6
CONTINUOUS
 62
     7
 10
0.0
 20
0.0
 30
0.0
 40
1.541666666666667
 50
286.9992598611
 51
288.0007401389
  0
ARC
  5
7F
  8
0
  6
CONTINUOUS
 62
     7
 10
-0.1203868618
 20
-1.4043884799
 30
0.0
 40
0.6000000000000002
 50
354.0863702047
 51
3.6033597132
  0
ARC
  5
80
  8
0
  6
CONTINUOUS
 62
     7
 10
0.0
 20
0.0
 30
0.0
 40
1.448
 50
289.293381193
 51
290.706618807
  0
ARC
  5
81
  8
0
  6
CONTINUOUS
 62
     7
 10
0.9949452006
 20
-0.9984408079
 30
0.0
 40
0.6000000000000002
 50
216.3966402868
 51
225.9136297953
  0
ARC
  5
82
  8
0
  6
CONTINUOUS
 62
     7
 10
0.0
 20
0.0
 30
0.0
 40
1.541666666666667
 50
291.9992598611
 51
293.0007401389
  0
ARC
  5
83
  8
0
  6
CONTINUOUS
 62
     7
 10
0.0024717677
 20
-1.4095367641
 30
0.0
 40
0.6
 50
359.0863702047
 51
8.6033597132
  0
ARC
  5
84
  8
0
  6
CONTINUOUS
 62
     7
 10
0.0
 20
0.0
 30
0.0
 40
1.448
 50
294.293381193
 51
295.706618807
  0
ARC
  5
85
  8
0
  6
CONTINUOUS
 62
     7
 10
1.0781789839
 20
-0.9079262513
 30
0.0
 40
0.5999999999999999
 50
221.3966402868
 51
230.9136297953
  0
ARC
  5
86
  8
0
  6
CONTINUOUS
 62
     7
 10
0.0
 20
0.0
 30
0.0
 40
1.541666666666667
 50
296.9992598611
 51
298.0007401389
  0
ARC
  5
87
  8
0
  6
CONTINUOUS
 62
     7
 10
0.1253115854
 20
-1.4039576225
 30
0.0
 40
0.5999999999999999
 50
4.0863702047
 51
13.6033597132
  0
ARC
  5
88
  8
0
  6
CONTINUOUS
 62
     7
 10
0.0
 20
0.0
 30
0.0
 40
1.448
 50
299.293381193
 51
300.706618807
  0
ARC
  5
89
  8
0
  6
CONTINUOUS
 62
     7
 10
1.1532071742
 20
-0.8105018276
 30
0.0
 40
0.5999999999999998
 50
226.3966402868
 51
235.9136297953
  0
ARC
  5
8A
  8
0
  6
CONTINUOUS
 62
     7
 10
0.0
 20
0.0
 30
0.0
 40
1.541666666666667
 50
301.9992598611
 51
303.0007401389
  0
ARC
  5
8B
  8
0
  6
CONTINUOUS
 62
     7
 10
0.2471977064
 20
-1.3876935155
 30
0.0
 40
0.6
 50
9.0863702047
 51
18.6033597132
  0
ARC
  5
8C
  8
0
  6
CONTINUOUS
 62
     7
 10
0.0
 20
0.0
 30
0.0
 40
1.447999999999999
 50
304.293381193
 51
305.706618807
  0
ARC
  5
8D
  8
0
  6
CONTINUOUS
 62
     7
 10
1.2194587615
 20
-0.7069089957
 30
0.0
 40
0.6000000000000004
 50
231.3966402868
 51
240.9136297953
  0
ARC
  5
8E
  8
0
  6
CONTINUOUS
 62
     7
 10
0.0
 20
0.0
 30
0.0
 40
1.541666666666666
 50
306.9992598611
 51
308.0007401389
  0
ARC
  5
8F
  8
0
  6
CONTINUOUS
 62
     7
 10
0.3672025036
 20
-1.360868223
 30
0.0
 40
0.6
 50
14.0863702047
 51
23.6033597132
  0
ARC
  5
90
  8
0
  6
CONTINUOUS
 62
     7
 10
0.0
 20
0.0
 30
0.0
 40
1.448
 50
309.293381193
 51
310.706618807
  0
ARC
  5
91
  8
0
  6
CONTINUOUS
 62
     7
 10
1.2764295313
 20
-0.5979361594
 30
0.0
 40
0.5999999999999999
 50
236.3966402868
 51
245.9136297953
  0
ARC
  5
92
  8
0
  6
CONTINUOUS
 62
     7
 10
0.0
 20
0.0
 30
0.0
 40
1.541666666666667
 50
311.9992598611
 51
313.0007401389
  0
ARC
  5
93
  8
0
  6
CONTINUOUS
 62
     7
 10
0.4844126679
 20
-1.3236859017
 30
0.0
 40
0.5999999999999998
 50
19.0863702047
 51
28.6033597132
  0
ARC
  5
94
  8
0
  6
CONTINUOUS
 62
     7
 10
0.0
 20
0.0
 30
0.0
 40
1.448
 50
314.293381193
 51
315.706618807
  0
ARC
  5
95
  8
0
  6
CONTINUOUS
 62
     7
 10
1.3236859017
 20
-0.4844126679
 30
0.0
 40
0.6000000000000012
 50
241.3966402868
 51
250.9136297953
  0
ARC
  5
96
  8
0
  6
CONTINUOUS
 62
     7
 10
0.0
 20
0.0
 30
0.0
 40
1.541666666666667
 50
316.9992598611
 51
318.0007401389
  0
ARC
  5
97
  8
0
  6
CONTINUOUS
 62
     7
 10
0.5979361594
 20
-1.2764295313
 30
0.0
 40
0.5999999999999999
 50
24.0863702047
 51
33.6033597132
  0
ARC
  5
98
  8
0
  6
CONTINUOUS
 62
     7
 10
0.0
 20
0.0
 30
0.0
 40
1.447999999999999
 50
319.293381193
 51
320.706618807
  0
ARC
  5
99
  8
0
  6
CONTINUOUS
 62
     7
 10
1.360868223
 20
-0.3672025036
 30
0.0
 40
0.6
 50
246.3966402868
 51
255.9136297953
  0
ARC
  5
9A
  8
0
  6
CONTINUOUS
 62
     7
 10
0.0
 20
0.0
 30
0.0
 40
1.541666666666666
 50
321.9992598611
 51
323.0007401389
  0
ARC
  5
9B
  8
0
  6
CONTINUOUS
 62
     7
 10
0.7069089957
 20
-1.2194587615
 30
0.0
 40
0.6000000000000001
 50
29.0863702047
 51
38.6033597132
  0
ARC
  5
9C
  8
0
  6
CONTINUOUS
 62
     7
 10
0.0
 20
0.0
 30
0.0
 40
1.448
 50
324.293381193
 51
325.706618807
  0
ARC
  5
9D
  8
0
  6
CONTINUOUS
 62
     7
 10
1.3876935155
 20
-0.2471977064
 30
0.0
 40
0.6
 50
251.3966402868
 51
260.9136297953
  0
ARC
  5
9E
  8
0
  6
CONTINUOUS
 62
     7
 10
0.0
 20
0.0
 30
0.0
 40
1.541666666666667
 50
326.9992598611
 51
328.0007401389
  0
ARC
  5
9F
  8
0
  6
CONTINUOUS
 62
     7
 10
0.8105018276
 20
-1.1532071742
 30
0.0
 40
0.5999999999999998
 50
34.0863702047
 51
43.6033597132
  0
ARC
  5
A0
  8
0
  6
CONTINUOUS
 62
     7
 10
0.0
 20
0.0
 30
0.0
 40
1.448
 50
329.293381193
 51
330.706618807
  0
ARC
  5
A1
  8
0
  6
CONTINUOUS
 62
     7
 10
1.4039576225
 20
-0.1253115854
 30
0.0
 40
0.5999999999999999
 50
256.3966402868
 51
265.9136297953
  0
ARC
  5
A2
  8
0
  6
CONTINUOUS
 62
     7
 10
0.0
 20
0.0
 30
0.0
 40
1.541666666666667
 50
331.9992598611
 51
333.0007401389
  0
ARC
  5
A3
  8
0
  6
CONTINUOUS
 62
     7
 10
0.9079262513
 20
-1.0781789839
 30
0.0
 40
0.5999999999999998
 50
39.0863702047
 51
48.6033597132
  0
ARC
  5
A4
  8
0
  6
CONTINUOUS
 62
     7
 10
0.0
 20
0.0
 30
0.0
 40
1.448
 50
334.293381193
 51
335.706618807
  0
ARC
  5
A5
  8
0
  6
CONTINUOUS
 62
     7
 10
1.4095367641
 20
-0.0024717677
 30
0.0
 40
0.6000000000000005
 50
261.3966402868
 51
270.9136297953
  0
ARC
  5
A6
  8
0
  6
CONTINUOUS
 62
     7
 10
0.0
 20
0.0
 30
0.0
 40
1.541666666666667
 50
336.9992598611
 51
338.0007401389
  0
ARC
  5
A7
  8
0
  6
CONTINUOUS
 62
     7
 10
0.9984408079
 20
-0.9949452006
 30
0.0
 40
0.5999999999999999
 50
44.0863702047
 51
53.6033597132
  0
ARC
  5
A8
  8
0
  6
CONTINUOUS
 62
     7
 10
0.0
 20
0.0
 30
0.0
 40
1.448
 50
339.293381193
 51
340.706618807
  0
ARC
  5
A9
  8
0
  6
CONTINUOUS
 62
     7
 10
1.4043884799
 20
0.1203868618
 30
0.0
 40
0.5999999999999996
 50
266.3966402868
 51
275.9136297953
  0
ARC
  5
AA
  8
0
  6
CONTINUOUS
 62
     7
 10
0.0
 20
0.0
 30
0.0
 40
1.541666666666667
 50
341.9992598611
 51
343.0007401389
  0
ARC
  5
AB
  8
0
  6
CONTINUOUS
 62
     7
 10
1.0813566272
 20
-0.9041392835
 30
0.0
 40
0.6000000000000001
 50
49.0863702047
 51
58.6033597132
  0
ARC
  5
AC
  8
0
  6
CONTINUOUS
 62
     7
 10
0.0
 20
0.0
 30
0.0
 40
1.448
 50
344.293381193
 51
345.706618807
  0
ARC
  5
AD
  8
0
  6
CONTINUOUS
 62
     7
 10
1.3885519514
 20
0.2423292745
 30
0.0
 40
0.6000000000000001
 50
271.3966402868
 51
280.9136297953
  0
ARC
  5
AE
  8
0
  6
CONTINUOUS
 62
     7
 10
0.0
 20
0.0
 30
0.0
 40
1.541666666666667
 50
346.9992598611
 51
348.0007401389
  0
ARC
  5
AF
  8
0
  6
CONTINUOUS
 62
     7
 10
1.1560426695
 20
-0.8064523205
 30
0.0
 40
0.6000000000000001
 50
54.0863702047
 51
63.6033597132
  0
ARC
  5
B0
  8
0
  6
CONTINUOUS
 62
     7
 10
0.0
 20
0.0
 30
0.0
 40
1.448
 50
349.293381193
 51
350.706618807
  0
ARC
  5
B1
  8
0
  6
CONTINUOUS
 62
     7
 10
1.3621477041
 20
0.3624274151
 30
0.0
 40
0.6000000000000009
 50
276.3966402868
 51
285.9136297953
  0
ARC
  5
B2
  8
0
  6
CONTINUOUS
 62
     7
 10
0.0
 20
0.0
 30
0.0
 40
1.541666666666667
 50
351.9992598611
 51
353.0007401389
  0
ARC
  5
B3
  8
0
  6
CONTINUOUS
 62
     7
 10
1.2219305291
 20
-0.7026277685
 30
0.0
 40
0.5999999999999998
 50
59.0863702047
 51
68.6033597132
  0
ARC
  5
B4
  8
0
  6
CONTINUOUS
 62
     7
 10
0.0
 20
0.0
 30
0.0
 40
1.448
 50
354.293381193
 51
355.706618807
  0
ARC
  5
B5
  8
0
  6
CONTINUOUS
 62
     7
 10
1.3253766903
 20
0.4797672643
 30
0.0
 40
0.6000000000000001
 50
281.3966402868
 51
290.9136297953
  0
ARC
  5
B6
  8
0
  6
CONTINUOUS
 62
     7
 10
0.0
 20
0.0
 30
0.0
 40
1.541666666666667
 50
356.9992598611
 51
358.0007401389
  0
ARC
  5
B7
  8
0
  6
CONTINUOUS
 62
     7
 10
1.2785187596
 20
-0.5934557948
 30
0.0
 40
0.6
 50
64.0863702047
 51
73.6033597132
  0
ARC
  5
B8
  8
0
  6
CONTINUOUS
 62
     7
 10
0.0
 20
0.0
 30
0.0
 40
1.448
 50
359.293381193
 51
0.706618807
  0
ARC
  5
B9
  8
0
  6
CONTINUOUS
 62
     7
 10
1.2785187596
 20
0.5934557948
 30
0.0
 40
0.5999999999999998
 50
286.3966402868
 51
295.9136297953
  0
ARC
  5
BA
  8
0
  6
CONTINUOUS
 62
     7
 10
0.0
 20
0.0
 30
0.0
 40
1.541666666666667
 50
1.9992598611
 51
3.0007401389
  0
ARC
  5
BB
  8
0
  6
CONTINUOUS
 62
     7
 10
1.3253766903
 20
-0.4797672643
 30
0.0
 40
0.6000000000000001
 50
69.0863702047
 51
78.6033597132
  0
ARC
  5
BC
  8
0
  6
CONTINUOUS
 62
     7
 10
0.0
 20
0.0
 30
0.0
 40
1.448
 50
4.293381193
 51
5.706618807
  0
ARC
  5
BD
  8
0
  6
CONTINUOUS
 62
     7
 10
1.2219305291
 20
0.7026277685
 30
0.0
 40
0.6000000000000001
 50
291.3966402868
 51
300.9136297953
  0
ARC
  5
BE
  8
0
  6
CONTINUOUS
 62
     7
 10
0.0
 20
0.0
 30
0.0
 40
1.541666666666667
 50
6.9992598611
 51
8.0007401389
  0
ARC
  5
BF
  8
0
  6
CONTINUOUS
 62
     7
 10
1.3621477041
 20
-0.3624274151
 30
0.0
 40
0.5999999999999999
 50
74.0863702047
 51
83.6033597132
  0
ARC
  5
C0
  8
0
  6
CONTINUOUS
 62
     7
 10
0.0
 20
0.0
 30
0.0
 40
1.448
 50
9.293381193
 51
10.706618807
  0
ARC
  5
C1
  8
0
  6
CONTINUOUS
 62
     7
 10
1.1560426695
 20
0.8064523205
 30
0.0
 40
0.5999999999999998
 50
296.3966402868
 51
305.9136297953
  0
ARC
  5
C2
  8
0
  6
CONTINUOUS
 62
     7
 10
0.0
 20
0.0
 30
0.0
 40
1.541666666666667
 50
11.9992598611
 51
13.0007401389
  0
ARC
  5
C3
  8
0
  6
CONTINUOUS
 62
     7
 10
1.3885519514
 20
-0.2423292745
 30
0.0
 40
0.6
 50
79.0863702047
 51
88.6033597132
  0
ARC
  5
C4
  8
0
  6
CONTINUOUS
 62
     7
 10
0.0
 20
0.0
 30
0.0
 40
1.448
 50
14.293381193
 51
15.706618807
  0
ARC
  5
C5
  8
0
  6
CONTINUOUS
 62
     7
 10
1.0813566272
 20
0.9041392835
 30
0.0
 40
0.6000000000000001
 50
301.3966402868
 51
310.9136297953
  0
ARC
  5
C6
  8
0
  6
CONTINUOUS
 62
     7
 10
0.0
 20
0.0
 30
0.0
 40
1.541666666666667
 50
16.9992598611
 51
18.0007401389
  0
ARC
  5
C7
  8
0
  6
CONTINUOUS
 62
     7
 10
1.4043884799
 20
-0.1203868618
 30
0.0
 40
0.5999999999999999
 50
84.0863702047
 51
93.6033597132
  0
ARC
  5
C8
  8
0
  6
CONTINUOUS
 62
     7
 10
0.0
 20
0.0
 30
0.0
 40
1.448
 50
19.293381193
 51
20.706618807
  0
ARC
  5
C9
  8
0
  6
CONTINUOUS
 62
     7
 10
0.9984408079
 20
0.9949452006
 30
0.0
 40
0.5999999999999996
 50
306.3966402868
 51
315.9136297953
  0
ARC
  5
CA
  8
0
  6
CONTINUOUS
 62
     7
 10
0.0
 20
0.0
 30
0.0
 40
1.541666666666666
 50
21.9992598611
 51
23.0007401389
  0
ARC
  5
CB
  8
0
  6
CONTINUOUS
 62
     7
 10
1.4095367641
 20
0.0024717677
 30
0.0
 40
0.5999999999999998
 50
89.0863702047
 51
98.6033597132
  0
ARC
  5
CC
  8
0
  6
CONTINUOUS
 62
     7
 10
0.0
 20
0.0
 30
0.0
 40
1.448
 50
24.293381193
 51
25.706618807
  0
ARC
  5
CD
  8
0
  6
CONTINUOUS
 62
     7
 10
0.9079262513
 20
1.0781789839
 30
0.0
 40
0.6000000000000002
 50
311.3966402868
 51
320.9136297953
  0
ARC
  5
CE
  8
0
  6
CONTINUOUS
 62
     7
 10
0.0
 20
0.0
 30
0.0
 40
1.541666666666667
 50
26.9992598611
 51
28.0007401389
  0
ARC
  5
CF
  8
0
  6
CONTINUOUS
 62
     7
 10
1.4039576225
 20
0.1253115854
 30
0.0
 40
0.6000000000000001
 50
94.0863702047
 51
103.6033597132
  0
ARC
  5
D0
  8
0
  6
CONTINUOUS
 62
     7
 10
0.0
 20
0.0
 30
0.0
 40
1.447999999999999
 50
29.293381193
 51
30.706618807
  0
ARC
  5
D1
  8
0
  6
CONTINUOUS
 62
     7
 10
0.8105018276
 20
1.1532071742
 30
0.0
 40
0.5999999999999995
 50
316.3966402868
 51
325.9136297953
  0
ARC
  5
D2
  8
0
  6
CONTINUOUS
 62
     7
 10
0.0
 20
0.0
 30
0.0
 40
1.541666666666667
 50
31.9992598611
 51
33.0007401389
  0
ARC
  5
D3
  8
0
  6
CONTINUOUS
 62
     7
 10
1.3876935155
 20
0.2471977064
 30
0.0
 40
0.5999999999999996
 50
99.0863702047
 51
108.6033597132
  0
ARC
  5
D4
  8
0
  6
CONTINUOUS
 62
     7
 10
0.0
 20
0.0
 30
0.0
 40
1.448
 50
34.293381193
 51
35.706618807
  0
ARC
  5
D5
  8
0
  6
CONTINUOUS
 62
     7
 10
0.7069089957
 20
1.2194587615
 30
0.0
 40
0.6
 50
321.3966402868
 51
330.9136297953
  0
ARC
  5
D6
  8
0
  6
CONTINUOUS
 62
     7
 10
0.0
 20
0.0
 30
0.0
 40
1.541666666666667
 50
36.9992598611
 51
38.0007401389
  0
ARC
  5
D7
  8
0
  6
CONTINUOUS
 62
     7
 10
1.360868223
 20
0.3672025036
 30
0.0
 40
0.6
 50
104.0863702047
 51
113.6033597132
  0
ARC
  5
D8
  8
0
  6
CONTINUOUS
 62
     7
 10
0.0
 20
0.0
 30
0.0
 40
1.447999999999999
 50
39.293381193
 51
40.706618807
  0
ARC
  5
D9
  8
0
  6
CONTINUOUS
 62
     7
 10
0.5979361594
 20
1.2764295313
 30
0.0
 40
0.6
 50
326.3966402868
 51
335.9136297953
  0
ARC
  5
DA
  8
0
  6
CONTINUOUS
 62
     7
 10
0.0
 20
0.0
 30
0.0
 40
1.541666666666667
 50
41.9992598611
 51
43.0007401389
  0
ARC
  5
DB
  8
0
  6
CONTINUOUS
 62
     7
 10
1.3236859017
 20
0.4844126679
 30
0.0
 40
0.6000000000000003
 50
109.0863702047
 51
118.6033597132
  0
ARC
  5
DC
  8
0
  6
CONTINUOUS
 62
     7
 10
0.0
 20
0.0
 30
0.0
 40
1.448
 50
44.293381193
 51
45.706618807
  0
ARC
  5
DD
  8
0
  6
CONTINUOUS
 62
     7
 10
0.4844126679
 20
1.3236859017
 30
0.0
 40
0.6
 50
331.3966402868
 51
340.9136297953
  0
ARC
  5
DE
  8
0
  6
CONTINUOUS
 62
     7
 10
0.0
 20
0.0
 30
0.0
 40
1.541666666666667
 50
46.9992598611
 51
48.0007401389
  0
ARC
  5
DF
  8
0
  6
CONTINUOUS
 62
     7
 10
1.2764295313
 20
0.5979361594
 30
0.0
 40
0.6000000000000002
 50
114.0863702047
 51
123.6033597132
  0
ARC
  5
E0
  8
0
  6
CONTINUOUS
 62
     7
 10
0.0
 20
0.0
 30
0.0
 40
1.448
 50
49.293381193
 51
50.706618807
  0
ARC
  5
E1
  8
0
  6
CONTINUOUS
 62
     7
 10
0.3672025036
 20
1.360868223
 30
0.0
 40
0.6
 50
336.3966402868
 51
345.9136297953
  0
ARC
  5
E2
  8
0
  6
CONTINUOUS
 62
     7
 10
0.0
 20
0.0
 30
0.0
 40
1.541666666666667
 50
51.9992598611
 51
53.0007401389
  0
ARC
  5
E3
  8
0
  6
CONTINUOUS
 62
     7
 10
1.2194587615
 20
0.7069089957
 30
0.0
 40
0.6000000000000001
 50
119.0863702047
 51
128.6033597132
  0
ARC
  5
E4
  8
0
  6
CONTINUOUS
 62
     7
 10
0.0
 20
0.0
 30
0.0
 40
1.447999999999999
 50
54.293381193
 51
55.706618807
  0
ARC
  5
E5
  8
0
  6
CONTINUOUS
 62
     7
 10
0.2471977064
 20
1.3876935155
 30
0.0
 40
0.6
 50
341.3966402868
 51
350.9136297953
  0
ARC
  5
E6
  8
0
  6
CONTINUOUS
 62
     7
 10
0.0
 20
0.0
 30
0.0
 40
1.541666666666667
 50
56.9992598611
 51
58.0007401389
  0
ARC
  5
E7
  8
0
  6
CONTINUOUS
 62
     7
 10
1.1532071742
 20
0.8105018276
 30
0.0
 40
0.5999999999999998
 50
124.0863702047
 51
133.6033597132
  0
ARC
  5
E8
  8
0
  6
CONTINUOUS
 62
     7
 10
0.0
 20
0.0
 30
0.0
 40
1.448
 50
59.293381193
 51
60.706618807
  0
ARC
  5
E9
  8
0
  6
CONTINUOUS
 62
     7
 10
0.1253115854
 20
1.4039576225
 30
0.0
 40
0.5999999999999998
 50
346.3966402868
 51
355.9136297953
  0
ARC
  5
EA
  8
0
  6
CONTINUOUS
 62
     7
 10
0.0
 20
0.0
 30
0.0
 40
1.541666666666667
 50
61.9992598611
 51
63.0007401389
  0
ARC
  5
EB
  8
0
  6
CONTINUOUS
 62
     7
 10
1.0781789839
 20
0.9079262513
 30
0.0
 40
0.5999999999999999
 50
129.0863702047
 51
138.6033597132
  0
ARC
  5
EC
  8
0
  6
CONTINUOUS
 62
     7
 10
0.0
 20
0.0
 30
0.0
 40
1.447999999999999
 50
64.293381193
 51
65.706618807
  0
ARC
  5
ED
  8
0
  6
CONTINUOUS
 62
     7
 10
0.0024717677
 20
1.4095367641
 30
0.0
 40
0.5999999999999996
 50
351.3966402868
 51
0.9136297953
  0
ARC
  5
EE
  8
0
  6
CONTINUOUS
 62
     7
 10
0.0
 20
0.0
 30
0.0
 40
1.541666666666667
 50
66.9992598611
 51
68.0007401389
  0
ARC
  5
EF
  8
0
  6
CONTINUOUS
 62
     7
 10
0.9949452006
 20
0.9984408079
 30
0.0
 40
0.5999999999999998
 50
134.0863702047
 51
143.6033597132
  0
ARC
  5
F0
  8
0
  6
CONTINUOUS
 62
     7
 10
0.0
 20
0.0
 30
0.0
 40
1.447999999999999
 50
69.293381193
 51
70.706618807
  0
ARC
  5
F1
  8
0
  6
CONTINUOUS
 62
     7
 10
-0.1203868618
 20
1.4043884799
 30
0.0
 40
0.5999999999999999
 50
356.3966402868
 51
5.9136297953
  0
ARC
  5
F2
  8
0
  6
CONTINUOUS
 62
     7
 10
0.0
 20
0.0
 30
0.0
 40
1.541666666666667
 50
71.9992598611
 51
73.0007401389
  0
ARC
  5
F3
  8
0
  6
CONTINUOUS
 62
     7
 10
0.9041392835
 20
1.0813566272
 30
0.0
 40
0.5999999999999999
 50
139.0863702047
 51
148.6033597132
  0
ARC
  5
F4
  8
0
  6
CONTINUOUS
 62
     7
 10
0.0
 20
0.0
 30
0.0
 40
1.448
 50
74.293381193
 51
75.706618807
  0
ARC
  5
F5
  8
0
  6
CONTINUOUS
 62
     7
 10
-0.2423292745
 20
1.3885519514
 30
0.0
 40
0.5999999999999998
 50
1.3966402868
 51
10.9136297953
  0
ARC
  5
F6
  8
0
  6
CONTINUOUS
 62
     7
 10
0.0
 20
0.0
 30
0.0
 40
1.541666666666666
 50
76.9992598611
 51
78.0007401389
  0
ARC
  5
F7
  8
0
  6
CONTINUOUS
 62
     7
 10
0.8064523205
 20
1.1560426695
 30
0.0
 40
0.5999999999999999
 50
144.0863702047
 51
153.6033597132
  0
ARC
  5
F8
  8
0
  6
CONTINUOUS
 62
     7
 10
0.0
 20
0.0
 30
0.0
 40
1.448
 50
79.293381193
 51
80.706618807
  0
ARC
  5
F9
  8
0
  6
CONTINUOUS
 62
     7
 10
-0.3624274151
 20
1.3621477041
 30
0.0
 40
0.6
 50
6.3966402868
 51
15.9136297953
  0
ARC
  5
FA
  8
0
  6
CONTINUOUS
 62
     7
 10
0.0
 20
0.0
 30
0.0
 40
1.541666666666667
 50
81.9992598611
 51
83.0007401389
  0
ARC
  5
FB
  8
0
  6
CONTINUOUS
 62
     7
 10
0.7026277685
 20
1.2219305291
 30
0.0
 40
0.5999999999999999
 50
149.0863702047
 51
158.6033597132
  0
ARC
  5
FC
  8
0
  6
CONTINUOUS
 62
     7
 10
0.0
 20
0.0
 30
0.0
 40
1.448
 50
84.293381193
 51
85.706618807
  0
ARC
  5
FD
  8
0
  6
CONTINUOUS
 62
     7
 10
-0.4797672643
 20
1.3253766903
 30
0.0
 40
0.5999999999999999
 50
11.3966402868
 51
20.9136297953
  0
ARC
  5
FE
  8
0
  6
CONTINUOUS
 62
     7
 10
0.0
 20
0.0
 30
0.0
 40
1.541666666666667
 50
86.9992598611
 51
88.0007401389
  0
ARC
  5
FF
  8
0
  6
CONTINUOUS
 62
     7
 10
0.5934557948
 20
1.2785187596
 30
0.0
 40
0.5999999999999999
 50
154.0863702047
 51
163.6033597132
  0
ARC
  5
100
  8
0
  6
CONTINUOUS
 62
     7
 10
0.0
 20
0.0
 30
0.0
 40
1.448
 50
89.293381193
 51
90.706618807
  0
ARC
  5
101
  8
0
  6
CONTINUOUS
 62
     7
 10
-0.5934557948
 20
1.2785187596
 30
0.0
 40
0.5999999999999998
 50
16.3966402868
 51
25.9136297953
  0
ARC
  5
102
  8
0
  6
CONTINUOUS
 62
     7
 10
0.0
 20
0.0
 30
0.0
 40
1.541666666666667
 50
91.9992598611
 51
93.0007401389
  0
ARC
  5
103
  8
0
  6
CONTINUOUS
 62
     7
 10
0.4797672643
 20
1.3253766903
 30
0.0
 40
0.5999999999999999
 50
159.0863702047
 51
168.6033597132
  0
ARC
  5
104
  8
0
  6
CONTINUOUS
 62
     7
 10
0.0
 20
0.0
 30
0.0
 40
1.447999999999999
 50
94.293381193
 51
95.706618807
  0
ARC
  5
105
  8
0
  6
CONTINUOUS
 62
     7
 10
-0.7026277685
 20
1.2219305291
 30
0.0
 40
0.5999999999999998
 50
21.3966402868
 51
30.9136297953
  0
ARC
  5
106
  8
0
  6
CONTINUOUS
 62
     7
 10
0.0
 20
0.0
 30
0.0
 40
1.541666666666667
 50
96.9992598611
 51
98.0007401389
  0
ARC
  5
107
  8
0
  6
CONTINUOUS
 62
     7
 10
0.3624274151
 20
1.3621477041
 30
0.0
 40
0.6000000000000003
 50
164.0863702047
 51
173.6033597132
  0
ARC
  5
108
  8
0
  6
CONTINUOUS
 62
     7
 10
0.0
 20
0.0
 30
0.0
 40
1.448
 50
99.293381193
 51
100.706618807
  0
ARC
  5
109
  8
0
  6
CONTINUOUS
 62
     7
 10
-0.8064523205
 20
1.1560426695
 30
0.0
 40
0.6000000000000001
 50
26.3966402868
 51
35.9136297953
  0
ARC
  5
10A
  8
0
  6
CONTINUOUS
 62
     7
 10
0.0
 20
0.0
 30
0.0
 40
1.541666666666667
 50
101.9992598611
 51
103.0007401389
  0
ARC
  5
10B
  8
0
  6
CONTINUOUS
 62
     7
 10
0.2423292745
 20
1.3885519514
 30
0.0
 40
0.5999999999999999
 50
169.0863702047
 51
178.6033597132
  0
ARC
  5
10C
  8
0
  6
CONTINUOUS
 62
     7
 10
0.0
 20
0.0
 30
0.0
 40
1.448
 50
104.293381193
 51
105.706618807
  0
ARC
  5
10D
  8
0
  6
CONTINUOUS
 62
     7
 10
-0.9041392835
 20
1.0813566272
 30
0.0
 40
0.5999999999999999
 50
31.3966402868
 51
40.9136297953
  0
ARC
  5
10E
  8
0
  6
CONTINUOUS
 62
     7
 10
0.0
 20
0.0
 30
0.0
 40
1.541666666666667
 50
106.9992598611
 51
108.0007401389
  0
ARC
  5
10F
  8
0
  6
CONTINUOUS
 62
     7
 10
0.1203868618
 20
1.4043884799
 30
0.0
 40
0.6
 50
174.0863702047
 51
183.6033597132
  0
ARC
  5
110
  8
0
  6
CONTINUOUS
 62
     7
 10
0.0
 20
0.0
 30
0.0
 40
1.448
 50
109.293381193
 51
110.706618807
  0
ARC
  5
111
  8
0
  6
CONTINUOUS
 62
     7
 10
-0.9949452006
 20
0.9984408079
 30
0.0
 40
0.5999999999999999
 50
36.3966402868
 51
45.9136297953
  0
ARC
  5
112
  8
0
  6
CONTINUOUS
 62
     7
 10
0.0
 20
0.0
 30
0.0
 40
1.541666666666667
 50
111.9992598611
 51
113.0007401389
  0
ARC
  5
113
  8
0
  6
CONTINUOUS
 62
     7
 10
-0.0024717677
 20
1.4095367641
 30
0.0
 40
0.5999999999999999
 50
179.0863702047
 51
188.6033597132
  0
ARC
  5
114
  8
0
  6
CONTINUOUS
 62
     7
 10
0.0
 20
0.0
 30
0.0
 40
1.448
 50
114.293381193
 51
115.706618807
  0
ARC
  5
115
  8
0
  6
CONTINUOUS
 62
     7
 10
-1.0781789839
 20
0.9079262513
 30
0.0
 40
0.5999999999999998
 50
41.3966402868
 51
50.9136297953
  0
ARC
  5
116
  8
0
  6
CONTINUOUS
 62
     7
 10
0.0
 20
0.0
 30
0.0
 40
1.541666666666667
 50
116.9992598611
 51
118.0007401389
  0
ARC
  5
117
  8
0
  6
CONTINUOUS
 62
     7
 10
-0.1253115854
 20
1.4039576225
 30
0.0
 40
0.6
 50
184.0863702047
 51
193.6033597132
  0
ARC
  5
118
  8
0
  6
CONTINUOUS
 62
     7
 10
0.0
 20
0.0
 30
0.0
 40
1.448
 50
119.293381193
 51
120.706618807
  0
ARC
  5
119
  8
0
  6
CONTINUOUS
 62
     7
 10
-1.1532071742
 20
0.8105018276
 30
0.0
 40
0.6
 50
46.3966402868
 51
55.9136297953
  0
ARC
  5
11A
  8
0
  6
CONTINUOUS
 62
     7
 10
0.0
 20
0.0
 30
0.0
 40
1.541666666666667
 50
121.9992598611
 51
123.0007401389
  0
ARC
  5
11B
  8
0
  6
CONTINUOUS
 62
     7
 10
-0.2471977064
 20
1.3876935155
 30
0.0
 40
0.5999999999999999
 50
189.0863702047
 51
198.6033597132
  0
ARC
  5
11C
  8
0
  6
CONTINUOUS
 62
     7
 10
0.0
 20
0.0
 30
0.0
 40
1.447999999999999
 50
124.293381193
 51
125.706618807
  0
ARC
  5
11D
  8
0
  6
CONTINUOUS
 62
     7
 10
-1.2194587615
 20
0.7069089957
 30
0.0
 40
0.5999999999999998
 50
51.3966402868
 51
60.9136297953
  0
ARC
  5
11E
  8
0
  6
CONTINUOUS
 62
     7
 10
0.0
 20
0.0
 30
0.0
 40
1.541666666666667
 50
126.9992598611
 51
128.0007401389
  0
ARC
  5
11F
  8
0
  6
CONTINUOUS
 62
     7
 10
-0.3672025036
 20
1.360868223
 30
0.0
 40
0.6
 50
194.0863702047
 51
203.6033597132
  0
ARC
  5
120
  8
0
  6
CONTINUOUS
 62
     7
 10
0.0
 20
0.0
 30
0.0
 40
1.448
 50
129.293381193
 51
130.706618807
  0
ARC
  5
121
  8
0
  6
CONTINUOUS
 62
     7
 10
-1.2764295313
 20
0.5979361594
 30
0.0
 40
0.6000000000000001
 50
56.3966402868
 51
65.9136297953
  0
ARC
  5
122
  8
0
  6
CONTINUOUS
 62
     7
 10
0.0
 20
0.0
 30
0.0
 40
1.541666666666667
 50
131.9992598611
 51
133.0007401389
  0
ARC
  5
123
  8
0
  6
CONTINUOUS
 62
     7
 10
-0.4844126679
 20
1.3236859017
 30
0.0
 40
0.6
 50
199.0863702047
 51
208.6033597132
  0
ARC
  5
124
  8
0
  6
CONTINUOUS
 62
     7
 10
0.0
 20
0.0
 30
0.0
 40
1.447999999999999
 50
134.293381193
 51
135.706618807
  0
ARC
  5
125
  8
0
  6
CONTINUOUS
 62
     7
 10
-1.3236859017
 20
0.4844126679
 30
0.0
 40
0.6000000000000002
 50
61.3966402868
 51
70.9136297953
  0
ARC
  5
126
  8
0
  6
CONTINUOUS
 62
     7
 10
0.0
 20
0.0
 30
0.0
 40
1.541666666666667
 50
136.9992598611
 51
138.0007401389
  0
ARC
  5
127
  8
0
  6
CONTINUOUS
 62
     7
 10
-0.5979361594
 20
1.2764295313
 30
0.0
 40
0.6
 50
204.0863702047
 51
213.6033597132
  0
ARC
  5
128
  8
0
  6
CONTINUOUS
 62
     7
 10
0.0
 20
0.0
 30
0.0
 40
1.448
 50
139.293381193
 51
140.706618807
  0
ARC
  5
129
  8
0
  6
CONTINUOUS
 62
     7
 10
-1.360868223
 20
0.3672025036
 30
0.0
 40
0.5999999999999999
 50
66.3966402868
 51
75.9136297953
  0
ARC
  5
12A
  8
0
  6
CONTINUOUS
 62
     7
 10
0.0
 20
0.0
 30
0.0
 40
1.541666666666667
 50
141.9992598611
 51
143.0007401389
  0
ARC
  5
12B
  8
0
  6
CONTINUOUS
 62
     7
 10
-0.7069089957
 20
1.2194587615
 30
0.0
 40
0.6
 50
209.0863702047
 51
218.6033597132
  0
ARC
  5
12C
  8
0
  6
CONTINUOUS
 62
     7
 10
0.0
 20
0.0
 30
0.0
 40
1.448
 50
144.293381193
 51
145.706618807
  0
ARC
  5
12D
  8
0
  6
CONTINUOUS
 62
     7
 10
-1.3876935155
 20
0.2471977064
 30
0.0
 40
0.5999999999999995
 50
71.3966402868
 51
80.9136297953
  0
ARC
  5
12E
  8
0
  6
CONTINUOUS
 62
     7
 10
0.0
 20
0.0
 30
0.0
 40
1.541666666666667
 50
146.9992598611
 51
148.0007401389
  0
ARC
  5
12F
  8
0
  6
CONTINUOUS
 62
     7
 10
-0.8105018276
 20
1.1532071742
 30
0.0
 40
0.6000000000000001
 50
214.0863702047
 51
223.6033597132
  0
ARC
  5
130
  8
0
  6
CONTINUOUS
 62
     7
 10
0.0
 20
0.0
 30
0.0
 40
1.448
 50
149.293381193
 51
150.706618807
  0
ARC
  5
131
  8
0
  6
CONTINUOUS
 62
     7
 10
-1.4039576225
 20
0.1253115854
 30
0.0
 40
0.5999999999999998
 50
76.3966402868
 51
85.9136297953
  0
ARC
  5
132
  8
0
  6
CONTINUOUS
 62
     7
 10
0.0
 20
0.0
 30
0.0
 40
1.541666666666667
 50
151.9992598611
 51
153.0007401389
  0
ARC
  5
133
  8
0
  6
CONTINUOUS
 62
     7
 10
-0.9079262513
 20
1.0781789839
 30
0.0
 40
0.5999999999999998
 50
219.0863702047
 51
228.6033597132
  0
ARC
  5
134
  8
0
  6
CONTINUOUS
 62
     7
 10
0.0
 20
0.0
 30
0.0
 40
1.447999999999999
 50
154.293381193
 51
155.706618807
  0
ARC
  5
135
  8
0
  6
CONTINUOUS
 62
     7
 10
-1.4095367641
 20
0.0024717677
 30
0.0
 40
0.5999999999999999
 50
81.3966402868
 51
90.9136297953
  0
ARC
  5
136
  8
0
  6
CONTINUOUS
 62
     7
 10
0.0
 20
0.0
 30
0.0
 40
1.541666666666667
 50
156.9992598611
 51
158.0007401389
  0
ARC
  5
137
  8
0
  6
CONTINUOUS
 62
     7
 10
-0.9984408079
 20
0.9949452006
 30
0.0
 40
0.5999999999999998
 50
224.0863702047
 51
233.6033597132
  0
ARC
  5
138
  8
0
  6
CONTINUOUS
 62
     7
 10
0.0
 20
0.0
 30
0.0
 40
1.447999999999999
 50
159.293381193
 51
160.706618807
  0
ARC
  5
139
  8
0
  6
CONTINUOUS
 62
     7
 10
-1.4043884799
 20
-0.1203868618
 30
0.0
 40
0.6
 50
86.3966402868
 51
95.9136297953
  0
ARC
  5
13A
  8
0
  6
CONTINUOUS
 62
     7
 10
0.0
 20
0.0
 30
0.0
 40
1.541666666666667
 50
161.9992598611
 51
163.0007401389
  0
ARC
  5
13B
  8
0
  6
CONTINUOUS
 62
     7
 10
-1.0813566272
 20
0.9041392835
 30
0.0
 40
0.6
 50
229.0863702047
 51
238.6033597132
  0
ARC
  5
13C
  8
0
  6
CONTINUOUS
 62
     7
 10
0.0
 20
0.0
 30
0.0
 40
1.448
 50
164.293381193
 51
165.706618807
  0
ARC
  5
13D
  8
0
  6
CONTINUOUS
 62
     7
 10
-1.3885519514
 20
-0.2423292745
 30
0.0
 40
0.6000000000000001
 50
91.3966402868
 51
100.9136297953
  0
ARC
  5
13E
  8
0
  6
CONTINUOUS
 62
     7
 10
0.0
 20
0.0
 30
0.0
 40
1.541666666666667
 50
166.9992598611
 51
168.0007401389
  0
ARC
  5
13F
  8
0
  6
CONTINUOUS
 62
     7
 10
-1.1560426695
 20
0.8064523205
 30
0.0
 40
0.6000000000000001
 50
234.0863702047
 51
243.6033597132
  0
ARC
  5
140
  8
0
  6
CONTINUOUS
 62
     7
 10
0.0
 20
0.0
 30
0.0
 40
1.448
 50
169.293381193
 51
170.706618807
  0
ARC
  5
141
  8
0
  6
CONTINUOUS
 62
     7
 10
-1.3621477041
 20
-0.3624274151
 30
0.0
 40
0.5999999999999999
 50
96.3966402868
 51
105.9136297953
  0
ARC
  5
142
  8
0
  6
CONTINUOUS
 62
     7
 10
0.0
 20
0.0
 30
0.0
 40
1.541666666666667
 50
171.9992598611
 51
173.0007401389
  0
ARC
  5
143
  8
0
  6
CONTINUOUS
 62
     7
 10
-1.2219305291
 20
0.7026277685
 30
0.0
 40
0.6000000000000001
 50
239.0863702047
 51
248.6033597132
  0
ARC
  5
144
  8
0
  6
CONTINUOUS
 62
     7
 10
0.0
 20
0.0
 30
0.0
 40
1.448
 50
174.293381193
 51
175.706618807
  0
ARC
  5
145
  8
0
  6
CONTINUOUS
 62
     7
 10
-1.3253766903
 20
-0.4797672643
 30
0.0
 40
0.5999999999999999
 50
101.3966402868
 51
110.9136297953
  0
ARC
  5
146
  8
0
  6
CONTINUOUS
 62
     7
 10
0.0
 20
0.0
 30
0.0
 40
1.541666666666667
 50
176.9992598611
 51
178.0007401389
  0
ARC
  5
147
  8
0
  6
CONTINUOUS
 62
     7
 10
-1.2785187596
 20
0.5934557948
 30
0.0
 40
0.5999999999999999
 50
244.0863702047
 51
253.6033597132
  0
ARC
  5
148
  8
0
  6
CONTINUOUS
 62
     7
 10
0.0
 20
0.0
 30
0.0
 40
1.448
 50
179.293381193
 51
180.706618807
  0
ARC
  5
149
  8
0
  6
CONTINUOUS
 62
     7
 10
-1.2785187596
 20
-0.5934557948
 30
0.0
 40
0.6000000000000005
 50
106.3966402868
 51
115.9136297953
  0
ARC
  5
14A
  8
0
  6
CONTINUOUS
 62
     7
 10
0.0
 20
0.0
 30
0.0
 40
1.541666666666667
 50
181.9992598611
 51
183.0007401389
  0
ARC
  5
14B
  8
0
  6
CONTINUOUS
 62
     7
 10
-1.3253766903
 20
0.4797672643
 30
0.0
 40
0.6
 50
249.0863702047
 51
258.6033597132
  0
ARC
  5
14C
  8
0
  6
CONTINUOUS
 62
     7
 10
0.0
 20
0.0
 30
0.0
 40
1.448
 50
184.293381193
 51
185.706618807
  0
ARC
  5
14D
  8
0
  6
CONTINUOUS
 62
     7
 10
-1.2219305291
 20
-0.7026277685
 30
0.0
 40
0.6000000000000001
 50
111.3966402868
 51
120.9136297953
  0
ARC
  5
14E
  8
0
  6
CONTINUOUS
 62
     7
 10
0.0
 20
0.0
 30
0.0
 40
1.541666666666667
 50
186.9992598611
 51
188.0007401389
  0
ARC
  5
14F
  8
0
  6
CONTINUOUS
 62
     7
 10
-1.3621477041
 20
0.3624274151
 30
0.0
 40
0.6
 50
254.0863702047
 51
263.6033597132
  0
ARC
  5
150
  8
0
  6
CONTINUOUS
 62
     7
 10
0.0
 20
0.0
 30
0.0
 40
1.448
 50
189.293381193
 51
190.706618807
  0
ARC
  5
151
  8
0
  6
CONTINUOUS
 62
     7
 10
-1.1560426695
 20
-0.8064523205
 30
0.0
 40
0.6000000000000003
 50
116.3966402868
 51
125.9136297953
  0
ARC
  5
152
  8
0
  6
CONTINUOUS
 62
     7
 10
0.0
 20
0.0
 30
0.0
 40
1.541666666666666
 50
191.9992598611
 51
193.0007401389
  0
ARC
  5
153
  8
0
  6
CONTINUOUS
 62
     7
 10
-1.3885519514
 20
0.2423292745
 30
0.0
 40
0.5999999999999999
 50
259.0863702047
 51
268.6033597132
  0
ARC
  5
154
  8
0
  6
CONTINUOUS
 62
     7
 10
0.0
 20
0.0
 30
0.0
 40
1.448
 50
194.293381193
 51
195.706618807
  0
ARC
  5
155
  8
0
  6
CONTINUOUS
 62
     7
 10
-1.0813566272
 20
-0.9041392835
 30
0.0
 40
0.6
 50
121.3966402868
 51
130.9136297953
  0
ARC
  5
156
  8
0
  6
CONTINUOUS
 62
     7
 10
0.0
 20
0.0
 30
0.0
 40
1.541666666666667
 50
196.9992598611
 51
198.0007401389
  0
ARC
  5
157
  8
0
  6
CONTINUOUS
 62
     7
 10
-1.4043884799
 20
0.1203868618
 30
0.0
 40
0.6
 50
264.0863702047
 51
273.6033597132
  0
ARC
  5
158
  8
0
  6
CONTINUOUS
 62
     7
 10
0.0
 20
0.0
 30
0.0
 40
1.448
 50
199.293381193
 51
200.706618807
  0
ARC
  5
159
  8
0
  6
CONTINUOUS
 62
     7
 10
-0.9984408079
 20
-0.9949452006
 30
0.0
 40
0.6000000000000005
 50
126.3966402868
 51
135.9136297953
  0
ARC
  5
15A
  8
0
  6
CONTINUOUS
 62
     7
 10
0.0
 20
0.0
 30
0.0
 40
1.541666666666667
 50
201.9992598611
 51
203.0007401389
  0
ARC
  5
15B
  8
0
  6
CONTINUOUS
 62
     7
 10
-1.4095367641
 20
-0.0024717677
 30
0.0
 40
0.6
 50
269.0863702047
 51
278.6033597132
  0
ARC
  5
15C
  8
0
  6
CONTINUOUS
 62
     7
 10
0.0
 20
0.0
 30
0.0
 40
1.448
 50
204.293381193
 51
205.706618807
  0
ARC
  5
15D
  8
0
  6
CONTINUOUS
 62
     7
 10
-0.9079262513
 20
-1.0781789839
 30
0.0
 40
0.6000000000000002
 50
131.3966402868
 51
140.9136297953
  0
ARC
  5
15E
  8
0
  6
CONTINUOUS
 62
     7
 10
0.0
 20
0.0
 30
0.0
 40
1.541666666666667
 50
206.9992598611
 51
208.0007401389
  0
ARC
  5
15F
  8
0
  6
CONTINUOUS
 62
     7
 10
-1.4039576225
 20
-0.1253115854
 30
0.0
 40
0.5999999999999999
 50
274.0863702047
 51
283.6033597132
  0
ARC
  5
160
  8
0
  6
CONTINUOUS
 62
     7
 10
0.0
 20
0.0
 30
0.0
 40
1.447999999999999
 50
209.293381193
 51
210.706618807
  0
ARC
  5
161
  8
0
  6
CONTINUOUS
 62
     7
 10
-0.8105018276
 20
-1.1532071742
 30
0.0
 40
0.5999999999999999
 50
136.3966402868
 51
145.9136297953
  0
ARC
  5
162
  8
0
  6
CONTINUOUS
 62
     7
 10
0.0
 20
0.0
 30
0.0
 40
1.541666666666666
 50
211.9992598611
 51
213.0007401389
  0
ARC
  5
163
  8
0
  6
CONTINUOUS
 62
     7
 10
-1.3876935155
 20
-0.2471977064
 30
0.0
 40
0.6
 50
279.0863702047
 51
288.6033597132
  0
ARC
  5
164
  8
0
  6
CONTINUOUS
 62
     7
 10
0.0
 20
0.0
 30
0.0
 40
1.448
 50
214.293381193
 51
215.706618807
  0
ARC
  5
165
  8
0
  6
CONTINUOUS
 62
     7
 10
-0.7069089957
 20
-1.2194587615
 30
0.0
 40
0.6000000000000004
 50
141.3966402868
 51
150.9136297953
  0
ARC
  5
166
  8
0
  6
CONTINUOUS
 62
     7
 10
0.0
 20
0.0
 30
0.0
 40
1.541666666666667
 50
216.9992598611
 51
218.0007401389
  0
ARC
  5
167
  8
0
  6
CONTINUOUS
 62
     7
 10
-1.360868223
 20
-0.3672025036
 30
0.0
 40
0.5999999999999998
 50
284.0863702047
 51
293.6033597132
  0
ARC
  5
168
  8
0
  6
CONTINUOUS
 62
     7
 10
0.0
 20
0.0
 30
0.0
 40
1.447999999999999
 50
219.293381193
 51
220.706618807
  0
ARC
  5
169
  8
0
  6
CONTINUOUS
 62
     7
 10
-0.5979361594
 20
-1.2764295313
 30
0.0
 40
0.6000000000000002
 50
146.3966402868
 51
155.9136297953
  0
ARC
  5
16A
  8
0
  6
CONTINUOUS
 62
     7
 10
0.0
 20
0.0
 30
0.0
 40
1.541666666666667
 50
221.9992598611
 51
223.0007401389
  0
ARC
  5
16B
  8
0
  6
CONTINUOUS
 62
     7
 10
-1.3236859017
 20
-0.4844126679
 30
0.0
 40
0.5999999999999999
 50
289.0863702047
 51
298.6033597132
  0
ARC
  5
16C
  8
0
  6
CONTINUOUS
 62
     7
 10
0.0
 20
0.0
 30
0.0
 40
1.448
 50
224.293381193
 51
225.706618807
  0
ARC
  5
16D
  8
0
  6
CONTINUOUS
 62
     7
 10
-0.4844126679
 20
-1.3236859017
 30
0.0
 40
0.6000000000000003
 50
151.3966402868
 51
160.9136297953
  0
ARC
  5
16E
  8
0
  6
CONTINUOUS
 62
     7
 10
0.0
 20
0.0
 30
0.0
 40
1.541666666666667
 50
226.9992598611
 51
228.0007401389
  0
ARC
  5
16F
  8
0
  6
CONTINUOUS
 62
     7
 10
-1.2764295313
 20
-0.5979361594
 30
0.0
 40
0.6000000000000001
 50
294.0863702047
 51
303.6033597132
  0
ARC
  5
170
  8
0
  6
CONTINUOUS
 62
     7
 10
0.0
 20
0.0
 30
0.0
 40
1.448
 50
229.293381193
 51
230.706618807
  0
ARC
  5
171
  8
0
  6
CONTINUOUS
 62
     7
 10
-0.3672025036
 20
-1.360868223
 30
0.0
 40
0.5999999999999993
 50
156.3966402868
 51
165.9136297953
  0
ARC
  5
172
  8
0
  6
CONTINUOUS
 62
     7
 10
0.0
 20
0.0
 30
0.0
 40
1.541666666666667
 50
231.9992598611
 51
233.0007401389
  0
ARC
  5
173
  8
0
  6
CONTINUOUS
 62
     7
 10
-1.2194587615
 20
-0.7069089957
 30
0.0
 40
0.5999999999999999
 50
299.0863702047
 51
308.6033597132
  0
ARC
  5
174
  8
0
  6
CONTINUOUS
 62
     7
 10
0.0
 20
0.0
 30
0.0
 40
1.448
 50
234.293381193
 51
235.706618807
  0
ARC
  5
175
  8
0
  6
CONTINUOUS
 62
     7
 10
-0.2471977064
 20
-1.3876935155
 30
0.0
 40
0.6000000000000001
 50
161.3966402868
 51
170.9136297953
  0
ARC
  5
176
  8
0
  6
CONTINUOUS
 62
     7
 10
0.0
 20
0.0
 30
0.0
 40
1.541666666666667
 50
236.9992598611
 51
238.0007401389
  0
ARC
  5
177
  8
0
  6
CONTINUOUS
 62
     7
 10
-1.1532071742
 20
-0.8105018276
 30
0.0
 40
0.6000000000000001
 50
304.0863702047
 51
313.6033597132
  0
ARC
  5
178
  8
0
  6
CONTINUOUS
 62
     7
 10
0.0
 20
0.0
 30
0.0
 40
1.447999999999999
 50
239.293381193
 51
240.706618807
  0
ARC
  5
179
  8
0
  6
CONTINUOUS
 62
     7
 10
-0.1253115854
 20
-1.4039576225
 30
0.0
 40
0.5999999999999999
 50
166.3966402868
 51
175.9136297953
  0
ARC
  5
17A
  8
0
  6
CONTINUOUS
 62
     7
 10
0.0
 20
0.0
 30
0.0
 40
1.541666666666667
 50
241.9992598611
 51
243.0007401389
  0
ARC
  5
17B
  8
0
  6
CONTINUOUS
 62
     7
 10
-1.0781789839
 20
-0.9079262513
 30
0.0
 40
0.6000000000000001
 50
309.0863702047
 51
318.6033597132
  0
ARC
  5
17C
  8
0
  6
CONTINUOUS
 62
     7
 10
0.0
 20
0.0
 30
0.0
 40
1.448
 50
244.293381193
 51
245.706618807
  0
ARC
  5
17D
  8
0
  6
CONTINUOUS
 62
     7
 10
-0.0024717677
 20
-1.4095367641
 30
0.0
 40
0.6000000000000003
 50
171.3966402868
 51
180.9136297953
  0
ARC
  5
17E
  8
0
  6
CONTINUOUS
 62
     7
 10
0.0
 20
0.0
 30
0.0
 40
1.541666666666667
 50
246.9992598611
 51
248.0007401389
  0
ARC
  5
17F
  8
0
  6
CONTINUOUS
 62
     7
 10
-0.9949452006
 20
-0.9984408079
 30
0.0
 40
0.6000000000000004
 50
314.0863702047
 51
323.6033597132
  0
ARC
  5
180
  8
0
  6
CONTINUOUS
 62
     7
 10
0.0
 20
0.0
 30
0.0
 40
1.448
 50
249.293381193
 51
250.706618807
  0
ARC
  5
181
  8
0
  6
CONTINUOUS
 62
     7
 10
0.1203868618
 20
-1.4043884799
 30
0.0
 40
0.6000000000000001
 50
176.3966402868
 51
185.9136297953
  0
ARC
  5
182
  8
0
  6
CONTINUOUS
 62
     7
 10
0.0
 20
0.0
 30
0.0
 40
1.541666666666667
 50
251.9992598611
 51
253.0007401389
  0
ARC
  5
183
  8
0
  6
CONTINUOUS
 62
     7
 10
-0.9041392835
 20
-1.0813566272
 30
0.0
 40
0.6000000000000002
 50
319.0863702047
 51
328.6033597132
  0
ARC
  5
184
  8
0
  6
CONTINUOUS
 62
     7
 10
0.0
 20
0.0
 30
0.0
 40
1.448
 50
254.293381193
 51
255.706618807
  0
ARC
  5
185
  8
0
  6
CONTINUOUS
 62
     7
 10
0.2423292745
 20
-1.3885519514
 30
0.0
 40
0.5999999999999999
 50
181.3966402868
 51
190.9136297953
  0
ARC
  5
186
  8
0
  6
CONTINUOUS
 62
     7
 10
0.0
 20
0.0
 30
0.0
 40
1.541666666666667
 50
256.9992598611
 51
258.0007401389
  0
ARC
  5
187
  8
0
  6
CONTINUOUS
 62
     7
 10
-0.8064523205
 20
-1.1560426695
 30
0.0
 40
0.6000000000000001
 50
324.0863702047
 51
333.6033597132
  0
ARC
  5
188
  8
0
  6
CONTINUOUS
 62
     7
 10
0.0
 20
0.0
 30
0.0
 40
1.447999999999999
 50
259.293381193
 51
260.706618807
  0
ARC
  5
189
  8
0
  6
CONTINUOUS
 62
     7
 10
0.3624274151
 20
-1.3621477041
 30
0.0
 40
0.6000000000000006
 50
186.3966402868
 51
195.9136297953
  0
ARC
  5
18A
  8
0
  6
CONTINUOUS
 62
     7
 10
0.0
 20
0.0
 30
0.0
 40
1.541666666666667
 50
261.9992598611
 51
263.0007401389
  0
ARC
  5
18B
  8
0
  6
CONTINUOUS
 62
     7
 10
-0.7026277685
 20
-1.2219305291
 30
0.0
 40
0.6000000000000001
 50
329.0863702047
 51
338.6033597132
  0
ARC
  5
18C
  8
0
  6
CONTINUOUS
 62
     7
 10
0.0
 20
0.0
 30
0.0
 40
1.448000000000001
 50
264.293381193
 51
265.706618807
  0
LINE
  5
18D
  8
0
  6
CONTINUOUS
 62
     7
 10
-0.1084023936
 20
-1.4439366056
 30
0.0
 11
-0.1084023936
 21
-2.425
 31
0.0
  0
ARC
  5
18E
  8
0
  6
CONTINUOUS
 62
     7
 10
-0.0334023936
 20
-2.425
 30
0.0
 40
0.075
 50
180.0
 51
270.0
  0
LINE
  5
18F
  8
0
  6
CONTINUOUS
 62
     7
 10
-0.0334023936
 20
-2.5
 30
0.0
 11
0.0334023936
 21
-2.5
 31
0.0
  0
ARC
  5
190
  8
0
  6
CONTINUOUS
 62
     7
 10
0.0334023936
 20
-2.425
 30
0.0
 40
0.0749999999999999
 50
270.0
 51
0.0
  0
CIRCLE
  5
191
  8
0
  6
CONTINUOUS
 62
     7
 10
0.0
 20
0.0
 30
0.0
 40
0.13
  0
TEXT
  5
192
  8
0
  6
CONTINUOUS
 62
     7
 10
-1.5407282199
 20
-2.7182246102
 30
0.0
 40
0.1903
  1
SOLIDWORKS Educational Product.
 41
0.6774193548
 11
-1.5407282199
 21
-2.78545
 31
0.0
 73
     1
  0
TEXT
  5
193
  8
0
  6
CONTINUOUS
 62
     7
 10
-1.5407282199
 20
-3.0036746102
 30
0.0
 40
0.1903
  1
For Instructional Use Only.
 41
0.6611111111
 11
-1.5407282199
 21
-3.0709
 31
0.0
 73
     1
  0
ENDSEC
  0
EOF
