0
SECTION
2
HEADER
9
$INSUNITS
70
4
9
$ACADVER
1
AC1014
9
$HANDSEED
5
FFFF
0
ENDSEC
0
SECTION
2
TABLES
0
TABLE
2
VPORT
5
8
100
AcDbSymbolTable
0
ENDTAB
0
TABLE
2
LTYPE
5
5
100
AcDbSymbolTable
0
LTYPE
5
14
100
AcDbSymbolTableRecord
100
AcDbLinetypeTableRecord
2
BYBLOCK
70
0
0
LTYPE
5
15
100
AcDbSymbolTableRecord
100
AcDbLinetypeTableRecord
2
BYLAYER
70
0
0
ENDTAB
0
TABLE
2
LAYER
5
2
100
AcDbSymbolTable
70
2
0
LAYER
5
50
100
AcDbSymbolTableRecord
100
AcDbLayerTableRecord
2
0
70
0
6
CONTINUOUS
0
ENDTAB
0
TABLE
2
STYLE
5
3
100
AcDbSymbolTable
70
1
0
STYLE
5
11
100
AcDbSymbolTableRecord
100
AcDbTextStyleTableRecord
2
STANDARD
70
0
0
ENDTAB
0
TABLE
2
VIEW
5
6
100
AcDbSymbolTable
70
0
0
ENDTAB
0
TABLE
2
UCS
5
7
100
AcDbSymbolTable
70
0
0
ENDTAB
0
TABLE
2
APPID
5
9
100
AcDbSymbolTable
70
2
0
APPID
5
12
100
AcDbSymbolTableRecord
100
AcDbRegAppTableRecord
2
ACAD
70
0
0
ENDTAB
0
TABLE
2
DIMSTYLE
5
A
100
AcDbSymbolTable
70
1
0
ENDTAB
0
TABLE
2
BLOCK_RECORD
5
1
100
AcDbSymbolTable
70
1
0
BLOCK_RECORD
5
1F
100
AcDbSymbolTableRecord
100
AcDbBlockTableRecord
2
*MODEL_SPACE
0
BLOCK_RECORD
5
1B
100
AcDbSymbolTableRecord
100
AcDbBlockTableRecord
2
*PAPER_SPACE
0
ENDTAB
0
ENDSEC
0
SECTION
2
BLOCKS
0
BLOCK
5
20
100
AcDbEntity
100
AcDbBlockBegin
2
*MODEL_SPACE
0
ENDBLK
5
21
100
AcDbEntity
100
AcDbBlockEnd
0
BLOCK
5
1C
100
AcDbEntity
100
AcDbBlockBegin
2
*PAPER_SPACE
0
ENDBLK
5
1D
100
AcDbEntity
100
AcDbBlockEnd
0
ENDSEC
0
SECTION
2
ENTITIES
0
CIRCLE
5
100
100
AcDbEntity
8
0
100
AcDbCircle
10
5.9199999999999999
20
1.9300000000000006
30
0
40
1.4499999999999997
0
LWPOLYLINE
5
101
100
AcDbEntity
8
0
100
AcDbPolyline
90
4
70
1
43
0.0
10
-0.30000000000000027
20
4.4900000000000002
10
12.140000000000002
20
4.4900000000000029
10
12.140000000000002
20
27.719999999999999
10
-0.29999999999999999
20
27.719999999999992
0
CIRCLE
5
102
100
AcDbEntity
8
0
100
AcDbCircle
10
5.9199999999999999
20
30.280000000000001
30
0
40
1.4499999999999997
0
LINE
5
103
100
AcDbEntity
8
0
100
AcDbLine
10
33.920000000000002
20
141.99866888356348
30
0
11
33.920000000000002
21
-16.893053086955618
31
0
0
LWPOLYLINE
5
104
100
AcDbEntity
8
0
100
AcDbPolyline
90
14
70
1
43
0.0
10
28.920000000000002
20
57.835436228592762
10
33.920000000000002
20
57.835436228592762
10
38.920000000000002
20
57.835436228592755
10
56.29989390547577
20
40.348521834030457
42
0.19971020017185839
10
65.165816903703998
20
36.660185093000806
10
65.171087956728528
20
36.660185093000798
42
-0.4142135623730952
10
72.171087956728528
20
29.660185093000813
10
72.171087956728528
20
-20.703485938117723
10
33.920000000000002
20
-20.703485938117726
10
-4.3310879567285223
20
-20.703485938117726
10
-4.3310879567285197
20
29.660185093000809
42
-0.41421356237309503
10
2.6689120432714768
20
36.660185093000806
10
2.6741830962960123
20
36.660185093000806
42
0.19971020017185862
10
11.540106094524239
20
40.348521834030457
0
LINE
5
105
100
AcDbEntity
8
0
100
AcDbLine
10
11.060000000000002
20
-21.537330725736812
30
0
11
11.060000000000002
21
-3.4314859381177261
31
0
0
LINE
5
106
100
AcDbEntity
8
0
100
AcDbLine
10
23.05325695102426
20
-16.131485938117727
30
0
11
5.0000000000000018
21
-16.131485938117727
31
0
0
CIRCLE
5
107
100
AcDbEntity
8
0
100
AcDbCircle
10
11.060000000000002
20
-16.131485938117727
30
0
40
1.5500000000000003
0
CIRCLE
5
108
100
AcDbEntity
8
0
100
AcDbCircle
10
11.060000000000002
20
-3.4314859381177261
30
0
40
1.5500000000000003
0
CIRCLE
5
109
100
AcDbEntity
8
0
100
AcDbCircle
10
61.920000000000002
20
30.280000000000005
30
0
40
1.4499999999999997
0
LWPOLYLINE
5
110
100
AcDbEntity
8
0
100
AcDbPolyline
90
4
70
1
43
0.0
10
55.700000000000003
20
4.4899999999999984
10
55.700000000000003
20
27.720000000000002
10
68.140000000000001
20
27.720000000000002
10
68.140000000000015
20
4.4899999999999984
0
CIRCLE
5
111
100
AcDbEntity
8
0
100
AcDbCircle
10
61.920000000000002
20
1.9299999999999962
30
0
40
1.4499999999999997
0
CIRCLE
5
112
100
AcDbEntity
8
0
100
AcDbCircle
10
56.780000000000008
20
-16.13148593811772
30
0
40
1.5500000000000003
0
CIRCLE
5
113
100
AcDbEntity
8
0
100
AcDbCircle
10
56.780000000000008
20
-3.4314859381177243
30
0
40
1.5500000000000003
0
CIRCLE
5
114
100
AcDbEntity
8
0
100
AcDbCircle
10
-25.920000000000002
20
-41.28999939872952
30
0
40
1.2999999999999989
0
CIRCLE
5
115
100
AcDbEntity
8
0
100
AcDbCircle
10
25.920000000000002
20
41.28999939872952
30
0
40
1.2999999999999989
0
CIRCLE
5
116
100
AcDbEntity
8
0
100
AcDbCircle
10
41.920000000000002
20
41.289999398729513
30
0
40
1.2999999999999989
0
ENDSEC
0
SECTION
2
OBJECTS
0
DICTIONARY
5
C
100
AcDbDictionary
3
ACAD_GROUP
350
D
3
ACAD_MLINESTYLE
350
17
0
DICTIONARY
5
D
100
AcDbDictionary
0
DICTIONARY
5
1A
330
C
100
AcDbDictionary
0
DICTIONARY
5
17
100
AcDbDictionary
0
ENDSEC
0
EOF
