0
SECTION
2
HEADER
9
$INSUNITS
70
4
9
$ACADVER
1
AC1014
9
$HANDSEED
5
FFFF
0
ENDSEC
0
SECTION
2
TABLES
0
TABLE
2
VPORT
5
8
100
AcDbSymbolTable
0
ENDTAB
0
TABLE
2
LTYPE
5
5
100
AcDbSymbolTable
0
LTYPE
5
14
100
AcDbSymbolTableRecord
100
AcDbLinetypeTableRecord
2
BYBLOCK
70
0
0
LTYPE
5
15
100
AcDbSymbolTableRecord
100
AcDbLinetypeTableRecord
2
BYLAYER
70
0
0
ENDTAB
0
TABLE
2
LAYER
5
2
100
AcDbSymbolTable
70
2
0
LAYER
5
50
100
AcDbSymbolTableRecord
100
AcDbLayerTableRecord
2
0
70
0
6
CONTINUOUS
0
ENDTAB
0
TABLE
2
STYLE
5
3
100
AcDbSymbolTable
70
1
0
STYLE
5
11
100
AcDbSymbolTableRecord
100
AcDbTextStyleTableRecord
2
STANDARD
70
0
0
ENDTAB
0
TABLE
2
VIEW
5
6
100
AcDbSymbolTable
70
0
0
ENDTAB
0
TABLE
2
UCS
5
7
100
AcDbSymbolTable
70
0
0
ENDTAB
0
TABLE
2
APPID
5
9
100
AcDbSymbolTable
70
2
0
APPID
5
12
100
AcDbSymbolTableRecord
100
AcDbRegAppTableRecord
2
ACAD
70
0
0
ENDTAB
0
TABLE
2
DIMSTYLE
5
A
100
AcDbSymbolTable
70
1
0
ENDTAB
0
TABLE
2
BLOCK_RECORD
5
1
100
AcDbSymbolTable
70
1
0
BLOCK_RECORD
5
1F
100
AcDbSymbolTableRecord
100
AcDbBlockTableRecord
2
*MODEL_SPACE
0
BLOCK_RECORD
5
1B
100
AcDbSymbolTableRecord
100
AcDbBlockTableRecord
2
*PAPER_SPACE
0
ENDTAB
0
ENDSEC
0
SECTION
2
BLOCKS
0
BLOCK
5
20
100
AcDbEntity
100
AcDbBlockBegin
2
*MODEL_SPACE
0
ENDBLK
5
21
100
AcDbEntity
100
AcDbBlockEnd
0
BLOCK
5
1C
100
AcDbEntity
100
AcDbBlockBegin
2
*PAPER_SPACE
0
ENDBLK
5
1D
100
AcDbEntity
100
AcDbBlockEnd
0
ENDSEC
0
SECTION
2
ENTITIES
0
LWPOLYLINE
5
100
100
AcDbEntity
8
0
100
AcDbPolyline
90
15
70
1
43
0.0
10
28.920000000000002
20
57.835436228592762
10
33.920000000000002
20
57.835436228592762
10
38.920000000000002
20
57.835436228592755
10
56.29989390547577
20
40.348521834030457
42
0.19971020017185839
10
65.165816903703998
20
36.660185093000806
10
65.171087956728528
20
36.660185093000798
42
-0.4142135623730952
10
72.171087956728528
20
29.660185093000813
10
72.171087956728528
20
4.2054964254157055
42
-0.41421356237309581
10
67.171087956728528
20
-0.79450357458429044
10
0.66891204327147991
20
-0.79450357458429599
42
-0.41421356237309503
10
-4.3310879567285197
20
4.2054964254157046
10
-4.3310879567285197
20
29.660185093000809
42
-0.41421356237309503
10
2.6689120432714768
20
36.660185093000806
10
2.6741830962960123
20
36.660185093000806
42
0.19971020017185862
10
11.540106094524239
20
40.348521834030457
0
CIRCLE
5
101
100
AcDbEntity
8
0
100
AcDbCircle
10
61.920000000000002
20
30.280000000000005
30
0
40
1.4499999999999997
0
CIRCLE
5
102
100
AcDbEntity
8
0
100
AcDbCircle
10
61.920000000000002
20
1.9299999999999962
30
0
40
1.4499999999999997
0
CIRCLE
5
103
100
AcDbEntity
8
0
100
AcDbCircle
10
26.295000000000002
20
41.293624073471371
30
0
40
1.2999999999999989
0
CIRCLE
5
104
100
AcDbEntity
8
0
100
AcDbCircle
10
41.545000000000002
20
41.293624073471371
30
0
40
1.2999999999999989
0
CIRCLE
5
105
100
AcDbEntity
8
0
100
AcDbCircle
10
5.9199999999999999
20
21.290000000000006
30
0
40
1.3000000000000007
0
LWPOLYLINE
5
106
100
AcDbEntity
8
0
100
AcDbPolyline
90
4
70
1
43
0.0
10
68.239999999999995
20
27.82
10
68.240000000000009
20
4.3899999999999988
10
55.600000000000009
20
4.3900000000000006
10
55.600000000000009
20
27.82
0
CIRCLE
5
107
100
AcDbEntity
8
0
100
AcDbCircle
10
4.5600000000000041
20
3.8685140618822746
30
0
40
2.25
0
CIRCLE
5
108
100
AcDbEntity
8
0
100
AcDbCircle
10
4.5600000000000041
20
3.8685140618822746
30
0
40
2.25
0
CIRCLE
5
109
100
AcDbEntity
8
0
100
AcDbCircle
10
4.5600000000000041
20
16.568514061882276
30
0
40
2.25
0
CIRCLE
5
110
100
AcDbEntity
8
0
100
AcDbCircle
10
4.5600000000000041
20
16.568514061882276
30
0
40
2.25
0
CIRCLE
5
111
100
AcDbEntity
8
0
100
AcDbCircle
10
4.5600000000000041
20
3.8685140618822746
30
0
40
2.25
0
CIRCLE
5
112
100
AcDbEntity
8
0
100
AcDbCircle
10
50.280000000000001
20
16.568514061882276
30
0
40
2.25
0
CIRCLE
5
113
100
AcDbEntity
8
0
100
AcDbCircle
10
50.280000000000001
20
3.8685140618822746
30
0
40
2.25
0
CIRCLE
5
114
100
AcDbEntity
8
0
100
AcDbCircle
10
27.000000402331356
20
19.000000283122066
30
0
40
16.124515736871103
0
ENDSEC
0
SECTION
2
OBJECTS
0
DICTIONARY
5
C
100
AcDbDictionary
3
ACAD_GROUP
350
D
3
ACAD_MLINESTYLE
350
17
0
DICTIONARY
5
D
100
AcDbDictionary
0
DICTIONARY
5
1A
330
C
100
AcDbDictionary
0
DICTIONARY
5
17
100
AcDbDictionary
0
ENDSEC
0
EOF
